<?xml version="1.0" encoding="utf-8"?>
<!-- Generator: Adobe Illustrator 20.1.0, SVG Export Plug-In . SVG Version: 6.00 Build 0)  -->
<svg version="1.1"
	 id="Слой_1" xmlns:cc="http://creativecommons.org/ns#" xmlns:dc="http://purl.org/dc/elements/1.1/" xmlns:inkscape="http://www.inkscape.org/namespaces/inkscape" xmlns:rdf="http://www.w3.org/1999/02/22-rdf-syntax-ns#" xmlns:sodipodi="http://sodipodi.sourceforge.net/DTD/sodipodi-0.dtd" xmlns:svg="http://www.w3.org/2000/svg"
	 xmlns="http://www.w3.org/2000/svg" xmlns:xlink="http://www.w3.org/1999/xlink" x="0px" y="0px" viewBox="0 0 24 24"
	 style="enable-background:new 0 0 24 24;" xml:space="preserve">
<g>
	<g>
		<path d="M21,11.2c0.7-1,1.2-1.9,1.5-2.7c0.3-0.9,0.2-1.8-0.2-2.6c-0.4-0.7-1.1-1.2-2-1.4c-0.5-0.1-1-0.2-1.4-0.2
			c-0.5,0-1.1,0-1.6,0.1c-0.3,0-0.6,0.1-0.9,0.2v0l0,0C16.1,4.3,16,4,15.9,3.7c-0.6-1.3-1.1-2.1-1.6-2.6C13.5,0.4,12.7,0,11.9,0
			c-0.8,0-1.6,0.4-2.2,1.1C8.9,1.8,8.4,2.8,8,3.7L7.7,4.6v0C7.4,4.6,7.1,4.5,6.8,4.5c0,0,0,0,0,0C6.2,4.4,5.7,4.4,5.2,4.4
			c-0.4,0-0.9,0.1-1.4,0.2C2.8,4.8,2,5.3,1.6,6C1.2,6.6,1.1,7.6,1.4,8.5c0.2,1,0.8,1.8,1.5,2.7c0.2,0.2,0.4,0.4,0.5,0.7l0,0
			c-0.1,0.1-0.2,0.2-0.3,0.3c-0.1,0.1-0.2,0.2-0.3,0.4c-0.7,1-1.2,1.9-1.5,2.7C1,16.3,1.1,17.2,1.5,18c0.4,0.7,1.1,1.2,2,1.4
			c0.7,0.2,1.7,0.2,3.1,0.1c0.3,0,0.6-0.1,0.9-0.2l0,0C7.8,19.8,7.8,20,8,20.3c0.6,1.3,1.1,2.1,1.6,2.6c0.7,0.7,1.5,1.1,2.2,1.1
			c0.8,0,1.6-0.4,2.2-1.1c0.7-0.7,1.2-1.6,1.6-2.6c0-0.1,0.1-0.2,0.1-0.3c0.1-0.2,0.1-0.4,0.2-0.7c0.1,0,0.3,0.1,0.4,0.1
			c0.1,0,0.3,0,0.4,0.1c1,0.2,2,0.1,3.1-0.1c0.9-0.2,1.6-0.7,2-1.4c0.4-0.8,0.5-1.6,0.2-2.5c0-0.8-0.4-1.6-1.3-2.7v0
			c-0.1-0.1-0.2-0.2-0.3-0.3c-0.1-0.1-0.2-0.2-0.3-0.3l0.1-0.1C20.7,11.7,20.9,11.5,21,11.2z M2.7,8.1C2.5,7.5,2.5,7,2.8,6.6
			C3,6.2,3.4,6,4,5.8c0.2-0.1,0.3-0.1,0.6-0.1c0.2,0,0.4,0,0.6-0.1c0.5,0,1,0,1.5,0.1c0.1,0,0.2,0,0.3,0c0.1,0,0.3,0.1,0.4,0.1
			c-0.3,1-0.5,2-0.6,3.1c-0.8,0.6-1.5,1.3-2.3,2l0,0l0,0c-0.1-0.1-0.2-0.2-0.2-0.3C4.1,10.5,4,10.5,4,10.3C3.3,9.7,2.9,8.9,2.7,8.1z
			 M6.7,12c-0.1,0.4-0.1,0.8-0.1,1.2v0l0,0c-0.2-0.2-0.4-0.4-0.6-0.6c-0.2-0.2-0.4-0.4-0.6-0.6L5.3,12c0.4-0.4,0.8-0.8,1.3-1.2
			l0.1,0L6.7,12z M7.3,18.2c-0.3,0.1-0.5,0.1-0.7,0.1c-0.5,0.1-0.9,0.1-1.3,0.1c-0.5,0-1,0-1.3-0.1C3.5,18,3,17.8,2.9,17.4
			c-0.2-0.5-0.3-0.9-0.1-1.5C3,15.1,3.4,14.3,4,13.7c0.1-0.1,0.2-0.2,0.3-0.3c0.1-0.1,0.1-0.2,0.2-0.3l0,0l0,0
			c0.7,0.7,1.5,1.4,2.3,2c0.1,1.1,0.3,2.2,0.6,3.1H7.3z M15.6,7.9L15.6,7.9L15.6,7.9c-0.4-0.3-0.7-0.5-1-0.6c-0.3-0.2-0.6-0.4-1-0.6
			l0,0c0.5-0.2,1-0.4,1.7-0.6C15.4,6.8,15.5,7.4,15.6,7.9z M9.2,4.2c0.4-0.9,0.9-1.7,1.4-2.2c0.4-0.5,0.8-0.7,1.3-0.7h0
			c0.5,0,0.9,0.2,1.4,0.7c0.5,0.5,1,1.3,1.4,2.2c0,0.1,0.1,0.2,0.1,0.3c0,0.1,0.1,0.2,0.1,0.3L14.8,5c-1,0.3-2,0.6-2.9,1.1
			C10.8,5.5,9.9,5.2,9,5l0-0.1C9,4.7,9.1,4.5,9.2,4.2z M8.6,6.3L8.6,6.3c0.6,0.2,1.2,0.4,1.7,0.5l0,0v0C9.9,7,9.6,7.2,9.3,7.4
			C9,7.5,8.7,7.8,8.3,8l0,0C8.3,7.4,8.5,6.8,8.6,6.3z M8.2,16.1L8.2,16.1L8.2,16.1c0.2,0.1,0.4,0.2,0.5,0.3c0.2,0.1,0.3,0.2,0.5,0.3
			c0.3,0.2,0.7,0.4,1.1,0.6l0,0c-0.7,0.2-1.2,0.4-1.8,0.6C8.4,17.2,8.3,16.7,8.2,16.1z M14.7,19.5c0,0.1-0.1,0.2-0.1,0.3
			c-0.4,1-0.9,1.7-1.4,2.2c-0.5,0.5-0.8,0.7-1.3,0.7c-0.5,0-0.8-0.2-1.3-0.7c-0.5-0.5-1-1.3-1.4-2.2c-0.1-0.2-0.2-0.4-0.3-0.7v0l0,0
			c1-0.3,1.9-0.6,2.9-1.1c1,0.4,1.9,0.8,2.9,1.1l0.1,0.1C14.8,19.2,14.8,19.3,14.7,19.5z M15.6,16c-0.1,0.7-0.2,1.3-0.4,1.8l0,0
			l-1.7-0.6l0,0l0,0c0.2-0.1,0.4-0.2,0.5-0.3c0.2-0.1,0.4-0.2,0.5-0.3c0.2-0.1,0.3-0.2,0.5-0.3C15.2,16.2,15.4,16,15.6,16L15.6,16
			L15.6,16z M15.8,14.2c-0.6,0.5-1.3,0.9-1.9,1.2l0,0.1l-0.1-0.1c-0.7,0.4-1.3,0.8-1.9,1.1c-0.6-0.3-1.3-0.7-1.9-1.1
			c-0.7-0.4-1.4-0.8-1.9-1.2c-0.1-0.7-0.1-1.5-0.1-2.2c0-0.8,0-1.5,0.1-2.2C8.6,9.3,9.3,8.9,10,8.5c0.4-0.2,0.8-0.4,1.2-0.6
			c0.2-0.1,0.5-0.3,0.8-0.4c0.8,0.3,1.5,0.8,1.9,1.1c0.2,0.2,0.5,0.3,0.7,0.5c0.4,0.2,0.8,0.5,1.2,0.8v0.1c0.1,0.8,0.1,1.5,0.1,2.3
			C15.9,12.8,15.9,13.5,15.8,14.2z M21.2,15.9c0.1,0.6,0.1,1-0.2,1.5l0,0c-0.2,0.3-0.6,0.6-1.2,0.8c-0.4,0.1-0.8,0.1-1.3,0.1
			c-0.4,0-0.8,0-1.3-0.1c-0.1,0-0.2,0-0.3,0c-0.1,0-0.3,0-0.4,0c0.2-1,0.4-2,0.6-3.1c0.8-0.6,1.6-1.3,2.3-2l0,0l0,0
			c0.1,0.1,0.2,0.2,0.2,0.3c0.1,0.1,0.2,0.2,0.2,0.3C20.7,14.6,21.1,15.3,21.2,15.9z M17.3,13.2v-2.5l0,0c0.5,0.4,0.9,0.8,1.3,1.2
			l0,0l0,0c-0.2,0.2-0.4,0.4-0.6,0.6C17.7,12.8,17.5,13,17.3,13.2L17.3,13.2z M19.9,10.4c-0.1,0.1-0.2,0.2-0.2,0.3
			c-0.1,0.1-0.2,0.2-0.2,0.3l0,0l0,0c-0.7-0.7-1.5-1.4-2.3-2C17,8,16.8,6.9,16.5,5.9v0l0.1,0c0.3-0.1,0.4-0.1,0.7-0.1
			c0.5-0.1,1-0.1,1.5-0.1c0.4,0,0.8,0.1,1.2,0.2c0.6,0.2,1,0.5,1.2,0.8c0.2,0.5,0.3,0.9,0.1,1.5C20.9,9,20.5,9.8,19.9,10.4z"/>
		<circle cx="11.9" cy="12" r="2"/>
	</g>
</g>
</svg>
