<svg xmlns="http://www.w3.org/2000/svg" viewBox="2633 218 12 12"><g transform="translate(2632.95 218)"><path class="a" d="M295.2,45.568a.5.5,0,0,0,.5-.5V42.978a.5.5,0,0,0-1,0V45.07A.5.5,0,0,0,295.2,45.568Zm0,0" transform="translate(-292.055 -42.48)"/><path class="a" d="M306.768,45.568a.5.5,0,0,0,.5-.5V42.978a.5.5,0,0,0-1,0V45.07A.5.5,0,0,0,306.768,45.568Zm0,0" transform="translate(-297.862 -42.48)"/><path class="a" d="M297.928,53.133a1.589,1.589,0,0,1-1.116.379,2.377,2.377,0,0,1-.961-.169V52.6a1.624,1.624,0,0,0,.867.249.812.812,0,0,0,.543-.164.558.558,0,0,0,.194-.443c0-.394-.279-.588-.832-.588a5.5,5.5,0,0,0-.658.05V49.482h2.2v.712h-1.445v.8a3.113,3.113,0,0,1,.329,0,1.36,1.36,0,0,1,.956.319,1.121,1.121,0,0,1,.344.862,1.256,1.256,0,0,1-.413,1Zm-2.809.309h-2.491v-.687h.822V50.294l-.842.184v-.717l1.714-.344v3.342h.817v.687Zm5.848-8.812h-1.121v1.494a1.494,1.494,0,0,1-2.989,0V44.63H294.1v1.494a1.494,1.494,0,0,1-2.989,0V44.63h-1.121a.5.5,0,0,0-.5.5v9.933a.5.5,0,0,0,.5.5h11a.5.5,0,0,0,.5-.5V45.128a.5.5,0,0,0-.5-.5Zm0,0" transform="translate(-289.44 -43.559)"/></g></svg>