<svg xmlns="http://www.w3.org/2000/svg" viewBox="2036 726 21.638 22"><g transform="translate(2035.816 726.027)"><path class="a" d="M814.531,85.235a.87.87,0,1,0-1.628.616,9.083,9.083,0,1,1-5.2-5.247l-.617,1.041c-.169.286-.039.477.289.424L810.3,81.6a.489.489,0,0,0,.395-.666l-.991-2.8c-.111-.313-.342-.335-.51-.049l-.595,1a10.817,10.817,0,1,0,5.933,6.145Z" transform="translate(-793.41 -77.91)"/><path class="a" d="M991.461,181.09a.862.862,0,0,0-.861.861v5.9a.269.269,0,0,0,.147.239l5.394,2.788a.859.859,0,0,0,.391.1h0a.861.861,0,0,0,.4-1.626l-4.608-2.382v-5.015A.862.862,0,0,0,991.461,181.09Z" transform="translate(-980.781 -176.07)"/></g></svg>