<svg xmlns="http://www.w3.org/2000/svg" viewBox="4276 816 24.32 24.29">
  <defs>
    <style>
      .cls-1 {
        fill: #e6e6e6;
      }
    </style>
  </defs>
  <g id="gruppe-365" transform="translate(4276.17 816.15)">
    <path id="pfad" class="cls-1" d="M305.92,416.71a5.81,5.81,0,0,1-2.14-2.43,2.41,2.41,0,0,1-1.6-1.6,2.439,2.439,0,0,0-.78-.52,3,3,0,1,0-6,0,5.83,5.83,0,0,1-2.43,2.14,237270.869,237270.869,0,0,0-3.2,3.2,2.41,2.41,0,0,1-1.6,1.6,2.42,2.42,0,0,0-.54.83,3,3,0,0,0,0,6,2.44,2.44,0,0,0,.52.78,118633.737,118633.737,0,0,0,3.2,3.2,2.4,2.4,0,0,0,.83.54,3,3,0,1,0,6,0,5.82,5.82,0,0,1,2.43-2.15,79089.787,79089.787,0,0,1,3.2-3.2,2.41,2.41,0,0,1,1.6-1.6,2.42,2.42,0,0,0,.54-.83,3,3,0,1,0,0-6Zm1,4.16a1.65,1.65,0,0,1-1.42.47l-.7-.11-.07.71a1,1,0,0,1-.31.64,1.06,1.06,0,0,1-.67.31h-.58v.58a1.06,1.06,0,0,1-1,1h-.58v.58a1.06,1.06,0,0,1-1,1h-.58v.58a1.06,1.06,0,0,1-1,1h-.58v.58a1.06,1.06,0,0,1-.31.67,1,1,0,0,1-.64.31l-.71.07.11.7a1.65,1.65,0,1,1-3.26,0l.12-.71-.72-.07a1.06,1.06,0,0,1-1-1v-.58h-.58a1.06,1.06,0,0,1-1-1v-.58h-.58a1.086,1.086,0,0,1-.98-.92l-.09-.68-.68.1a1.65,1.65,0,1,1,0-3.27l.7.11.07-.71a1,1,0,0,1,.31-.64,1.06,1.06,0,0,1,.67-.31h.58v-.58a1.06,1.06,0,0,1,1-1h.58v-.58a1.06,1.06,0,0,1,1-1h.58v-.58a1.06,1.06,0,0,1,1-1h.58v-.58a1.06,1.06,0,0,1,.31-.67,1,1,0,0,1,.64-.31l.71-.07-.11-.7a1.65,1.65,0,1,1,3.27,0l-.1.68.68.09a1.086,1.086,0,0,1,.92.98v.58h.58a1.06,1.06,0,0,1,1,1v.58h.58a1.06,1.06,0,0,1,1,1l.07.72.71-.12a1.65,1.65,0,0,1,1.45,2.8Zm0,0" transform="translate(-284.8 -409.31)"/>
    <path id="pfad-2" data-name="pfad" class="cls-1" d="M292.48,422.33a.9.9,0,1,1-1.27,0A.9.9,0,0,1,292.48,422.33Zm0,0" transform="translate(-284.8 -409.31)"/>
    <path id="pfad-3" data-name="pfad" class="cls-1" d="M295.65,419.16a.9.9,0,1,1-1.27,0A.9.9,0,0,1,295.65,419.16Zm0,0" transform="translate(-284.8 -409.31)"/>
    <path id="pfad-4" data-name="pfad" class="cls-1" d="M298.83,416a.9.9,0,1,1-1.27,0A.9.9,0,0,1,298.83,416Zm0,0" transform="translate(-284.8 -409.31)"/>
    <path id="pfad-5" data-name="pfad" class="cls-1" d="M295.78,425.63a.9.9,0,1,1-1.27,0A.9.9,0,0,1,295.78,425.63Zm0,0" transform="translate(-284.8 -409.31)"/>
    <path id="pfad-6" data-name="pfad" class="cls-1" d="M299,422.45a.9.9,0,1,1-1.27,0A.9.9,0,0,1,299,422.45Zm0,0" transform="translate(-284.8 -409.31)"/>
    <path id="pfad-7" data-name="pfad" class="cls-1" d="M302.12,419.28a.9.9,0,1,1-1.27,0,.9.9,0,0,1,1.27,0Zm0,0" transform="translate(-284.8 -409.31)"/>
  </g>
</svg>
