<svg xmlns="http://www.w3.org/2000/svg" viewBox="21 2274 24.284 24.35">
  <defs>
    <style>
      .cls-1 {
        fill: #e6e6e6;
      }
    </style>
  </defs>
  <g id="writing-tool" transform="translate(336.239 1964.15)">
    <path id="path" class="cls-1" d="M24,17.4l-5.8-5.8L22.8,7A4.1,4.1,0,0,0,17,1.2L12.4,5.8,6.6,0a.908.908,0,0,0-1,0L.2,5.4a.735.735,0,0,0,0,.9L6,12.2l-4.1,4a1.238,1.238,0,0,0-.2.3L-.2,23.3A.663.663,0,0,0,0,24a.764.764,0,0,0,.5.2H.7l6.8-1.9h0a.215.215,0,0,0,.2-.2l4-4,5.8,5.8c.2.2.7.3.9,0l5.4-5.4A.764.764,0,0,0,24,18C24,17.8,24.1,17.5,24,17.4ZM17.9,2.2a2.732,2.732,0,0,1,1.9-.8,2.973,2.973,0,0,1,2,.8,2.717,2.717,0,0,1,0,3.9l-4.6,4.6L13.3,6.8ZM1.5,22.5,2.8,18,6,21.2Zm5.8-1.9L3.4,16.7,7,13.1,10.9,17Zm10.8,1.8-1.5-1.5,2.3-2.3-.9-.9L15.7,20l-1.5-1.5.8-.8-.9-.9-.8.8L11.8,16l2.3-2.3-.9-.9-2.3,2.3L9.4,13.6l.8-.8L9,11.6l-.8.8L6.6,10.9,8.9,8.6,8,7.6,5.7,9.9,4.1,8.4l.8-.8L4,6.7l-.8.8L1.6,5.9,6.1,1.4,22.6,17.9Z" transform="translate(-315 310)"/>
  </g>
</svg>
