<svg xmlns="http://www.w3.org/2000/svg" viewBox="20.75 1351.75 24.5 20.5"><g transform="translate(20.75 1351.75)"><path class="a" d="M358.287,465.408a.491.491,0,0,0,.227-.053l5.933-2.924a.5.5,0,0,0,0-.893l-5.933-2.924a.485.485,0,0,0-.733.425v5.848a.5.5,0,0,0,.237.425.489.489,0,0,0,.27.1Zm.507-1.308v-4.253l4.315,2.127Z" transform="translate(-348.264 -449.879)"/><path class="a" d="M371.572,450.63H350.808a1.607,1.607,0,0,0-1.618,1.595v16.81a1.607,1.607,0,0,0,1.618,1.595h20.764a1.607,1.607,0,0,0,1.618-1.595v-16.81A1.607,1.607,0,0,0,371.572,450.63Zm.6,1.595v2.8h-2.783l.917-3.392h1.251a.609.609,0,0,1,.434.171.591.591,0,0,1,.181.425Zm0,3.785v13.025a.6.6,0,0,1-.6.6H350.808a.6.6,0,0,1-.6-.6V456.021Zm-20.149-1h-1.834v-2.8a.6.6,0,0,1,.6-.6h2.157Zm1.079,0,.917-3.392h3.042l-.917,3.392Zm4.088,0,.917-3.392h3.031l-.917,3.392Zm4.077,0,.917-3.392h2.977l-.917,3.392Zm4.077,0,.917-3.392H369.3l-.917,3.392Z" transform="translate(-348.94 -450.38)"/></g></svg>