<svg xmlns="http://www.w3.org/2000/svg" viewBox="20.55 2024.99 24.491 18.52"><path class="a" d="M294.15,490.94,293,488.23a.54.54,0,0,0-.49-.33h-2a.54.54,0,0,0-.54.55V490h-1.12v-1.3a.54.54,0,0,0-.54-.55h-2.37V485.7a.54.54,0,0,0-.54-.55h-4.17v-1.28h4.17a.55.55,0,0,0,0-1.09H276a.55.55,0,0,0,0,1.09h4.17v1.28H276a.54.54,0,0,0-.54.55v.93h-2a.54.54,0,0,0-.54.55v4.57h-1.6v-4.57a.54.54,0,1,0-1.08,0v10.23a.54.54,0,1,0,1.08,0v-4.57h1.6v4.57a.54.54,0,0,0,.54.55h3.19l3.21,2.71a.54.54,0,0,0,.35.13h8.13a.54.54,0,0,0,.54-.55V497.8H290v1.52a.54.54,0,0,0,.54.55h2a.54.54,0,0,0,.49-.32l1.19-2.71a.56.56,0,0,0,0-.22V491.2a.549.549,0,0,0,0-.22Zm-1.06,5.58-1,2.23H291v-1.52a.54.54,0,0,0-.54-.55h-2.2a.54.54,0,0,0-.54.55v2.45h-7.4L277.15,497a.54.54,0,0,0-.35-.13H274V487.7h2a.54.54,0,0,0,.54-.55v-.93h8.34v2.45a.54.54,0,0,0,.54.55h2.37v1.3a.54.54,0,0,0,.54.55h2.2a.54.54,0,0,0,.54-.55V489h1.07l1,2.33Z" transform="translate(-249.44 1542.46)"/></svg>