<svg xmlns="http://www.w3.org/2000/svg" viewBox="21 1960 23.9 19.1">
  <defs>
    <style>
      .cls-1 {
        fill: #e6e6e6;
      }
    </style>
  </defs>
  <g id="noun_601211_cc" transform="translate(289 1955)">
    <g id="group" transform="translate(-536 -298)">
      <g id="group-2" data-name="group">
        <path id="path" class="cls-1" d="M68-12v-4.6a.684.684,0,0,0-.7-.7h-.9a2.848,2.848,0,0,0-2.6-1.8,2.814,2.814,0,0,0-2.1,1,2.814,2.814,0,0,0-2.1-1A2.706,2.706,0,0,0,57-17.3H50.9a2.848,2.848,0,0,0-2.6-1.8,2.706,2.706,0,0,0-2.6,1.8h-.9a.684.684,0,0,0-.7.7v9.4l2.1,6c.1.3.3.4.6.5l7.4.7A.773.773,0,0,0,55-.7V-11.3H67.4A.669.669,0,0,0,68-12ZM45.4-7.7l3.1.4a1.063,1.063,0,0,1,.9,1L50-1.8l-2.6-.3L45.5-7.6v-.1Zm0-3.6h8.1v9.8l-2.1-.2-.5-4.8a2.547,2.547,0,0,0-2.2-2.2l-3.3-.4Zm4.2-4.9a1.367,1.367,0,0,1-1.4,1.4,1.367,1.367,0,0,1-1.4-1.4,1.367,1.367,0,0,1,1.4-1.4A1.367,1.367,0,0,1,49.6-16.2Zm11.3,0a1.367,1.367,0,0,1-1.4,1.4,1.367,1.367,0,0,1-1.4-1.4,1.367,1.367,0,0,1,1.4-1.4A1.367,1.367,0,0,1,60.9-16.2Zm4.3,0a1.367,1.367,0,0,1-1.4,1.4,1.367,1.367,0,0,1-1.4-1.4,1.367,1.367,0,0,1,1.4-1.4A1.43,1.43,0,0,1,65.2-16.2Zm1.4,3.5H45.4v-3.2h0a2.893,2.893,0,0,0,2.8,2.5A2.893,2.893,0,0,0,51-15.9h5.7a2.893,2.893,0,0,0,2.8,2.5,2.814,2.814,0,0,0,2.1-1,2.814,2.814,0,0,0,2.1,1,2.893,2.893,0,0,0,2.8-2.5h0v3.2Z" transform="translate(336 303) rotate(180)"/>
      </g>
    </g>
  </g>
</svg>
