<svg xmlns="http://www.w3.org/2000/svg" viewBox="20.75 1159.75 24.5 24.5"><g transform="translate(20.76 1159.75)"><path class="a" d="M369.457,352.977a.508.508,0,0,0-.509-.5H351.714a.507.507,0,1,0,0,1h17.234a.508.508,0,0,0,.509-.507Z" transform="translate(-348.086 -343.536)"/><path class="a" d="M357.182,364.213a.508.508,0,0,0,.509-.507v-7.669a.509.509,0,0,0-.866-.356l-1.916,1.909a.508.508,0,0,0,.714.712l1.083-1.079v6.418a.507.507,0,0,0,.476.572Z" transform="translate(-347.783 -343.296)"/><path class="a" d="M363.51,356.574a.507.507,0,1,0,0-1.014h-3.832a.508.508,0,0,0-.509.507v3.818a.508.508,0,0,0,.509.507h1.916a1.41,1.41,0,0,1,.953.367h0a1.4,1.4,0,0,1-1,2.395h-1.916a.507.507,0,1,0,0,1h1.916a2.4,2.4,0,0,0,1.775-4.023h0a2.408,2.408,0,0,0-1.71-.712h-1.407v-2.8Z" transform="translate(-347.432 -343.294)"/><path class="a" d="M372.03,351.59a.5.5,0,0,0-.509.507v13.354a1.416,1.416,0,0,1-1.407,1.4H350.975a1.4,1.4,0,0,1-1-.41,1.367,1.367,0,0,1-.411-.992V352.1a.509.509,0,0,0-1.018,0v13.354a2.421,2.421,0,0,0,2.425,2.405h19.15a2.421,2.421,0,0,0,2.414-2.405V352.1a.508.508,0,0,0-.509-.507Z" transform="translate(-348.299 -343.606)"/><path class="a" d="M355.9,347.278h9.126v1.629a.509.509,0,0,0,1.018,0v-3.98a.509.509,0,0,0-1.018,0v1.348H355.9a.507.507,0,1,0,0,1.014Z" transform="translate(-347.735 -344.17)"/><path class="a" d="M371.771,346.975h0a2.408,2.408,0,0,0-1.678-.69H367.56a.507.507,0,1,0,0,1.014h2.533a1.431,1.431,0,0,1,1,.41,1.389,1.389,0,0,1,.411.992v1.564H349.568V348.7a1.4,1.4,0,0,1,1.407-1.4h3.475v1.629a.509.509,0,1,0,1.007,0v-3.98a.508.508,0,0,0-.509-.507.5.5,0,0,0-.357.151.484.484,0,0,0-.141.356V346.3h-3.507a2.4,2.4,0,0,0-1.71.712h0a2.4,2.4,0,0,0-.693,1.672v2.06a.508.508,0,0,0,.509.507h22.982a.508.508,0,0,0,.509-.507v-2.06a2.391,2.391,0,0,0-.769-1.7Z" transform="translate(-348.3 -344.168)"/></g></svg>