<svg xmlns="http://www.w3.org/2000/svg" viewBox="21 2088 24.026 18.4">
  <defs>
    <style>
      .cls-1 {
        fill: #e6e6e6;
      }
    </style>
  </defs>
  <g id="manufacturer" transform="translate(21 2088)">
    <g id="group">
      <g id="group-2" data-name="group">
        <path id="path" class="cls-1" d="M5.4.7c0,.5-.3.8-.6.8H.6A.938.938,0,0,1,0,.7.669.669,0,0,1,.6,0H4.8C5.2,0,5.4.2,5.4.7Z"/>
      </g>
    </g>
    <g id="group-3" data-name="group">
      <path id="path-2" data-name="path" class="cls-1" d="M23.6,4.5a1.147,1.147,0,0,0-1-.1L17.9,6.5V5.4c0-.4-.1-.7-.4-.8a1.147,1.147,0,0,0-1-.1L11.8,6.6V5.4a.894.894,0,0,0-.4-.8,1.147,1.147,0,0,0-1-.1l-5,2.3V3.6a.987.987,0,0,0-.9-1H1a1,1,0,0,0-1,1V17a1.415,1.415,0,0,0,1.3,1.4H23a.945.945,0,0,0,1-1V5.5A.951.951,0,0,0,23.6,4.5Zm-.9,12.4H1.3V3.9H4V8.7l6.5-2.8V8.6l6.1-2.7V8.6l6.1-2.7Z"/>
      <path id="path-3" data-name="path" class="cls-1" d="M20.7,10.2v4.2c0,.3-.3.5-.7.5a.713.713,0,0,1-.8-.7V10.1a.751.751,0,0,1,.7-.7H20A.849.849,0,0,1,20.7,10.2Z"/>
      <path id="path-4" data-name="path" class="cls-1" d="M14.6,10.2v4.2a.56.56,0,0,1-.6.5.713.713,0,0,1-.8-.7V10.1c0-.3.3-.7.6-.7H14A.871.871,0,0,1,14.6,10.2Z"/>
      <path id="path-5" data-name="path" class="cls-1" d="M8.5,10.2v4.2a.752.752,0,0,1-.7.5.713.713,0,0,1-.8-.7V10.1a.751.751,0,0,1,.7-.7h.1A.849.849,0,0,1,8.5,10.2Z"/>
    </g>
  </g>
</svg>
