<?xml version="1.0" encoding="utf-8"?>
<!-- Generator: Adobe Illustrator 19.1.0, SVG Export Plug-In . SVG Version: 6.00 Build 0)  -->
<svg version="1.2" baseProfile="tiny" id="Layer_1" xmlns="http://www.w3.org/2000/svg" xmlns:xlink="http://www.w3.org/1999/xlink"
	 x="0px" y="0px" viewBox="-293 384.5 24.5 24.5" xml:space="preserve">
<g>
	<g id="pfad-2">
		<path d="M-275.2,386.8c-3.1-3.1-8.2-3.1-11.3,0c-2.8,3.1-3.1,7.7-0.8,11.1l6.4,9.3l6.4-9.2C-272.1,394.5-272.4,389.9-275.2,386.8z
			 M-275.7,397.1l-5.1,7.4l-5.1-7.4c-1.9-2.8-1.7-6.5,0.5-9.1l0.1-0.1c2.5-2.5,6.6-2.5,9,0C-274,390.5-273.8,394.3-275.7,397.1z"/>
	</g>
	<g id="pfad-3">
		<path d="M-268.5,405.2c0,1.1-1.1,2-3.3,2.7c-2.9,0.7-6,1.1-9,1.1s-6-0.4-8.9-1.1c-2.2-0.7-3.3-1.6-3.3-2.7c0-1.8,2.9-3.2,7.4-3.8
			c0.4,0,0.8,0.3,0.9,0.7c0,0.2,0,0.4-0.1,0.6s-0.3,0.3-0.5,0.3c-4.5,0.5-6,1.9-6,2.2c0,0.5,3.2,2.2,10.7,2.2s10.7-1.7,10.7-2.2
			c0-0.3-1.6-1.7-6-2.2c-0.2,0-0.4-0.1-0.5-0.3c-0.1-0.2-0.2-0.4-0.2-0.6s0.1-0.4,0.3-0.5c0.2-0.1,0.4-0.2,0.6-0.2
			C-271.4,402-268.5,403.5-268.5,405.2z"/>
	</g>
	<g>
		<path d="M-280.8,396.3c-2.1,0-3.9-1.7-3.9-3.9s1.7-3.9,3.9-3.9s3.9,1.7,3.9,3.9S-278.7,396.3-280.8,396.3z M-280.8,390
			c-1.3,0-2.4,1.1-2.4,2.4s1.1,2.4,2.4,2.4s2.4-1.1,2.4-2.4S-279.5,390-280.8,390z"/>
	</g>
</g>
</svg>
