<svg xmlns="http://www.w3.org/2000/svg" viewBox="-542.5 3353 24 18"><path class="a" d="M229.442,54.33q0-.755-.11-1.918a18.3,18.3,0,0,0-.288-2.069,3.313,3.313,0,0,0-.93-1.732,2.792,2.792,0,0,0-1.691-.817,83.557,83.557,0,0,0-8.973-.355,83.571,83.571,0,0,0-8.972.355,2.767,2.767,0,0,0-1.691.817,3.342,3.342,0,0,0-.863,1.723,16.181,16.181,0,0,0-.3,2.069q-.1,1.163-.11,1.918t0,2.1v2.1q0,.755.11,1.918a18.06,18.06,0,0,0,.288,2.069,3.312,3.312,0,0,0,.93,1.732,2.792,2.792,0,0,0,1.691.817,83.567,83.567,0,0,0,8.973.355,83.557,83.557,0,0,0,8.972-.355,2.767,2.767,0,0,0,1.691-.817,3.332,3.332,0,0,0,.922-1.732,16.226,16.226,0,0,0,.3-2.069q.1-1.154.11-1.918t0-2.1Q229.458,55.085,229.442,54.33ZM222.2,57.2l-6.85,4.494a.735.735,0,0,1-.457.142.9.9,0,0,1-.414-.115.842.842,0,0,1-.44-.79V51.941a.9.9,0,0,1,.439-.792.811.811,0,0,1,.872.037l6.85,4.494a.912.912,0,0,1,0,1.519Z" transform="translate(-748.005 3305.569)"/></svg>