<svg xmlns="http://www.w3.org/2000/svg" viewBox="-541 3455 24 14"><path class="a" d="M-149.989-91.5h-20.58a1.728,1.728,0,0,0-1.225.5,1.72,1.72,0,0,0-.506,1.222v10.546a1.72,1.72,0,0,0,.506,1.222,1.728,1.728,0,0,0,1.225.5h6.268a1.235,1.235,0,0,0,1.169-.747l1.4-3.5a1.534,1.534,0,0,1,1.418-.889,1.534,1.534,0,0,1,1.388.935l1.216,3.406a1.272,1.272,0,0,0,1.169.793h6.5a1.728,1.728,0,0,0,1.225-.5,1.72,1.72,0,0,0,.506-1.222v-10.5a1.64,1.64,0,0,0-.446-1.261A1.648,1.648,0,0,0-149.989-91.5Zm-15.435,10.033a2.663,2.663,0,0,1-2.666-2.66,2.691,2.691,0,0,1,2.666-2.66,2.691,2.691,0,0,1,2.666,2.66A2.663,2.663,0,0,1-165.424-81.468Zm10.29,0a2.663,2.663,0,0,1-2.666-2.66,2.691,2.691,0,0,1,2.666-2.66,2.691,2.691,0,0,1,2.666,2.66A2.663,2.663,0,0,1-155.134-81.468Z" transform="translate(-368.7 3546.501)"/></svg>