<svg xmlns="http://www.w3.org/2000/svg" viewBox="-539.5 3504 21 24"><g transform="translate(-909.5 2779)"><g transform="translate(370 725)"><path class="a" d="M148.81,52.182a1,1,0,0,0-.276-.687l-5.23-5.656a.983.983,0,0,0-.75-.319H129.478a1.666,1.666,0,0,0-1.648,1.663V67.857a1.666,1.666,0,0,0,1.648,1.663h17.7a1.666,1.666,0,0,0,1.648-1.663Zm-14.625,9.9h-.809v1.1a.33.33,0,0,1-.091.287.324.324,0,0,1-.284.092h-.434a.324.324,0,0,1-.284-.092.33.33,0,0,1-.091-.287V59.193a.331.331,0,0,1,.091-.287.324.324,0,0,1,.284-.092h1.589a1.493,1.493,0,0,1,1.124.474,1.522,1.522,0,0,1,.405,1.16A1.492,1.492,0,0,1,135.3,61.6a1.464,1.464,0,0,1-1.112.471Zm4.2,1.444h-1.312a.324.324,0,0,1-.284-.092.331.331,0,0,1-.091-.287V59.163a.331.331,0,0,1,.091-.287.324.324,0,0,1,.284-.092h1.3a2.333,2.333,0,0,1,2.152,1.131,2.378,2.378,0,0,1,0,2.448,2.333,2.333,0,0,1-2.152,1.131Zm6.01-3.7h-1.372v1h1.056a.324.324,0,0,1,.284.092.331.331,0,0,1,.091.287v.249a.331.331,0,0,1-.091.287.324.324,0,0,1-.284.092h-1.056v1.384a.331.331,0,0,1-.091.287.324.324,0,0,1-.284.092h-.434a.324.324,0,0,1-.284-.092.33.33,0,0,1-.091-.287V59.223a.33.33,0,0,1,.091-.287.324.324,0,0,1,.284-.092h2.151a.324.324,0,0,1,.284.092.331.331,0,0,1,.091.287v.249h0a.33.33,0,0,1-.1.25.324.324,0,0,1-.253.088ZM147.36,52.5h-3.424a1.666,1.666,0,0,1-1.648-1.663V47.123a.109.109,0,0,1,.075-.09.108.108,0,0,1,.113.03l4.934,5.248c.089.06.059.179-.03.179Z" transform="translate(-127.83 -45.52)"/><path class="a" d="M133.992,59.87H133.4v1.285h.592a.57.57,0,0,0,.449-.188.581.581,0,0,0,.143-.469A.547.547,0,0,0,133.992,59.87Z" transform="translate(-127.903 -45.58)"/><path class="a" d="M138.454,59.87H138V62.6h.464a1.2,1.2,0,0,0,.964-.386,1.222,1.222,0,0,0,.309-1,1.2,1.2,0,0,0-.321-.983,1.178,1.178,0,0,0-.962-.361Z" transform="translate(-127.964 -45.58)"/></g></g></svg>