<?xml version="1.0" encoding="utf-8"?>
<!-- Generator: Adobe Illustrator 19.0.0, SVG Export Plug-In . SVG Version: 6.00 Build 0)  -->
<svg version="1.1" id="Layer_1" xmlns="http://www.w3.org/2000/svg" xmlns:xlink="http://www.w3.org/1999/xlink" x="0px" y="0px"
	 viewBox="-951.8 264.3 33.5 33.4" style="enable-background:new -951.8 264.3 33.5 33.4;" xml:space="preserve">
<g>
	<path class="st0" d="M-942.5,288.9c0,2.2,1.8,4,4,4s4-1.8,4-4c0-0.3,0-0.6-0.1-0.9c-0.8-0.2-1.5-1-1.5-1.9v-0.3
		c-0.7-0.5-1.5-0.8-2.4-0.8C-940.7,284.9-942.5,286.7-942.5,288.9z"/>
	<path class="st0" d="M-932.5,288.9c0,3.3-2.7,6-6,6s-6-2.7-6-6s2.7-6,6-6c0.9,0,1.7,0.2,2.4,0.5v-5h-6.7c-0.4,0-0.7,0.2-0.8,0.6
		l-0.9,2.4h-4.4c-0.8,0-1.5,0.7-1.5,1.5v12c0,0.8,0.7,1.5,1.5,1.5h20.9c0.8,0,1.5-0.7,1.5-1.5v-6.8h-6.1
		C-932.5,288.4-932.5,288.6-932.5,288.9z"/>
	<path class="st0" d="M-920,265.6h-14c-0.3,0-0.5,0.2-0.5,0.5v20c0,0.3,0.2,0.5,0.5,0.5h14c0.3,0,0.5-0.2,0.5-0.5v-20
		C-919.5,265.8-919.8,265.6-920,265.6z M-923,281.1h-8V280h8V281.1z M-927,279l-4-3.7h2.3v-3.2h3.4v3.2h2.3L-927,279z"/>
</g>
</svg>
