<?xml version="1.0" encoding="utf-8"?>
<!-- Generator: Adobe Illustrator 19.0.0, SVG Export Plug-In . SVG Version: 6.00 Build 0)  -->
<svg version="1.1" id="Layer_1" xmlns="http://www.w3.org/2000/svg" xmlns:xlink="http://www.w3.org/1999/xlink" x="0px" y="0px"
	 viewBox="-947 272 24 18" style="enable-background:new -947 272 24 18;" xml:space="preserve">
<g>
	<circle class="st0" cx="-935" cy="282.5" r="4"/>
	<path class="st0" d="M-924.6,275L-924.6,275l-4.4,0l-0.9-2.4c-0.1-0.3-0.5-0.6-0.8-0.6h-8.6c-0.4,0-0.7,0.2-0.8,0.6l-0.9,2.4h-4.4
		c-0.8,0-1.5,0.7-1.5,1.5v12c0,0.8,0.7,1.5,1.5,1.5h20.9c0.8,0,1.5-0.7,1.5-1.5v-12C-923,275.5-923.5,275-924.6,275z M-935,288.5
		c-3.3,0-6-2.7-6-6s2.7-6,6-6s6,2.7,6,6S-931.7,288.5-935,288.5z"/>
</g>
</svg>
