<svg xmlns="http://www.w3.org/2000/svg" viewBox="20.75 2149.75 24.377 20.49"><g transform="translate(20.87 2149.98)"><path class="a" d="M351.86,501.14a.49.49,0,0,0-.5-.48h-.16l-2.95,1.21h0a1.169,1.169,0,0,1-.12-.31,3.772,3.772,0,0,1,0-.87h0a2.79,2.79,0,0,0,.81-1.91,3,3,0,0,0-4.8-2.3,3.18,3.18,0,0,0-1,1.38,8.69,8.69,0,0,0-.42,3.05,1.25,1.25,0,0,0,.26.77,1.35,1.35,0,0,0,1,.51h.09l-.05.08-3.59,5.36h-1.05l-3.24-.53h-.31a2,2,0,0,0-1,.29,3.336,3.336,0,0,0-.72.65h0l-6,6.69a.46.46,0,0,0-.12.31.49.49,0,0,0,.5.48h2.74a.51.51,0,0,0,.32-.11l5-4.09h0l3.8,1.49a.53.53,0,0,0,.7-.25.47.47,0,0,0,0-.38.49.49,0,0,0-.3-.26l-4.11-1.6a.52.52,0,0,0-.51.08l-5.06,4.16H329.6l.08-.08,5.23-5.79a2.91,2.91,0,0,1,.56-.52.8.8,0,0,1,.63-.12l3.29.53h1.13l2.87,6.62a.52.52,0,0,0,.65.26.49.49,0,0,0,.26-.27.47.47,0,0,0,0-.36l-1-2.37h0l5.08-7.57a.48.48,0,0,0,0-.51.52.52,0,0,0-.46-.25.51.51,0,0,0-.41.23l-4.72,7-1.42-3.25h0l2.13-3.19h0c2.8-1.14,8.11-3.31,8.23-3.37a.48.48,0,0,0,.13-.41Zm-4.76.62a2.151,2.151,0,0,0,.17.47h0l-2.88,1.17.85-1.27a.48.48,0,0,0,.08-.26v-.53A.5.5,0,0,0,345,501a.54.54,0,0,0-.53.06.851.851,0,0,1-.3.13h-.19a.22.22,0,0,1-.21-.1.55.55,0,0,1-.08-.18h0a7.689,7.689,0,0,1,.36-2.66,2.24,2.24,0,0,1,.67-1,1.85,1.85,0,0,1,1.21-.37,2,2,0,0,1,2,1.92,1.88,1.88,0,0,1-.67,1.43.48.48,0,0,0-.16.34,4.471,4.471,0,0,0,0,1.19Z" transform="translate(-327.86 -495.51)"/><path class="a" d="M336,505.56a5.1,5.1,0,0,0,5.15-5A4.93,4.93,0,0,0,339.6,497a5.18,5.18,0,0,0-3.64-1.47h0a5.18,5.18,0,0,0-3.64,1.47,4.93,4.93,0,0,0-1.51,3.55,5.1,5.1,0,0,0,5.19,5.01Zm0-9.08a4.06,4.06,0,1,1-4.16,4.06A4.11,4.11,0,0,1,336,496.48Z" transform="translate(-327.86 -495.51)"/></g></svg>