<svg xmlns="http://www.w3.org/2000/svg" xmlns:xlink="http://www.w3.org/1999/xlink" viewBox="212 1522 24 24"><g transform="translate(212 1521.84)"><g class="b" transform="translate(0 0.16)"><path class="c" d="M251.781,115.581,250.1,115.3a9.492,9.492,0,0,0-.677-1.631l.993-1.386a1.473,1.473,0,0,0-.158-1.906l-1.495-1.491a1.475,1.475,0,0,0-1.048-.438,1.459,1.459,0,0,0-.858.275l-1.394.991a9.426,9.426,0,0,0-1.693-.7l-.283-1.659a1.481,1.481,0,0,0-1.465-1.236H239.9a1.481,1.481,0,0,0-1.465,1.236l-.291,1.7a9.284,9.284,0,0,0-1.63.688l-1.379-.991a1.484,1.484,0,0,0-1.911.16l-1.5,1.488a1.478,1.478,0,0,0-.158,1.906l1,1.406a9.237,9.237,0,0,0-.667,1.636l-1.665.28A1.479,1.479,0,0,0,229,117.092V119.2a1.479,1.479,0,0,0,1.239,1.461l1.705.29a9.252,9.252,0,0,0,.69,1.626l-.988,1.371a1.473,1.473,0,0,0,.161,1.906l1.495,1.491a1.478,1.478,0,0,0,1.906.158l1.409-1a9.5,9.5,0,0,0,1.585.65l.281,1.681a1.481,1.481,0,0,0,1.465,1.236h2.117a1.48,1.48,0,0,0,1.465-1.236l.286-1.681a9.514,9.514,0,0,0,1.635-.675l1.389.991a1.484,1.484,0,0,0,1.911-.158l1.495-1.491a1.478,1.478,0,0,0,.161-1.906l-.993-1.391a9.385,9.385,0,0,0,.677-1.631l1.685-.28a1.479,1.479,0,0,0,1.239-1.461v-2.106a1.461,1.461,0,0,0-1.229-1.461Zm-.115,3.565a.13.13,0,0,1-.11.13l-2.107.35a.673.673,0,0,0-.542.5,8,8,0,0,1-.873,2.1.675.675,0,0,0,.03.735l1.239,1.741a.137.137,0,0,1-.015.17l-1.495,1.491a.13.13,0,0,1-.171.015l-1.74-1.233a.68.68,0,0,0-.737-.03,8.044,8.044,0,0,1-2.1.871.665.665,0,0,0-.5.54l-.356,2.1a.13.13,0,0,1-.13.11h-2.112a.13.13,0,0,1-.13-.11l-.351-2.1a.673.673,0,0,0-.5-.54,8.35,8.35,0,0,1-2.056-.841.7.7,0,0,0-.341-.09.662.662,0,0,0-.391.125l-1.755,1.246a.148.148,0,0,1-.075.025.135.135,0,0,1-.1-.04l-1.495-1.491a.135.135,0,0,1-.015-.17l1.234-1.726a.686.686,0,0,0,.03-.74,7.914,7.914,0,0,1-.883-2.091.689.689,0,0,0-.542-.5l-2.122-.36a.13.13,0,0,1-.11-.13v-2.106a.13.13,0,0,1,.11-.13l2.092-.35a.678.678,0,0,0,.547-.5,7.983,7.983,0,0,1,.858-2.1.667.667,0,0,0-.035-.73l-1.249-1.751a.135.135,0,0,1,.015-.17l1.495-1.493a.13.13,0,0,1,.171-.015l1.728,1.233a.691.691,0,0,0,.742.03,7.968,7.968,0,0,1,2.1-.881.689.689,0,0,0,.5-.54l.364-2.116a.13.13,0,0,1,.13-.11h2.112a.13.13,0,0,1,.13.11l.351,2.086a.677.677,0,0,0,.5.545,8.155,8.155,0,0,1,2.152.881.679.679,0,0,0,.737-.03l1.73-1.241a.148.148,0,0,1,.075-.025.135.135,0,0,1,.1.04l1.495,1.491a.136.136,0,0,1,.015.17l-1.239,1.736a.675.675,0,0,0-.03.735,8,8,0,0,1,.873,2.1.665.665,0,0,0,.542.5l2.107.355a.13.13,0,0,1,.11.13v2.106Zm0,0" transform="translate(-229 -106.13)"/></g><path class="c" d="M343.061,214.92a5.168,5.168,0,1,0,5.181,5.168A5.175,5.175,0,0,0,343.061,214.92Zm0,8.986a3.815,3.815,0,1,1,3.824-3.815A3.82,3.82,0,0,1,343.061,223.906Zm0,0" transform="translate(-331.054 -207.966)"/></g></svg>