<svg xmlns="http://www.w3.org/2000/svg" viewBox="-540 3404 24 18"><g transform="translate(-540 3403.995)"><path d="M264.75,57.57" transform="translate(-249.904 -48.542)"/><path class="a" d="M258.086,48.07l-4.373,3.324h-4.026a1.214,1.214,0,0,0-1.2,1.222v8.472a1.214,1.214,0,0,0,1.2,1.213h4l4.4,3.278a1.182,1.182,0,0,0,1.256.117,1.215,1.215,0,0,0,.661-1.09V49.043a1.215,1.215,0,0,0-.661-1.09A1.182,1.182,0,0,0,258.086,48.07Z" transform="translate(-248.49 -47.82)"/><path class="a" d="M266.22,51.345a1.178,1.178,0,0,0-1.186-.407,1.2,1.2,0,0,0-.885.9,1.214,1.214,0,0,0,.4,1.2,5.77,5.77,0,0,1,0,8.083,1.225,1.225,0,0,0,0,1.694,1.157,1.157,0,0,0,1.662,0,8.154,8.154,0,0,0,.009-11.472Z" transform="translate(-249.849 -48.048)"/><path class="a" d="M270.809,48.462a1.148,1.148,0,0,0-1.662,0,1.225,1.225,0,0,0,0,1.694,9.623,9.623,0,0,1,0,13.481,1.226,1.226,0,0,0-.247,1.3,1.2,1.2,0,0,0,1.078.753,1.17,1.17,0,0,0,.831-.343,12.055,12.055,0,0,0,0-16.88Z" transform="translate(-250.257 -47.841)"/></g></svg>