<?xml version="1.0" encoding="utf-8"?>
<!-- Generator: Adobe Illustrator 20.1.0, SVG Export Plug-In . SVG Version: 6.00 Build 0)  -->
<svg version="1.1" id="Layer_1" xmlns="http://www.w3.org/2000/svg" xmlns:xlink="http://www.w3.org/1999/xlink" x="0px" y="0px"
	 viewBox="0 0 24 24" style="enable-background:new 0 0 24 24;" xml:space="preserve">
<g>
	<g>
		<g>
			<path d="M3.7,2.8C3.7,2.8,3.7,2.8,3.7,2.8c-0.2,0-0.4,0.1-0.6,0.2C2.9,3.2,2.8,3.5,2.8,3.7v12.9c0,0.5,0.4,0.9,0.9,0.9
				c2,0,5.3,0.4,7.7,2.8V6.8c0-0.2,0-0.3-0.1-0.4C9.3,3.3,5.7,2.8,3.7,2.8z"/>
			<path d="M21.2,16.6V3.7c0-0.2-0.1-0.4-0.3-0.6c-0.2-0.2-0.4-0.2-0.6-0.2c0,0,0,0,0,0c-2,0-5.6,0.5-7.5,3.5
				c-0.1,0.1-0.1,0.3-0.1,0.4v13.5c2.3-2.4,5.7-2.8,7.7-2.8C20.8,17.4,21.2,17,21.2,16.6z"/>
			<path d="M23.1,5.8h-0.6v10.8c0,1.2-1,2.2-2.2,2.2c-1.7,0-4.5,0.3-6.5,2.2c3.4-0.8,7-0.3,9.1,0.2c0.3,0.1,0.5,0,0.7-0.2
				c0.2-0.2,0.3-0.4,0.3-0.7V6.7C24,6.2,23.6,5.8,23.1,5.8z"/>
			<path d="M1.5,16.6V5.8H0.9C0.4,5.8,0,6.2,0,6.7v13.6c0,0.3,0.1,0.5,0.3,0.7c0.2,0.2,0.5,0.2,0.7,0.2c2.1-0.5,5.7-1,9.1-0.2
				c-2-1.9-4.8-2.2-6.5-2.2C2.5,18.8,1.5,17.8,1.5,16.6z"/>
		</g>
	</g>
</g>
</svg>
