<?xml version="1.0" encoding="utf-8"?>
<!-- Generator: Adobe Illustrator 20.1.0, SVG Export Plug-In . SVG Version: 6.00 Build 0)  -->
<svg version="1.1" id="Capa_1" xmlns="http://www.w3.org/2000/svg" xmlns:xlink="http://www.w3.org/1999/xlink" x="0px" y="0px"
	 viewBox="0 0 24 24" style="enable-background:new 0 0 24 24;" xml:space="preserve">
<g>
	<g>
		<path d="M12.8,8v7.2c0,0.4-0.3,0.8-0.8,0.8s-0.8-0.3-0.8-0.8V8c0-0.4,0.3-0.7,0.8-0.7S12.8,7.6,12.8,8z"/>
	</g>
	<g>
		<path d="M24,4.5v14.1c0,0.4-0.3,0.8-0.8,0.8c-1,0-2-0.4-3.2-0.8c-1.2-0.4-2.7-0.9-4-0.9c-1.1,0-2,0.4-2.7,1.1
			c-0.3,0.3-0.8,0.3-1,0c-0.3-0.3-0.3-0.8,0-1.1c0.7-0.7,1.8-1.6,3.8-1.6c1.6,0,3.2,0.5,4.5,1c0.7,0.2,1.4,0.5,2,0.6V5.2
			c-0.8-0.1-1.6-0.4-2.5-0.7c-1.2-0.4-2.7-0.9-4-0.9c-2.6,0-3.3,2-3.3,2.1C12.6,6,12.3,6.3,12,6.3S11.4,6,11.3,5.7
			c0-0.1-0.7-2.1-3.3-2.1c-1.4,0-2.8,0.5-4,0.9C3.1,4.8,2.3,5.1,1.5,5.2v12.6c0.6-0.1,1.2-0.4,2-0.6c1.4-0.5,2.9-1,4.5-1
			c1.9,0,3.1,0.9,3.8,1.6c0.1,0.2,0.2,0.3,0.2,0.5c0,0.2-0.1,0.4-0.2,0.5c-0.2,0.1-0.3,0.2-0.5,0.2c-0.2,0-0.4-0.1-0.5-0.2
			C10,18.1,9.1,17.7,8,17.7c-1.4,0-2.8,0.5-4,0.9c-1.1,0.4-2.2,0.8-3.2,0.8c-0.4,0-0.8-0.3-0.8-0.8V4.5c0-0.4,0.3-0.8,0.8-0.8
			c0.7,0,1.7-0.3,2.7-0.7c1.3-0.5,2.9-1,4.5-1c1.9,0,3.1,0.9,3.8,1.6C11.8,3.8,11.9,3.9,12,4c0.1-0.1,0.2-0.2,0.3-0.3
			C12.9,3,14.1,2.1,16,2.1c1.6,0,3.2,0.5,4.5,1c1,0.4,2,0.7,2.7,0.7C23.7,3.8,24,4.1,24,4.5z"/>
	</g>
	<g>
		<path d="M24,21.1c0,0.4-0.3,0.8-0.8,0.8c-1,0-2-0.4-3.2-0.8c-1.3-0.4-2.7-0.9-4-0.9c-1.1,0-2,0.4-2.7,1.1
			c-0.1,0.2-0.3,0.2-0.5,0.2h-1.6c-0.2,0-0.4-0.1-0.5-0.2C10,20.6,9.1,20.2,8,20.2c-1.4,0-2.8,0.5-4,0.9c-1.2,0.4-2.2,0.8-3.2,0.8
			c-0.4,0-0.8-0.3-0.8-0.8c0-0.4,0.3-0.8,0.8-0.8c0.7,0,1.7-0.3,2.7-0.7c1.3-0.5,2.9-1,4.5-1c1.7,0,2.9,0.7,3.5,1.3h1
			c0.7-0.6,1.8-1.3,3.5-1.3c1.6,0,3.2,0.5,4.5,1c1,0.4,2,0.7,2.7,0.7C23.7,20.4,24,20.7,24,21.1z"/>
	</g>
	<path d="M21.4,8.4c0,0.4-0.3,0.8-0.8,0.8c-0.1,0-0.5-0.1-0.5-0.1c-1.3-0.4-2.7-0.9-4-0.9c-0.5,0-1.4,0.2-1.5,0.3c0,0-0.3,0-0.3,0
		C14,8.3,13.8,8,13.8,7.6c0-0.3,0.2-0.6,0.4-0.7c0,0,0.1-0.1,0.2-0.1c0.5-0.2,1.1-0.3,1.8-0.3c1.6,0,3.2,0.5,4.5,1
		c0.1,0,0.3,0.1,0.3,0.1C21.2,7.9,21.4,8.1,21.4,8.4z"/>
	<path d="M21.4,11.6c0,0.4-0.3,0.8-0.8,0.8c-0.1,0-0.5-0.1-0.5-0.1c-1.3-0.4-2.7-0.9-4-0.9c-0.5,0-1.4,0.2-1.5,0.3c0,0-0.3,0-0.3,0
		c-0.3-0.1-0.6-0.4-0.6-0.7c0-0.3,0.2-0.6,0.4-0.7c0,0,0.1-0.1,0.2-0.1c0.5-0.2,1.1-0.3,1.8-0.3c1.6,0,3.2,0.5,4.5,1
		c0.1,0,0.3,0.1,0.3,0.1C21.2,11,21.4,11.3,21.4,11.6z"/>
	<path d="M2.5,8.4c0,0.4,0.3,0.8,0.8,0.8c0.1,0,0.5-0.1,0.5-0.1c1.3-0.4,2.7-0.9,4-0.9c0.5,0,1.4,0.2,1.5,0.3c0,0,0.3,0,0.3,0
		c0.3-0.1,0.6-0.4,0.6-0.7c0-0.3-0.2-0.6-0.4-0.7c0,0-0.1-0.1-0.2-0.1C9.1,6.7,8.5,6.6,7.8,6.6c-1.6,0-3.2,0.5-4.5,1
		C3.3,7.6,3,7.7,3,7.7C2.7,7.9,2.5,8.1,2.5,8.4z"/>
	<path d="M2.5,11.6c0,0.4,0.3,0.8,0.8,0.8c0.1,0,0.5-0.1,0.5-0.1c1.3-0.4,2.7-0.9,4-0.9c0.5,0,1.4,0.2,1.5,0.3c0,0,0.3,0,0.3,0
		c0.3-0.1,0.6-0.4,0.6-0.7c0-0.3-0.2-0.6-0.4-0.7c0,0-0.1-0.1-0.2-0.1C9.1,9.9,8.5,9.8,7.8,9.8c-1.6,0-3.2,0.5-4.5,1
		c-0.1,0-0.3,0.1-0.3,0.1C2.7,11,2.5,11.3,2.5,11.6z"/>
</g>
</svg>
