<?xml version="1.0" encoding="utf-8"?>
<!-- Generator: Adobe Illustrator 19.0.0, SVG Export Plug-In . SVG Version: 6.00 Build 0)  -->
<svg version="1.1" id="Layer_1" xmlns="http://www.w3.org/2000/svg" xmlns:xlink="http://www.w3.org/1999/xlink" x="0px" y="0px"
	 viewBox="0 0 25 25" style="enable-background:new 0 0 25 25;" xml:space="preserve">
<g>
	<g>
		<path class="st0" d="M13.1,0.3c-0.4,0-0.8,0-1.2,0C5.3,0.5,0.1,5.9,0.1,12.5s5.2,12,11.8,12.2c0.2,0,0.4,0,0.6,0s0.4,0,0.6,0
			c6.6-0.3,11.8-5.6,11.8-12.2S19.7,0.5,13.1,0.3z M12.5,23.3L12.5,23.3c-0.2,0-0.3,0-0.4,0c-5.7-0.3-10.2-5-10.2-10.7
			S6.4,2.1,12.1,1.8c0.2,0,0.4,0,0.6,0c0.1,0,0.2,0,0.3,0c4.4,0.1,8.1,2.8,9.7,6.7c0.1,0.3,0.2,0.5,0.3,0.8c0,0,0,0.1,0,0.1
			c0.1,0.3,0.2,0.6,0.2,0.9c0.2,0.7,0.2,1.5,0.2,2.3s-0.1,1.5-0.2,2.3c-0.1,0.3-0.1,0.6-0.2,0.9c0,0,0,0.1,0,0.1
			c-0.1,0.3-0.2,0.5-0.3,0.8c-1.6,3.8-5.3,6.5-9.7,6.7h0c-0.1,0-0.2,0-0.3,0H12.5z"/>
	</g>
	<g>
		<g>
			<path class="st0" d="M22.1,16.3c-0.1,0.3-0.4,0.6-0.7,0.6c0,0-0.1,0-0.1,0c0,0-0.1,0-0.2,0l-1.9-0.8c-0.4-0.2-0.6-0.6-0.4-1
				c0.1-0.4,0.6-0.6,1-0.4l1.6,0.7l0,0l0.3,0.1C22,15.6,22.2,15.9,22.1,16.3z"/>
		</g>
		<g>
			<path class="st0" d="M6.5,15.5c0,0.3-0.2,0.5-0.5,0.6l-1.8,0.8c-0.1,0-0.2,0-0.2,0c0,0-0.1,0-0.1,0c-0.3,0-0.6-0.3-0.7-0.6
				c-0.1-0.4,0.1-0.7,0.4-0.8l2.1-0.9l0,0.1c0.2,0,0.3,0,0.5,0.1C6.4,15,6.5,15.3,6.5,15.5z"/>
		</g>
		<g>
			<path class="st0" d="M19.2,6L19.2,6c-0.3-0.3-0.8-0.3-1.1,0l-4.5,4.5c-0.3-0.1-0.6-0.2-1-0.2c-1.2,0-2.3,1-2.3,2.3s1,2.3,2.3,2.3
				s2.3-1,2.3-2.3c0-0.3-0.1-0.7-0.2-1L19.2,7C19.4,6.8,19.4,6.3,19.2,6z M12.6,13.3c-0.4,0-0.8-0.3-0.8-0.8s0.3-0.8,0.8-0.8
				c0.4,0,0.8,0.3,0.8,0.8c0,0.2-0.1,0.4-0.2,0.5C13,13.2,12.8,13.3,12.6,13.3z"/>
		</g>
		<g>
			<path class="st0" d="M6.4,10c-0.1,0.3-0.4,0.5-0.7,0.5c-0.1,0-0.2,0-0.3,0L3.6,9.6C3.3,9.5,3.1,9.3,3.1,9c0-0.3,0.1-0.5,0.3-0.7
				c0.2-0.2,0.5-0.2,0.8-0.1L6,9C6.4,9.1,6.5,9.6,6.4,10z"/>
		</g>
		<g>
			<path class="st0" d="M22.2,9c0,0.3-0.2,0.5-0.5,0.6l-1.8,0.8c-0.1,0-0.2,0.1-0.3,0.1c-0.3,0-0.6-0.2-0.7-0.5
				c0-0.1-0.1-0.2-0.1-0.3c0-0.3,0.2-0.6,0.5-0.7l1.8-0.8c0.2-0.1,0.5-0.1,0.8,0.1C22.1,8.5,22.2,8.7,22.2,9z"/>
		</g>
		<g>
			<path class="st0" d="M10.4,6.1C10.2,6.3,10,6.4,9.8,6.4c0,0-0.1,0-0.1,0c-0.3,0-0.5-0.2-0.6-0.5L8.3,4c-0.1-0.4,0-0.8,0.4-1
				c0.4-0.2,0.8,0,1,0.4l0.8,1.9C10.6,5.6,10.5,5.9,10.4,6.1z"/>
		</g>
		<g>
			<path class="st0" d="M17,4l-0.8,1.8c-0.1,0.2-0.2,0.3-0.4,0.4c-0.1,0-0.2,0.1-0.3,0.1c-0.1,0-0.2,0-0.3-0.1
				c-0.2-0.1-0.3-0.2-0.4-0.4c-0.1-0.2-0.1-0.4,0-0.6l0.8-1.8c0.2-0.4,0.6-0.5,1-0.4C16.9,3.2,17.1,3.7,17,4z"/>
		</g>
		<g>
			<path class="st0" d="M17.1,16.3h-9c-0.4,0-0.8,0.3-0.8,0.8v3c0,0.4,0.3,0.8,0.8,0.8h9c0.4,0,0.8-0.3,0.8-0.8v-3
				C17.9,16.6,17.5,16.3,17.1,16.3z M16.4,17.8l0,1.5H8.9v-1.5H16.4z"/>
		</g>
	</g>
</g>
</svg>
