<svg xmlns="http://www.w3.org/2000/svg" viewBox="2599 5405 42 45"><g transform="translate(2598.993 5404.945)"><path class="a" d="M582.311,212.8h14.62a.722.722,0,0,0,.185-.029l-2.276,3.8a.731.731,0,0,0,1.253.751l2.924-4.88a.734.734,0,0,0,0-.751l-2.924-4.88a.731.731,0,0,0-1.253.752l2.276,3.8a.728.728,0,0,0-.185-.029h-14.62a.732.732,0,0,0,0,1.464Z" transform="translate(-574.753 -206.43)"/><path class="a" d="M569.592,231.163a.723.723,0,0,0,.185.029H584.4a.732.732,0,0,0,0-1.464h-14.62a.724.724,0,0,0-.185.029l2.276-3.8a.731.731,0,0,0-1.253-.752l-2.924,4.88a.732.732,0,0,0,0,.752l2.924,4.88a.731.731,0,0,0,1.253-.751Z" transform="translate(-567.58 -215.851)"/><path class="a" d="M623.481,241.158l-10.332-6.315,1.379-5.163a3.168,3.168,0,1,0-6.121-1.64L605,240.831a1.462,1.462,0,0,1-1.623,1.083l-1.028-2.128a3.409,3.409,0,0,0-4.547-1.6l-.448.215a3.418,3.418,0,0,0-1.594,4.553l5.4,11.258-.672,2.518a.732.732,0,1,0,1.413.381l.746-2.782a.731.731,0,0,0-.049-.488l-5.521-11.5a1.953,1.953,0,0,1,.911-2.6l.448-.215a1.948,1.948,0,0,1,2.6.913l1.184,2.44a.732.732,0,0,0,.487.39l.132.034a2.924,2.924,0,0,0,3.587-2.093l3.411-12.79a1.706,1.706,0,0,1,3.294.883l-3,11.224a.732.732,0,1,0,1.413.381l1.228-4.587,2.349,1.435a.728.728,0,0,0-.127.259l-1.257,4.709a.732.732,0,0,0,.517.9.717.717,0,0,0,.19.024.731.731,0,0,0,.707-.542l1.228-4.587,2.359,1.464a.726.726,0,0,0-.146.278l-1.252,4.69a.732.732,0,1,0,1.413.381l1.228-4.587,2.3,1.406-3.046,11.375-4.206,3.733a.732.732,0,0,0-.219.356l-.746,2.781a.732.732,0,1,0,1.413.381l.687-2.567,4.206-3.733a.731.731,0,0,0,.219-.356L623.827,242A.733.733,0,0,0,623.481,241.158Z" transform="translate(-581.849 -216.262)"/></g></svg>