<svg xmlns="http://www.w3.org/2000/svg" viewBox="978 708 26 40"><g transform="translate(392 5)"><path class="a" d="M144.555,213.97a8.229,8.229,0,0,1,8.44,7.978v2.48a.768.768,0,0,0,1.534,0v-2.5a9.99,9.99,0,0,0-19.949,0v3.1a.768.768,0,0,0,1.534,0v-3.1A8.23,8.23,0,0,1,144.555,213.97Z" transform="translate(451.42 490.5)"/><path class="a" d="M161.907,238.046l-12.184-3.384v-5.3a3.33,3.33,0,0,0-6.65,0v10.772h-.082a4.483,4.483,0,0,0-4.573,4.323v6.74a.69.69,0,0,0,0,.077v.135l.031.068.036.058.046.063v.034l4.215,4.632v2.582a.768.768,0,0,0,1.535,0v-2.853a.7.7,0,0,0-.184-.484l-4.215-4.632v-6.392a2.959,2.959,0,0,1,3.038-2.872H143v3.592a.768.768,0,0,0,1.535,0V229.363a1.793,1.793,0,0,1,3.581,0v11.512a.769.769,0,0,0,1.535,0v-4.7l2.711.754v5.144a.768.768,0,0,0,1.535,0v-4.7l2.711.754v5.13a.768.768,0,0,0,1.534,0v-4.7l2.711.754v11.667l-3.182,4.642a.7.7,0,0,0-.128.4v2.853a.769.769,0,0,0,1.535,0v-2.635l3.248-4.651a.7.7,0,0,0,.128-.4V238.747A.731.731,0,0,0,161.907,238.046Z" transform="translate(449.545 483.414)"/></g></svg>