<svg xmlns="http://www.w3.org/2000/svg" viewBox="2630 196 18 11">
  <defs>
    <style>
      .cls-1 {
        fill: #c4c4c4;
      }
    </style>
  </defs>
  <g id="gruppieren-23" transform="translate(2630 196)">
    <path id="pfad" class="cls-1" d="M415.82,492.73a1.477,1.477,0,1,0,1.53,1.476A1.5,1.5,0,0,0,415.82,492.73Zm0,1.911" transform="translate(-400.97 -484.683)"/>
    <path id="pfad-2" data-name="pfad" class="cls-1" d="M373.215,319.74H370.57a.354.354,0,0,0-.36.347v6.774a.354.354,0,0,0,.36.347h.382a.355.355,0,0,0,.359-.295,2.087,2.087,0,0,1,4.1,0,.355.355,0,0,0,.359.295h.382a.354.354,0,0,0,.36-.347v-3.387a.338.338,0,0,0-.084-.223l-2.936-3.387a.366.366,0,0,0-.276-.125Zm-2.284,2.779v-1.738a.354.354,0,0,1,.36-.347h1.586a.365.365,0,0,1,.277.125l1.5,1.738a.337.337,0,0,1,.049.37.361.361,0,0,1-.326.2h-3.085a.354.354,0,0,1-.36-.347Zm0,0" transform="translate(-358.511 -317.83)"/>
    <path id="pfad-3" data-name="pfad" class="cls-1" d="M52.36,275.269h.922a.355.355,0,0,0,.359-.294,2.087,2.087,0,0,1,4.1,0,.355.355,0,0,0,.359.294h4.522a.354.354,0,0,0,.36-.347v-8.684a.354.354,0,0,0-.36-.347H52.36a.354.354,0,0,0-.36.347v8.684A.354.354,0,0,0,52.36,275.269Zm0,0" transform="translate(-52 -265.89)"/>
    <path id="pfad-4" data-name="pfad" class="cls-1" d="M112.29,492.73a1.477,1.477,0,1,0,1.531,1.477,1.5,1.5,0,0,0-1.531-1.477Zm0,1.911" transform="translate(-108.6 -484.683)"/>
  </g>
</svg>
