<?xml version="1.0" encoding="utf-8"?>
<!-- Generator: Adobe Illustrator 19.0.0, SVG Export Plug-In . SVG Version: 6.00 Build 0)  -->
<svg version="1.1" id="Layer_1" xmlns="http://www.w3.org/2000/svg" xmlns:xlink="http://www.w3.org/1999/xlink" x="0px" y="0px"
	 viewBox="-467 272.5 24.5 17.5" style="enable-background:new -467 272.5 24.5 17.5;" xml:space="preserve">
<style type="text/css">
	.st0{fill:#E6E6E6;stroke:#E6E6E6;stroke-width:0.5;}
</style>
<path id="pfad-25" class="st0" d="M-447,276.2c-0.1-0.1-0.2-0.2-0.4-0.1h-3v-2.3c0-0.6-0.4-1-1-1h-14.4c-0.6,0-1,0.4-1,1V286
	c0,0.6,0.4,1,1,1h1.8v0.1c0.2,1.7,1.8,2.9,3.6,2.7c1.4-0.2,2.5-1.3,2.7-2.7V287h7.6v0.1c0.2,1.7,1.8,2.9,3.6,2.7
	c1.4-0.2,2.5-1.3,2.7-2.7V287h0.1c0.6,0,1-0.4,1-1v-5.3c0-0.1,0-0.3-0.1-0.4L-447,276.2z M-460.8,288.8c-1.2,0-2.2-1-2.2-2.2
	c0-1.2,1-2.2,2.2-2.2c1.2,0,2.2,1,2.2,2.2C-458.6,287.8-459.6,288.8-460.8,288.8L-460.8,288.8z M-451.3,286h-6.4v0
	c-0.3-1.7-1.9-2.9-3.6-2.6c-1.4,0.2-2.4,1.3-2.6,2.6h-1.8v-12.2h14.4L-451.3,286z M-450.3,277h2.8l3.2,3.3h-6L-450.3,277z
	 M-445.3,288.1c-0.4,0.4-1,0.7-1.6,0.7c-1.2,0-2.2-1-2.2-2.2c0-1.2,1-2.2,2.2-2.2c1.2,0,2.2,1,2.2,2.2
	C-444.7,287.1-444.9,287.7-445.3,288.1L-445.3,288.1z M-443.6,286.2l-0.1-0.6c-0.4-1.7-2.2-2.7-3.9-2.3c-1.2,0.3-2.1,1.3-2.3,2.6
	v0.1h-0.3v-4.6h6.6L-443.6,286.2z"/>
</svg>
