<svg xmlns="http://www.w3.org/2000/svg" viewBox="5626 1028 60 53"><defs><style>.a{fill:#222;}</style></defs><path class="a" d="M233.024,275.894a4.824,4.824,0,0,0-8.339,0L199.5,319.308a4.792,4.792,0,0,0,4.17,7.188h50.364a4.792,4.792,0,0,0,4.177-7.188Zm-4.112,41.059a2.917,2.917,0,1,1,0-5.833,2.917,2.917,0,0,1,0,5.833Zm2.661-18.829c-.129,2.252-.27,4.5-.4,6.755-.07.729-.07,1.4-.07,2.123a2.193,2.193,0,0,1-2.2,2.123,2.144,2.144,0,0,1-2.2-2.053c-.2-3.512-.4-6.953-.6-10.465-.07-.922-.129-1.855-.2-2.771a3.173,3.173,0,0,1,2.262-3.185,2.941,2.941,0,0,1,3.387,1.645,3.589,3.589,0,0,1,.27,1.458c-.063,1.452-.192,2.911-.262,4.369Z" transform="translate(5427.143 754.504)"/></svg>