<svg xmlns="http://www.w3.org/2000/svg" viewBox="58 979 140 69.683">
  <defs>
    <style>
      .cls-1 {
        fill: #fff;
      }
    </style>
  </defs>
  <g id="gruppe-374" transform="translate(58.005 979)">
    <path id="pfad" class="cls-1" d="M543.645,390.586c-.054-3.133.06-6.081-.151-9.015-.1-1.424-.88-1.686-2.042-1.8-.259-.026-.481,0-.476-.376,0-.322.048-.476.433-.473,1.729.02,3.455,0,5.184,0,.268,0,.473,0,.467.376s-.131.439-.47.473c-1.074.108-1.424.419-1.575,1.475a19.963,19.963,0,0,0-.214,3.016q0,5.183-.017,10.368c0,.242.236.652-.191.726a1,1,0,0,1-1.091-.285c-1.894-2.3-3.823-4.58-5.74-6.865q-2.2-2.629-4.415-5.255c-.063-.074-.105-.2-.3-.177V388.6a34.521,34.521,0,0,0,.125,3.7c.165,1.424.484,1.8,1.945,1.974.339.04.516.077.51.487,0,.481-.319.339-.55.339h-5.05c-.211,0-.5.134-.51-.3,0-.356.085-.47.461-.535,1.316-.231,1.632-.672,1.746-2.042.285-3.318.114-6.64.131-9.969a2.243,2.243,0,0,0-2.171-2.489c-.4-.054-.55-.151-.518-.57.037-.481.387-.285.6-.285,1.054-.02,2.111,0,3.165-.017a1.046,1.046,0,0,1,.909.419q4.62,5.346,9.269,10.667C543.249,390.139,543.383,390.278,543.645,390.586Z" transform="translate(-451.304 -378.534)"/>
    <path id="pfad-2" data-name="pfad" class="cls-1" d="M415.885,386.673h3.031c.231,0,.516-.083.521.322,0,.285-.02.5-.373.592-1.034.285-1.068.313-1.117,1.35a34.3,34.3,0,0,0,.085,4.506c.02.248,0,.37-.236.43-3.071.743-6.147,1.273-9.266.285a7.9,7.9,0,0,1-5.751-7.574,8.153,8.153,0,0,1,5.412-8,14.285,14.285,0,0,1,8.389-.345c.262.057.518.142.783.182a.336.336,0,0,1,.325.35c.1,1.139.194,2.279.3,3.418.031.319-.077.416-.393.461s-.476.057-.538-.285c-.769-4.15-6.041-4.335-8.38-2.413a7.089,7.089,0,0,0-2.524,5.007,9.288,9.288,0,0,0,1.359,6.041,5.844,5.844,0,0,0,6.155,2.626c.983-.171,1.35-.658,1.37-1.686.02-.966,0-1.931,0-2.894-.02-.874-.242-1.139-1.108-1.327a8.438,8.438,0,0,0-1.139-.165c-.348-.029-.487-.145-.481-.53,0-.47.3-.35.541-.353Q414.371,386.672,415.885,386.673Z" transform="translate(-360.914 -377.755)"/>
    <path id="pfad-3" data-name="pfad" class="cls-1" d="M349.747,395.255h-5.654c-.222,0-.6.228-.63-.316-.029-.464.2-.47.547-.51,1.629-.188,1.9-.5,1.9-2.131V381.8c0-1.441-.234-1.709-1.678-1.874-.356-.04-.367-.194-.385-.467-.026-.365.162-.385.447-.385h10.773c.319,0,.413.088.424.41.031.963.083,1.928.168,2.888.031.348-.125.422-.393.479s-.413,0-.524-.308c-.815-2.279-1.111-2.475-3.56-2.484H349.5c-.43,0-.692.182-.7.627,0,1.794,0,3.592-.017,5.386,0,.236.105.31.325.308.943-.017,1.889.026,2.826-.054.994-.083,1.3-.367,1.487-1.424.085-.47.322-.433.641-.441.424,0,.313.285.313.513v3.973c0,.285,0,.49-.379.467-.285-.017-.481,0-.57-.382-.285-1.248-.47-1.424-1.752-1.513-.826-.066-1.661-.026-2.489-.046-.285,0-.422.068-.413.373.046,1.726-.1,3.455.094,5.178a1.159,1.159,0,0,0,1.179,1.139,13.526,13.526,0,0,0,3.224,0,2.421,2.421,0,0,0,1.775-1.085,7.341,7.341,0,0,0,.88-1.649c.148-.439.424-.376.738-.31.4.083.239.333.185.57-.228,1.025-.479,2.045-.652,3.079-.077.453-.285.507-.667.5C353.607,395.246,351.676,395.255,349.747,395.255Z" transform="translate(-318.496 -378.677)"/>
    <path id="pfad-4" data-name="pfad" class="cls-1" d="M478.58,395.212h-5.791c-.268,0-.518.06-.51-.382,0-.37.142-.45.467-.447a3.276,3.276,0,0,0,.6-.1c1.065-.188,1.362-.518,1.379-1.621.02-1.168,0-2.333,0-3.5v-7.406c0-1.444-.245-1.732-1.663-1.888-.339-.037-.387-.16-.4-.453-.014-.345.131-.4.433-.4h10.773c.3,0,.43.051.439.4q.04,1.444.168,2.888c.029.333-.094.439-.376.487s-.413.037-.533-.285c-.854-2.327-1.108-2.492-3.62-2.5h-1.683a.57.57,0,0,0-.641.61c0,1.794,0,3.592-.02,5.386,0,.225.077.325.31.322.966-.02,1.928-.017,2.894-.054a1.391,1.391,0,0,0,1.424-1.4c.054-.461.285-.456.627-.459.479,0,.325.339.328.57v3.905c0,.262.017.507-.365.481-.265-.017-.49.037-.57-.365-.285-1.285-.479-1.424-1.806-1.535-.8-.06-1.615-.017-2.421-.043-.325,0-.436.108-.427.427.048,1.681-.091,3.367.088,5.045a1.2,1.2,0,0,0,1.239,1.236,14.19,14.19,0,0,0,3.091,0,2.458,2.458,0,0,0,1.846-1.085,6.834,6.834,0,0,0,.855-1.587c.14-.419.385-.479.76-.39.45.105.234.387.182.627-.216,1-.461,1.994-.635,3.014-.074.433-.251.524-.655.518C482.44,395.2,480.508,395.212,478.58,395.212Z" transform="translate(-410.621 -378.634)"/>
    <path id="pfad-5" data-name="pfad" class="cls-1" d="M683.184,377.69a11.321,11.321,0,0,1,2.931.487.527.527,0,0,1,.45.55c.085.914.194,1.826.35,2.732.06.345-.065.419-.342.493s-.464.088-.57-.254a5.623,5.623,0,0,0-.835-1.743,2.988,2.988,0,0,0-2.253-1.3,2.564,2.564,0,0,0-2.581,1.45,2.638,2.638,0,0,0,.672,3.133,11.877,11.877,0,0,0,2.689,1.632,9.925,9.925,0,0,1,2.72,1.826,4.481,4.481,0,0,1-1.4,7.2,8.05,8.05,0,0,1-6.822,0,.6.6,0,0,1-.422-.467c-.242-1.117-.413-2.242-.57-3.375-.054-.407.154-.467.444-.57.41-.162.393.165.464.365a6.314,6.314,0,0,0,2.327,3.276,3.173,3.173,0,0,0,2.757.419,2.307,2.307,0,0,0,1.678-1.837,2.9,2.9,0,0,0-.886-2.934,10.084,10.084,0,0,0-2.076-1.35,12.136,12.136,0,0,1-2.957-1.954,4.364,4.364,0,0,1,1.171-7.092A7.1,7.1,0,0,1,683.184,377.69Z" transform="translate(-557.172 -377.69)"/>
    <path id="pfad-6" data-name="pfad" class="cls-1" d="M291.449,386.945v-5.386c0-1.3-.285-1.6-1.581-1.769-.336-.046-.647,0-.6-.524.048-.584.45-.328.686-.33,1.994-.02,3.988-.014,5.982,0,.262,0,.592-.128.6.382,0,.427-.208.436-.527.473-1.4.165-1.641.385-1.663,1.906-.048,3.028-.028,6.059-.031,9.089a15.251,15.251,0,0,0,.068,2.085c.1.743.4,1.082,1.139,1.168a11.247,11.247,0,0,0,2.754,0,2.653,2.653,0,0,0,2.068-1.629c.191-.379.365-.763.538-1.139.12-.265.168-.5.61-.379s.365.379.308.649c-.222,1.071-.459,2.139-.689,3.21-.066.308-.234.4-.57.4H289.492c-.228,0-.5.091-.493-.33,0-.319.046-.507.43-.493a3.5,3.5,0,0,0,.729-.114c.906-.162,1.245-.518,1.253-1.444.02-1.931,0-3.86,0-5.791Z" transform="translate(-279.546 -378.542)"/>
    <path id="pfad-7" data-name="pfad" class="cls-1" d="M619.975,384.957a7.091,7.091,0,0,0-5.945-5.7,31.835,31.835,0,0,0-5.762-.285h-4.515c-.225,0-.5-.1-.5.325,0,.33.028.49.444.538,1.35.154,1.6.447,1.6,1.8q.017,5.318,0,10.636c0,1.578-.265,1.871-1.817,2.054-.345.04-.5.085-.5.487,0,.481.308.345.541.345,2.2,0,4.4.023,6.6,0a14.054,14.054,0,0,0,3.649-.521A8.24,8.24,0,0,0,619.975,384.957Zm-4.557,6.836a5.849,5.849,0,0,1-5.891,2.225,1.452,1.452,0,0,1-1.268-1.512c-.188-1.948-.026-3.9-.074-5.224,0-2.356-.026-4.082,0-5.808.026-1.256.319-1.49,1.575-1.544a6.459,6.459,0,0,1,5.637,2.222,6.642,6.642,0,0,1,1.424,4.039,8.411,8.411,0,0,1-1.407,5.626Z" transform="translate(-504.1 -378.603)"/>
    <path id="pfad-8" data-name="pfad" class="cls-1" d="M519,571.725a3.755,3.755,0,0,0,1.569-.986,53.168,53.168,0,0,0,4.048-4.324,3.193,3.193,0,0,0,.236-.325c.39-.6.308-.812-.37-.98a1.874,1.874,0,0,0-.527-.1c-.37.02-.367-.194-.379-.467s.094-.387.385-.387h5.657c.285,0,.407.094.382.39-.02.222.034.442-.316.461a6.515,6.515,0,0,0-4.287,2.279c-1.045,1.051-2.1,2.094-3.165,3.133-.268.259-.259.416-.04.706,1.709,2.3,3.549,4.512,5.412,6.7a4.374,4.374,0,0,0,2.5,1.709c.385.068.265.342.285.57.029.328-.208.285-.4.285h-3.84a.675.675,0,0,1-.592-.342q-2.629-3.364-5.267-6.722a3.113,3.113,0,0,0-.205-.265c-.259-.285-.541-.667-.943-.5-.319.134-.12.57-.125.855-.02,1.37-.017,2.737,0,4.107.014,1.487.285,1.809,1.738,2.02.322.046.53.065.524.487,0,.473-.313.345-.553.347h-6.061c-.2,0-.524.171-.524-.285,0-.319,0-.493.43-.555,1.359-.194,1.612-.507,1.615-1.894q.017-5.355,0-10.707c0-1.441-.259-1.732-1.669-1.888-.365-.04-.493-.122-.49-.507,0-.467.31-.35.553-.35h5.982c.228,0,.5-.088.5.33,0,.345-.057.484-.456.535-1.285.16-1.572.487-1.592,1.777C518.979,568.424,519,570.042,519,571.725Z" transform="translate(-440.472 -511.046)"/>
    <path id="pfad-9" data-name="pfad" class="cls-1" d="M622.543,567.755c.1,3.358-.122,6.526.162,9.685.128,1.444.47,1.82,1.917,1.994.387.046.57.111.524.541-.037.5-.39.285-.6.285-1.661.02-3.321.017-4.982,0-.2,0-.521.165-.527-.285,0-.328.029-.487.439-.57,1.33-.222,1.652-.667,1.766-2.022.285-3.318.114-6.64.131-9.969a2.247,2.247,0,0,0-2.219-2.512c-.393-.051-.476-.18-.47-.536,0-.43.285-.313.516-.316h3.3a.983.983,0,0,1,.854.4q4.646,5.369,9.314,10.716c.114.131.234.256.35.385.051-.04.111-.065.111-.091.014-2.917.128-5.833-.137-8.745-.12-1.31-.57-1.709-1.937-1.817-.353-.028-.584-.028-.57-.5.02-.533.382-.339.618-.339,1.638-.014,3.276,0,4.916,0,.242,0,.547-.114.553.35,0,.4-.165.459-.518.493-1.008.1-1.364.433-1.524,1.456a19.628,19.628,0,0,0-.216,3.016q0,5.217-.017,10.437c0,.228.194.615-.174.672s-.763.145-1.1-.262c-1.39-1.709-2.82-3.373-4.233-5.056l-5.919-7.047C622.811,568.043,622.74,567.972,622.543,567.755Z" transform="translate(-515.328 -510.953)"/>
    <path id="pfad-10" data-name="pfad" class="cls-1" d="M701.859,571.809h3.1c.256,0,.49-.029.493.359,0,.316-.063.53-.413.57-.826.063-1.074.57-1.091,1.322a43.956,43.956,0,0,0,.088,4.506c.023.271.02.413-.262.479-2.959.686-5.916,1.228-8.944.339a7.9,7.9,0,0,1-6.039-7.551,8.139,8.139,0,0,1,5.446-8.107,14.214,14.214,0,0,1,8.389-.325c1.034.231,1.025.239,1.117,1.293.074.872.159,1.74.265,2.609.043.353-.085.444-.422.5s-.456-.031-.513-.313c-.832-4.1-5.9-4.273-8.238-2.481a6.9,6.9,0,0,0-2.669,5.127,9.429,9.429,0,0,0,1.342,5.982,5.982,5.982,0,0,0,6.144,2.672,1.51,1.51,0,0,0,1.4-1.669c.023-1,0-1.974,0-2.962-.02-.835-.251-1.1-1.074-1.287a7.852,7.852,0,0,0-1.193-.177c-.387-.026-.45-.214-.447-.57,0-.427.285-.316.5-.319C699.84,571.806,700.851,571.809,701.859,571.809Z" transform="translate(-565.453 -510.164)"/>
    <path id="pfad-11" data-name="pfad" class="cls-1" d="M382.948,564.126h3.1c.231,0,.5-.083.5.333,0,.356-.077.481-.464.527-1.39.157-1.686.5-1.692,1.891,0,2.333-.034,4.669.02,7a6.109,6.109,0,0,0,1.236,3.825,4.01,4.01,0,0,0,3.939,1.344,3.816,3.816,0,0,0,3.17-2.82,8.911,8.911,0,0,0,.516-2.962,55.355,55.355,0,0,0-.105-6.187c-.171-1.55-.493-1.911-2.065-2.091-.393-.046-.541-.12-.518-.541.026-.484.356-.313.57-.316h5.127c.242,0,.544-.117.538.353,0,.376-.117.456-.479.513-1.236.188-1.578.621-1.709,1.837a54.312,54.312,0,0,0-.131,5.446,14.488,14.488,0,0,1-.538,4.247,5.881,5.881,0,0,1-6.184,4.156,6.5,6.5,0,0,1-4.136-1.327,5.951,5.951,0,0,1-2.048-4.711c-.08-2.2-.037-4.4-.048-6.6,0-.382,0-.763-.02-1.139-.105-1.53-.234-1.695-1.757-1.911-.41-.057-.37-.253-.387-.53-.02-.348.182-.336.424-.336C380.838,564.129,381.895,564.126,382.948,564.126Z" transform="translate(-344.18 -511.007)"/>
    <path id="pfad-12" data-name="pfad" class="cls-1" d="M451,571.128a8.06,8.06,0,0,0,1.709,5.509c2.655,3.216,6.979,2.757,9.158-.934a2.856,2.856,0,0,0,.285-.53c.122-.37.345-.259.57-.148s.464.12.333.5c-.373,1.1-.726,2.2-1.188,3.27a.618.618,0,0,1-.461.424,14.922,14.922,0,0,1-8.474-.063,8.092,8.092,0,0,1-5.238-8.83,8.574,8.574,0,0,1,7.1-7.169,15.985,15.985,0,0,1,6.987.285.444.444,0,0,1,.4.433c.14,1.111.319,2.216.49,3.321.037.239,0,.419-.285.39-.216-.023-.527.319-.641-.168a4.371,4.371,0,0,0-.285-.818,5.175,5.175,0,0,0-7.642-1.755,6.927,6.927,0,0,0-2.811,5.2,8.839,8.839,0,0,0-.009,1.077Z" transform="translate(-392.978 -510.138)"/>
    <path id="pfad-13" data-name="pfad" class="cls-1" d="M264.587,569.97v5.321c0,.424.063.854.085,1.273a1.216,1.216,0,0,0,1.08,1.185,4.232,4.232,0,0,0,.929.137c.339,0,.447.1.459.456,0,.453-.259.373-.518.373h-6.8c-.259,0-.53.077-.518-.373,0-.367.137-.453.467-.453a3.985,3.985,0,0,0,.795-.122,1.2,1.2,0,0,0,1.088-1.1,9.369,9.369,0,0,0,.077-.937q0-5.828.017-11.653c0-.479-.122-.618-.6-.587-.692.048-1.387.043-2.082.1a1.954,1.954,0,0,0-1.812,1.356,7.47,7.47,0,0,0-.456,1.325c-.091.513-.427.45-.749.413-.41-.048-.211-.379-.2-.57.068-1.231.154-2.461.245-3.7,0-.185-.08-.444.185-.518a.521.521,0,0,1,.6.191,1.384,1.384,0,0,0,1.219.433h10.038a1.692,1.692,0,0,0,1.35-.481.553.553,0,0,1,.621-.134c.219.074.108.31.111.47.031,1.256.12,2.509.245,3.76.02.2.134.476-.259.461-.271,0-.533.125-.667-.325-.752-2.564-1.054-2.766-3.72-2.771-1.233,0-1.233,0-1.233,1.216Z" transform="translate(-255.8 -509.399)"/>
    <path id="pfad-14" data-name="pfad" class="cls-1" d="M585.259,564.17h3.165c.3,0,.447.057.436.4,0,.285-.037.473-.393.456a4.11,4.11,0,0,0-.6.1,1.146,1.146,0,0,0-1.111,1.2c-.122,1.325-.063,2.646-.066,3.971,0,2.492-.023,4.985.04,7.474.034,1.356.268,1.567,1.607,1.755.39.054.55.137.518.555-.037.49-.387.285-.6.285-2.019.017-4.042,0-6.061,0-.225,0-.55.154-.553-.33,0-.39.14-.456.493-.5,1.424-.188,1.678-.476,1.683-1.891q.017-5.389,0-10.775c0-1.379-.285-1.675-1.661-1.826-.328-.037-.516-.048-.516-.473,0-.51.319-.382.57-.385C583.236,564.168,584.248,564.17,585.259,564.17Z" transform="translate(-488.839 -511.051)"/>
    <path id="pfad-15" data-name="pfad" class="cls-1" d="M334.328,579.6a4.036,4.036,0,0,1-1.552-1.253,42.877,42.877,0,0,1-3.381-5.082c-.476-.806-.473-.809.336-1.259a4.13,4.13,0,0,0,2.242-4.657,4.044,4.044,0,0,0-3.589-3.133,34.383,34.383,0,0,0-4.364-.145h-4.045c-.219,0-.57-.177-.57.308-.02.4.1.507.507.57,1.3.157,1.561.464,1.564,1.777q.017,5.355,0,10.71c0,1.493-.259,1.8-1.743,1.994-.422.057-.43.228-.433.55,0,.453.325.285.524.285q3.065.017,6.13,0c.2,0,.5.165.53-.285.02-.4-.1-.5-.5-.57-1.379-.194-1.652-.533-1.669-1.937-.014-1.256,0-2.515,0-3.771,0-.333.066-.45.433-.464a2.173,2.173,0,0,1,2.159,1.185c.647,1.139,1.319,2.279,1.994,3.418a4.567,4.567,0,0,0,3.617,2.47c.535.051,1.074.077,1.6.154.285.043.45,0,.533-.319S334.6,579.717,334.328,579.6Zm-6.608-7.921a4.9,4.9,0,0,1-3.224.641c-.285,0-.2-.248-.2-.4v-2.962h0v-2.828c0-.826.225-1.042,1.02-1.091a3.093,3.093,0,0,1,3.418,1.9A4.253,4.253,0,0,1,327.72,571.679Z" transform="translate(-301.216 -510.96)"/>
    <path id="pfad-16" data-name="pfad" class="cls-1" d="M481,484.353c-2.962,0-6.38,5.515-5.463,5.9s3.256-2.242,4.352-3.911a1.555,1.555,0,0,1-.179-.8,1.586,1.586,0,0,1,.752-.669.507.507,0,0,1,.376.162,1.419,1.419,0,0,0,1.359.835,5.316,5.316,0,0,0,1.88-.721,2.953,2.953,0,0,1-1.538,1.031,3.221,3.221,0,0,1-.966.148,1.425,1.425,0,0,1-.49-.066c-.441,2.176-3.828,4.532-5.563,4.432a1.316,1.316,0,0,1-1.242-1.293c0-2.666,3.583-5.332,6.167-5.332a1.424,1.424,0,0,1,1,.285c.083.048.031.048-.034.048A3.451,3.451,0,0,0,481,484.353Z" transform="translate(-412.052 -453.767)"/>
    <path id="pfad-17" data-name="pfad" class="cls-1" d="M494.292,464.883a1.379,1.379,0,0,1,.607-.328c.931-.048,1.587.9,1.276.721-.57-.262-1.635,1.276-2.324,2.159a73.936,73.936,0,0,0-4.221,6.15l.017.034a18.483,18.483,0,0,0,4.367-2.279c.017-.034.031-.048.065-.048a.088.088,0,0,1,.083.083v.031a20.244,20.244,0,0,1-3.435,2.208,6.269,6.269,0,0,1-1.114.49,5.562,5.562,0,0,1,.228,1.635,5.81,5.81,0,0,1-.083.931c-.9,4.663-4.99,7.9-5.7,7.936h-.048c-.328.017-.721-.541-.735-.818-.048-.917,1.849-5.2,4.515-9.719-.441-.359.2-1.228.687-1.228,1.555-2.487,3.207-4.859,4.466-6.477A10.759,10.759,0,0,1,494.292,464.883Zm-9.767,18.683c1.931-1.438,4.432-4.008,4.99-7.443a2.991,2.991,0,0,0,.048-.57,2.644,2.644,0,0,0-.31-1.407,79.961,79.961,0,0,0-4.859,9.277c-.066.131-.066.214-.031.214S484.428,483.631,484.525,483.566Z" transform="translate(-418.486 -439.811)"/>
    <rect id="rechteck" class="cls-1" width="48.574" height="0.855" rx="0.427" transform="translate(87.283 34.346)"/>
    <rect id="rechteck-2" data-name="rechteck" class="cls-1" width="48.574" height="0.855" rx="0.427" transform="translate(4.135 34.346)"/>
  </g>
</svg>
