<svg xmlns="http://www.w3.org/2000/svg" viewBox="6720 1041 60 40"><defs><style>.a{fill:#222;}</style></defs><path class="a" d="M247.862,57.2c0-.926.221-2.166-.284-3l-2.055-3.367a1.492,1.492,0,0,0-.233-.292,1.314,1.314,0,0,0-.988-.4h-5.417a1.423,1.423,0,0,0-1.419,1.4v2.127h-2.759V51.525a1.423,1.423,0,0,0-1.419-1.4h-.255l-2.714-.219-1.771-2.436c-.613-.842-1.55-2.806-2.788-2.806h-7.006V41.743h7.035a1.423,1.423,0,0,0,1.419-1.4V37.113a1.423,1.423,0,0,0-1.419-1.4H203.961a1.423,1.423,0,0,0-1.419,1.4v3.249a1.423,1.423,0,0,0,1.419,1.4h8.517v2.9h-8.517a1.423,1.423,0,0,0-1.419,1.4v2.245h-4.292a1.423,1.423,0,0,0-1.419,1.4V53.64h-2.924V49.712a1.423,1.423,0,0,0-1.419-1.4h-3.157a1.423,1.423,0,0,0-1.419,1.4v18.94a1.423,1.423,0,0,0,1.419,1.4H192.5a1.423,1.423,0,0,0,1.42-1.4V59.87h2.924v8.783a1.423,1.423,0,0,0,1.419,1.4h7.069l1.7,2.357c.568.808,1.533,2.772,2.612,3.064,1.823.494,4.3.05,6.16.05h17.453a1.423,1.423,0,0,0,1.42-1.4V68.2h2.7l.062.056V70.33a1.423,1.423,0,0,0,1.419,1.4h3.657c1,0,2.4.269,3.009-.735l2.033-3.367c.505-.836.284-2.071.284-3Z" transform="translate(6532.09 1005.29)"/></svg>