<?xml version="1.0" encoding="utf-8"?>
<!-- Generator: Adobe Illustrator 19.1.0, SVG Export Plug-In . SVG Version: 6.00 Build 0)  -->
<svg version="1.2" baseProfile="tiny" xmlns="http://www.w3.org/2000/svg" xmlns:xlink="http://www.w3.org/1999/xlink" x="0px"
	 y="0px" viewBox="166 179 944 436" xml:space="preserve">
<g id="Layer_2">
	
		<image width="1888" height="872" xlink:href="C:\Users\Kirillos\Creative Cloud Files\daimler\map\worldmap.png"  transform="matrix(0.5001 0 0 0.5001 165.8945 179)">
	</image>
</g>
<g id="Layer_1">
	<g id="freig">
		<circle fill="#FFFFFF" cx="297.6" cy="247.8" r="33"/>
		<path fill="#222222" d="M297.6,214.8c-18.2,0-33,14.8-33,33c0,6.5,1.9,12.6,5.2,17.8c0.1,0.2,0.2,0.5,0.4,0.7
			c7.3,11.5,16.1,22.1,26.1,31.3c0.7,0.6,1.8,0.6,2.5,0c10-9.2,18.8-19.7,26.1-31.2c0.1-0.1,0.1-0.2,0.2-0.4
			c3.5-5.2,5.5-11.5,5.5-18.2C330.6,229.6,315.8,214.8,297.6,214.8L297.6,214.8z M297.6,278.8c-14.4,0-26.5-9.8-30-23.1
			c-0.7-2.5-1-5.2-1-7.9c0-17.1,13.9-31,31-31s31,13.9,31,31c0,2.8-0.4,5.6-1.1,8.2C323.8,269.1,311.8,278.8,297.6,278.8
			L297.6,278.8z"/>
		
			<image width="1185" height="239" xlink:href="FC90010E.png"  transform="matrix(4.200000e-002 0 0 4.200000e-002 272.6537 242.767)">
		</image>
	</g>
	<circle fill="#FFFFFF" cx="407.6" cy="282" r="33"/>
	<path fill="#222222" d="M407.6,249c-18.2,0-33,14.8-33,33c0,6.5,1.9,12.6,5.2,17.8c0.1,0.2,0.2,0.5,0.4,0.7
		c7.3,11.5,16.1,22.1,26.1,31.3c0.7,0.6,1.8,0.6,2.5,0c10-9.2,18.8-19.7,26.1-31.2c0.1-0.1,0.1-0.2,0.2-0.4
		c3.5-5.2,5.5-11.5,5.5-18.2C440.6,263.8,425.8,249,407.6,249L407.6,249z M407.6,313c-14.4,0-26.5-9.8-30-23.1c-0.7-2.5-1-5.2-1-7.9
		c0-17.1,13.9-31,31-31s31,13.9,31,31c0,2.8-0.4,5.6-1.1,8.2C433.8,303.3,421.8,313,407.6,313z"/>
	<image width="417" height="185" xlink:href="FC90010A.png"  transform="matrix(0.1 0 0 0.1 386.9897 272.512)">
	</image>
	<g id="mitsubishi-1">
		<circle fill="#FFFFFF" cx="904.4" cy="411.4" r="33"/>
		<path fill="#222222" d="M904.4,378.4c-18.2,0-33,14.8-33,33c0,6.5,1.9,12.6,5.2,17.8c0.1,0.2,0.2,0.5,0.4,0.7
			c7.3,11.5,16.1,22.1,26.1,31.3c0.7,0.6,1.8,0.6,2.5,0c10-9.2,18.8-19.7,26.1-31.2c0.1-0.1,0.1-0.2,0.2-0.4
			c3.5-5.2,5.5-11.5,5.5-18.2C937.4,393.2,922.6,378.4,904.4,378.4L904.4,378.4z M904.4,442.4c-14.4,0-26.5-9.8-30-23.1
			c-0.7-2.5-1-5.2-1-7.9c0-17.1,13.9-31,31-31s31,13.9,31,31c0,2.8-0.4,5.6-1.1,8.2C930.7,432.7,918.6,442.4,904.4,442.4z"/>
		<path id="pfad-11-3_1_" fill="#EE283F" d="M909.2,420.6l-9.3-16l4.7-8l4.7,8l-9.3,16h-9.3l4.7-8H914l4.7,8H909.2L909.2,420.6z"/>
	</g>
	<g id="mitsubishi-2">
		<circle fill="#FFFFFF" cx="979.4" cy="277.6" r="33"/>
		<path fill="#222222" d="M979.4,244.6c-18.2,0-33,14.8-33,33c0,6.5,1.9,12.6,5.2,17.8c0.1,0.2,0.2,0.5,0.4,0.7
			c7.3,11.5,16.1,22.1,26.1,31.3c0.7,0.6,1.8,0.6,2.5,0c10-9.2,18.8-19.7,26.1-31.2c0.1-0.1,0.1-0.2,0.2-0.4
			c3.5-5.2,5.5-11.5,5.5-18.2C1012.4,259.4,997.6,244.6,979.4,244.6L979.4,244.6z M979.4,308.6c-14.4,0-26.5-9.8-30-23.1
			c-0.7-2.5-1-5.2-1-7.9c0-17.1,13.9-31,31-31s31,13.9,31,31c0,2.8-0.4,5.6-1.1,8.2C1005.7,298.9,993.6,308.6,979.4,308.6z"/>
		<path id="pfad-11-3_2_" fill="#EE283F" d="M984.2,286.8l-9.3-16l4.7-8l4.7,8l-9.3,16h-9.3l4.7-8H989l4.7,8H984.2L984.2,286.8z"/>
	</g>
	<a id="mercedes-1" xlink:href="#" >
		<circle fill="#FFFFFF" cx="489.9" cy="455.8" r="33"/>
		<path fill="#222222" d="M489.9,422.8c-18.2,0-33,14.8-33,33c0,6.5,1.9,12.6,5.2,17.8c0.1,0.2,0.2,0.5,0.4,0.7
			c7.3,11.5,16.1,22.1,26.1,31.3c0.7,0.6,1.8,0.6,2.5,0c10-9.2,18.8-19.7,26.1-31.2c0.1-0.1,0.1-0.2,0.2-0.4
			c3.5-5.2,5.5-11.5,5.5-18.2C522.9,437.6,508.1,422.8,489.9,422.8L489.9,422.8z M489.9,486.8c-14.4,0-26.5-9.8-30-23.1
			c-0.7-2.5-1-5.2-1-7.9c0-17.1,13.9-31,31-31s31,13.9,31,31c0,2.8-0.4,5.6-1.1,8.2C516.2,477.2,504.1,486.8,489.9,486.8z"/>
		<image width="417" height="417" xlink:href="FC900109.png"  transform="matrix(7.700000e-002 0 0 7.700000e-002 473.4077 439.1)">
		</image>
	</a>
	<g id="mercedes-2">
		<circle fill="#FFFFFF" cx="641.3" cy="237.5" r="33"/>
		<path fill="#222222" d="M641.3,204.5c-18.2,0-33,14.8-33,33c0,6.5,1.9,12.6,5.2,17.8c0.1,0.2,0.2,0.5,0.4,0.7
			c7.3,11.5,16.1,22.1,26.1,31.3c0.7,0.6,1.8,0.6,2.5,0c10-9.2,18.8-19.7,26.1-31.2c0.1-0.1,0.1-0.2,0.2-0.4
			c3.5-5.2,5.5-11.5,5.5-18.2C674.3,219.3,659.5,204.5,641.3,204.5L641.3,204.5z M641.3,268.5c-14.4,0-26.5-9.8-30-23.1
			c-0.7-2.5-1-5.2-1-7.9c0-17.1,13.9-31,31-31s31,13.9,31,31c0,2.8-0.4,5.6-1.1,8.2C667.6,258.9,655.5,268.5,641.3,268.5z"/>
		<image width="417" height="417" xlink:href="FC900116.png"  transform="matrix(7.700000e-002 0 0 7.700000e-002 625.2997 222.1)">
		</image>
	</g>
	<g>
		<g id="sng">
			<circle fill="#FFFFFF" cx="821.6" cy="356.1" r="33"/>
			<path fill="#222222" d="M821.6,323.1c-18.2,0-33,14.8-33,33c0,6.5,1.9,12.6,5.2,17.8c0.1,0.2,0.2,0.5,0.4,0.7
				c7.3,11.5,16.1,22.1,26.1,31.3c0.7,0.6,1.8,0.6,2.5,0c10-9.2,18.8-19.7,26.1-31.2c0.1-0.1,0.1-0.2,0.2-0.4
				c3.5-5.2,5.5-11.5,5.5-18.2C854.6,337.9,839.8,323.1,821.6,323.1L821.6,323.1z M821.6,387.1c-14.4,0-26.5-9.8-30-23.1
				c-0.7-2.5-1-5.2-1-7.9c0-17.1,13.9-31,31-31s31,13.9,31,31c0,2.8-0.4,5.6-1.1,8.2C847.8,377.4,835.8,387.1,821.6,387.1z"/>
		</g>
		<image width="300" height="250" xlink:href="FC900116.jpg"  transform="matrix(0.148 0 0 0.148 799.4218 337.618)">
		</image>
	</g>
</g>
</svg>
