<?xml version="1.0" standalone="no"?>
<!DOCTYPE svg PUBLIC "-//W3C//DTD SVG 1.1//EN" "http://www.w3.org/Graphics/SVG/1.1/DTD/svg11.dtd" >
<svg xmlns="http://www.w3.org/2000/svg">
<metadata>Generated by IcoMoon</metadata>
<defs>
<font id="daimler-font" horiz-adv-x="1024">
<font-face units-per-em="1024" ascent="960" descent="-64" />
<missing-glyph horiz-adv-x="1024" />
<glyph unicode="&#x20;" horiz-adv-x="512" d="" />
<glyph unicode="&#xe900;" glyph-name="photo-360" horiz-adv-x="1766" d="M1636.634 960h-1505.986c-33.545 0-65.324-12.359-90.041-37.076-22.952-22.952-37.076-56.497-37.076-90.041v-771.531c0-33.545 14.124-65.324 37.076-90.041 22.952-22.952 56.497-37.076 90.041-37.076h459.034c37.076-1.766 70.621 21.186 84.745 54.731l102.4 256c19.421 40.607 60.028 65.324 104.166 65.324s84.745-28.248 102.4-68.855l88.276-248.938c14.124-35.31 47.669-58.262 84.745-58.262h474.924c33.545 0 65.324 12.359 90.041 37.076 22.952 22.952 37.076 56.497 37.076 90.041v768c3.531 33.545-8.828 67.090-31.779 91.807-22.952 26.483-56.497 38.841-90.041 38.841zM508.469 225.545c-107.697 0-194.207 86.51-194.207 194.207v0c1.766 107.697 88.276 194.207 194.207 194.207 107.697-1.766 194.207-88.276 194.207-194.207 0-107.697-86.51-194.207-194.207-194.207v0zM1260.579 225.545c-107.697 0-194.207 86.51-194.207 194.207v0c1.766 107.697 88.276 194.207 194.207 194.207 107.697-1.766 194.207-88.276 194.207-194.207 0-107.697-86.51-194.207-194.207-194.207v0z" />
<glyph unicode="&#xe901;" glyph-name="arrow-left" horiz-adv-x="1489" d="M487.517 944.733c9.647 9.388 22.838 15.178 37.381 15.178 14.402 0 27.477-5.678 37.11-14.917 9.601-9.259 15.576-22.26 15.576-36.656 0-14.259-5.861-27.15-15.306-36.394l-380.239-372.372h1254.028c0.196 0.003 0.428 0.004 0.66 0.004 14.319 0 27.315-5.661 36.872-14.868 9.582-9.241 15.551-22.205 15.576-36.564-0.34-28.793-23.756-51.999-52.593-51.999-0.198 0-0.395 0.001-0.592 0.003h-1253.718l380.23-371.572c9.416-9.382 15.243-22.361 15.243-36.701s-5.827-27.319-15.241-36.7c-9.631-9.521-22.876-15.401-37.494-15.401s-27.863 5.88-37.497 15.404l-472.338 462.284c-9.382 9.284-15.192 22.163-15.192 36.399s5.81 27.114 15.187 36.394z" />
<glyph unicode="&#xe902;" glyph-name="arrow-right" horiz-adv-x="1489" d="M1001.984 944.733c-9.672 9.448-22.915 15.277-37.52 15.277-14.464 0-27.592-5.717-37.249-15.014-9.603-9.26-15.577-22.261-15.577-36.657 0-14.259 5.861-27.15 15.306-36.394l380.239-372.372h-1254.028c-0.207 0.003-0.452 0.005-0.697 0.005-14.307 0-27.291-5.662-36.835-14.868-9.604-9.232-15.591-22.198-15.623-36.563 0.34-28.794 23.756-52 52.593-52 0.198 0 0.395 0.001 0.592 0.003h1253.998l-380.23-371.572c-9.428-9.377-15.262-22.357-15.262-36.701s5.835-27.325 15.26-36.699c9.64-9.524 22.892-15.406 37.518-15.406s27.878 5.882 37.521 15.408l472.291 462.284c9.382 9.284 15.192 22.163 15.192 36.399s-5.81 27.114-15.187 36.394z" />
<glyph unicode="&#xe903;" glyph-name="calendar" horiz-adv-x="1124" d="M790.641 163.328c-25.842-22.177-59.692-35.677-96.696-35.677-2.769 0-5.519 0.076-8.251 0.225-1.764-0.091-4.283-0.133-6.813-0.133-29.87 0-58.367 5.881-84.395 16.549l1.485 69.479c22.969-14.654 50.971-23.356 81.005-23.356 0.072 0 0.145 0 0.217 0 1.507-0.108 3.278-0.169 5.063-0.169 17.382 0 33.403 5.828 46.216 15.636 11.006 9.511 18.046 23.702 18.046 39.537 0 0.661-0.012 1.319-0.037 1.974 0.003 36.754-26.113 55-77.937 55-22.066-0.35-43.387-2.029-64.306-4.964l2.721 208.016h205.812v-66.747h-135.334v-74.669c4.58 0.257 9.939 0.403 15.332 0.403s10.752-0.146 16.074-0.436c1.468 0.169 4.051 0.247 6.652 0.247 31.413 0 60.17-11.368 82.383-30.214 19.748-18.993 32.131-45.868 32.131-75.635 0-1.746-0.043-3.482-0.127-5.207 0.106-1.54 0.161-3.627 0.161-5.726 0-34.623-14.969-65.75-38.789-87.263zM527.384 134.401h-233.359v64.396h77.020v230.548l-78.86-17.275v67.258l160.581 32.198v-313.19h76.662v-64.396zM1075.364 960.051h-105.027v-140.036c-1.502-76.18-63.611-137.361-140.010-137.361s-138.509 61.18-140.008 137.221l-0.002 140.176h-258.555v-140.036c0-77.34-62.696-140.036-140.036-140.036s-140.036 62.696-140.036 140.036v140.036h-105.18c0 0 0 0 0 0-25.77 0-46.662-20.891-46.662-46.662v-930.677c0-25.77 20.891-46.662 46.662-46.662 0 0 0 0 0 0h1031.053c0 0 0 0 0 0 25.77 0 46.662 20.891 46.662 46.662v930.677c0 25.77-20.891 46.662-46.662 46.662 0 0 0 0 0 0z" />
<glyph unicode="&#xe904;" glyph-name="canceled" d="M512 960c-282.77 0-512-229.23-512-512s229.23-512 512-512c282.77 0 512 229.23 512 512s-229.23 512-512 512zM768 263.68l-71.68-71.68-184.32 184.32-184.32-184.32-71.68 71.68 184.32 184.32-184.32 184.32 71.68 71.68 184.32-184.32 184.32 184.32 71.68-71.68-184.32-184.32z" />
<glyph unicode="&#xe905;" glyph-name="clear" horiz-adv-x="755" d="M62.68-41.095c0.061-12.574 10.268-22.744 22.851-22.744 0.038 0 0.076 0 0.114 0h583.243c0.032 0 0.070 0 0.108 0 12.583 0 22.79 10.17 22.851 22.738v736.747h-629.167zM506.557 570.395h86.232v-495.832h-86.232zM334.093 570.395h86.232v-495.832h-86.232zM161.63 570.395h86.232v-495.832h-86.232zM570.961 855.444v81.812c-0.061 12.574-10.268 22.744-22.851 22.744-0.038 0-0.076 0-0.114 0h-341.363c-0.032 0-0.070 0-0.108 0-12.583 0-22.79-10.17-22.851-22.738v-110.274h-160.606c-0.032 0-0.070 0-0.108 0-12.583 0-22.79-10.17-22.851-22.738v-57.673c0.061-12.574 10.268-22.744 22.851-22.744 0.038 0 0.076 0 0.114 0h708.548c0.016 0 0.035 0 0.054 0 12.583 0 22.79 10.17 22.851 22.738v57.673c-0.061 12.574-10.268 22.744-22.851 22.744-0.038 0-0.076 0-0.114 0h-160.6zM484.729 831.677h-214.986v43.116h214.986z" />
<glyph unicode="&#xe906;" glyph-name="clock" horiz-adv-x="1007" d="M974.522 617.798c-5.956 15.428-20.667 26.174-37.888 26.174-22.373 0-40.51-18.137-40.51-40.51 0-5.152 0.962-10.080 2.716-14.613 17.264-44.188 27.323-95.665 27.323-149.491 0-233.491-189.282-422.772-422.772-422.772s-422.772 189.282-422.772 422.772c0 233.491 189.282 422.772 422.772 422.772 55.164 0 107.86-10.565 156.176-29.783l-31.575-47.452c-7.866-13.312-1.815-22.202 13.452-19.735l136.145 21.83c11.324 1.426 19.995 10.996 19.995 22.592 0 3.028-0.591 5.917-1.664 8.56l-46.072 130.175c-5.167 14.569-15.919 15.593-23.738 2.281l-27.695-46.545c-57.489 24.768-124.414 39.171-194.704 39.171-278.066 0-503.482-225.417-503.482-503.482s225.417-503.482 503.482-503.482c278.066 0 503.482 225.417 503.482 503.482 0 64.076-11.97 125.356-33.795 181.726zM488.541 725.085c-22.123-0.026-40.049-17.953-40.076-40.073v-274.621c0.014-4.829 2.759-9.014 6.772-11.092l251.136-129.802c5.272-2.851 11.526-4.563 18.171-4.654h0.028c0.068 0 0.149-0.001 0.23-0.001 22.133 0 40.076 17.942 40.076 40.076 0 15.416-8.705 28.8-21.467 35.503l-214.701 110.976v233.425c0 0.041 0 0.091 0 0.14 0 22.159-17.963 40.122-40.122 40.122-0.016 0-0.033 0-0.049 0z" />
<glyph unicode="&#xe907;" glyph-name="close" d="M1024.009 899.766l-60.234 60.234c33.267-33.267 33.267-87.202 0-120.469l-843.281-843.281c-33.267-33.267-87.202-33.267-120.469 0l60.234-60.234c-33.267 33.267-33.267 87.202 0 120.469l843.281 843.281c33.267 33.267 87.202 33.267 120.469 0zM60.234 960.009l-60.234-60.234c33.267 33.267 87.202 33.267 120.469 0l843.281-843.281c33.267-33.267 33.267-87.202 0-120.469l60.234 60.234c-33.267-33.267-87.202-33.267-120.469 0l-843.281 843.281c-33.267 33.267-33.267 87.202 0 120.469z" />
<glyph unicode="&#xe908;" glyph-name="download" horiz-adv-x="862" d="M862.316 598.582h-246.407v361.418h-369.556v-361.418h-246.353l431.158-421.672zM0 56.455v-120.455h862.316v120.455z" />
<glyph unicode="&#xe909;" glyph-name="gruppieren-29" horiz-adv-x="1365" d="M545.906 946.062l-248.775-189.099h-229.035c-37.799-0.449-68.268-31.196-68.268-69.059 0-0.162 0.001-0.323 0.002-0.484v-481.938c0.030-37.84 30.487-68.557 68.224-69.006h227.598l250.311-186.482c11.22-8.7 25.498-13.946 41.001-13.946 11.111 0 21.593 2.695 30.827 7.467 22.126 11.532 37.23 34.672 37.23 61.341 0 0.173-0.001 0.345-0.002 0.518v885.335c0.001 0.146 0.002 0.319 0.002 0.491 0 26.668-15.103 49.809-37.223 61.336-9.25 4.788-19.744 7.489-30.868 7.489-15.513 0-29.799-5.253-41.177-14.078zM931.328 772.722c-12.385 15.257-31.138 24.928-52.151 24.928-5.434 0-10.717-0.647-15.777-1.868-24.675-6.207-44.008-25.824-49.799-50.645-1.209-5.116-1.851-10.459-1.851-15.953 0-21.119 9.479-40.024 24.416-52.693 58.205-59.258 94.072-140.44 94.072-229.999s-35.867-170.741-94.020-229.966c-11.923-12.444-19.294-29.429-19.294-48.135s7.371-35.692 19.366-48.21c11.956-12.33 28.708-19.998 47.251-19.998s35.295 7.668 47.258 20.006c83.108 83.816 134.454 199.207 134.454 326.59 0 127.127-51.139 242.311-133.969 326.1zM1169.18 924.956c-11.917 12.486-28.689 20.25-47.275 20.25s-35.358-7.763-47.25-20.224c-11.996-12.519-19.367-29.504-19.367-48.21s7.371-35.692 19.366-48.21c96.889-98.667 156.712-234.064 156.712-383.435s-59.823-284.768-156.816-383.542c-11.738-12.387-19.005-29.273-19.005-47.856 0-9.374 1.849-18.317 5.203-26.482 9.93-24.249 33.425-41.518 61.053-42.37 0.161-0.003 0.228-0.003 0.296-0.003 18.389 0 35.036 7.457 47.083 19.513 121.272 123.609 196.124 293.135 196.124 480.143s-74.852 356.533-196.229 480.25z" />
<glyph unicode="&#xe90a;" glyph-name="gruppieren-54" d="M264.107 696.491c23.564 0 42.667 19.103 42.667 42.667v178.347c0 23.564-19.103 42.667-42.667 42.667s-42.667-19.103-42.667-42.667v-178.517c0.097-23.491 19.162-42.496 42.666-42.496 0 0 0 0 0 0zM755.712 696.491c23.564 0 42.667 19.103 42.667 42.667v178.347c0 23.564-19.103 42.667-42.667 42.667s-42.667-19.103-42.667-42.667v-178.517c0.097-23.491 19.162-42.496 42.666-42.496 0 0 0 0 0 0zM720.043 143.019c-23.542-20.219-54.388-32.529-88.11-32.529-2.505 0-4.995 0.068-7.467 0.202-1.629-0.084-3.947-0.123-6.275-0.123-27.157 0-53.068 5.337-76.74 15.019l1.354 62.913c20.912-13.332 46.402-21.248 73.741-21.248 0.085 0 0.171 0 0.256 0 1.301-0.089 2.836-0.14 4.383-0.14 15.838 0 30.435 5.314 42.106 14.256 10.014 8.662 16.419 21.58 16.419 35.994 0 0.593-0.011 1.184-0.032 1.772 0.002 33.536-23.806 50.091-70.995 50.091-20.126-0.327-39.563-1.867-58.633-4.553l2.484 189.897h187.733v-60.757h-123.307v-68.267c4.193 0.236 9.1 0.371 14.037 0.371s9.844-0.135 14.715-0.401c1.315 0.152 3.646 0.221 5.992 0.221 28.629 0 54.837-10.367 75.075-27.551 18.004-17.302 29.294-41.79 29.294-68.916 0-1.584-0.039-3.159-0.115-4.724 0.107-1.495 0.163-3.502 0.163-5.522 0-31.539-13.622-59.896-35.304-79.508zM480.341 116.651h-212.565v58.624h70.144v210.005l-71.851-15.701v61.184l146.261 29.355v-285.184h69.717v-58.624zM979.371 868.608h-95.659v-127.488c0-70.433-57.097-127.531-127.531-127.531s-127.531 57.097-127.531 127.531v127.488h-235.264v-127.488c0-70.433-57.097-127.531-127.531-127.531s-127.531 57.097-127.531 127.531v127.488h-95.659c-23.564 0-42.667-19.103-42.667-42.667v-847.616c0-23.564 19.103-42.667 42.667-42.667h938.667c23.564 0 42.667 19.103 42.667 42.667v847.787c0 23.564-19.103 42.667-42.667 42.667z" />
<glyph unicode="&#xe90b;" glyph-name="gruppieren-73" horiz-adv-x="896" d="M895.147 675.755c-0.033 11.376-4.513 21.699-11.792 29.329l-223.131 241.306c-7.695 8.386-18.705 13.624-30.939 13.624-0.373 0-0.745-0.005-1.116-0.015l-557.855 0.001c-38.883-0.433-70.245-32.020-70.315-70.948v-882.097c0.070-38.935 31.432-70.521 70.274-70.954h755.241c38.883 0.433 70.245 32.020 70.315 70.948zM271.147 253.355h-34.517v-46.933c0.124-0.702 0.195-1.511 0.195-2.336 0-3.865-1.557-7.366-4.079-9.911-2.507-2.54-5.989-4.113-9.839-4.113-0.804 0-1.593 0.069-2.36 0.201l-18.435-0.012c-0.685-0.12-1.473-0.189-2.277-0.189-3.85 0-7.332 1.574-9.838 4.113-2.522 2.545-4.079 6.046-4.079 9.911 0 0.825 0.071 1.633 0.207 2.42l-0.012 170.113c-0.122 0.698-0.192 1.501-0.192 2.321 0 3.869 1.556 7.375 4.076 9.926 2.507 2.539 5.989 4.113 9.839 4.113 0.804 0 1.593-0.069 2.36-0.201l67.715 0.012c0.413 0.010 0.899 0.015 1.386 0.015 18.364 0 34.913-7.771 46.538-20.203 10.866-11.609 17.519-27.211 17.519-44.367 0-1.817-0.075-3.617-0.221-5.396 0.205-1.609 0.313-3.748 0.313-5.912 0-16.602-6.355-31.72-16.766-43.053-11.408-12.34-27.738-20.069-45.874-20.069-0.538 0-1.074 0.007-1.608 0.020zM450.347 191.744h-55.979c-0.685-0.12-1.473-0.189-2.277-0.189-3.85 0-7.332 1.574-9.838 4.113-2.52 2.551-4.076 6.057-4.076 9.926 0 0.82 0.070 1.623 0.204 2.405l-0.012 169.9c-0.122 0.698-0.192 1.501-0.192 2.321 0 3.869 1.556 7.375 4.076 9.926 2.507 2.539 5.989 4.113 9.839 4.113 0.804 0 1.593-0.069 2.36-0.201l55.385 0.012c1.909 0.13 4.137 0.205 6.383 0.205 36.116 0 67.74-19.234 85.186-48.018 9.34-15.349 14.722-33.379 14.722-52.667s-5.382-37.319-14.726-52.673c-17.443-28.778-49.066-48.012-85.182-48.012-2.246 0-4.474 0.074-6.683 0.221zM706.773 349.611h-58.539v-42.667h45.056c0.685 0.12 1.473 0.189 2.277 0.189 3.85 0 7.332-1.574 9.838-4.113 2.52-2.551 4.076-6.057 4.076-9.926 0-0.82-0.070-1.623-0.204-2.405l0.012-10.54c0.122-0.698 0.192-1.501 0.192-2.321 0-3.869-1.556-7.375-4.076-9.926-2.507-2.539-5.989-4.113-9.839-4.113-0.804 0-1.593 0.069-2.36 0.201l-44.974-0.012v-59.051c0.122-0.698 0.192-1.501 0.192-2.321 0-3.869-1.556-7.375-4.076-9.926-2.507-2.539-5.989-4.113-9.839-4.113-0.804 0-1.593 0.069-2.36 0.201l-18.435-0.012c-0.685-0.12-1.473-0.189-2.277-0.189-3.85 0-7.332 1.574-9.838 4.113-2.522 2.545-4.079 6.046-4.079 9.911 0 0.825 0.071 1.633 0.207 2.42l-0.012 170.327c-0.124 0.702-0.195 1.511-0.195 2.336 0 3.865 1.557 7.366 4.079 9.911 2.507 2.54 5.989 4.113 9.839 4.113 0.804 0 1.593-0.069 2.36-0.201l91.694 0.012c0.685 0.12 1.473 0.189 2.277 0.189 3.85 0 7.332-1.574 9.838-4.113 2.52-2.551 4.076-6.057 4.076-9.926 0-0.82-0.070-1.623-0.204-2.405l0.012-10.54c0.007-0.167 0.011-0.362 0.011-0.559 0-3.964-1.638-7.545-4.274-10.104-2.479-2.363-5.838-3.816-9.536-3.816-0.444 0-0.884 0.021-1.317 0.062zM833.28 662.187h-146.091c-38.883 0.433-70.245 32.020-70.315 70.948v158.471c0.239 1.814 1.494 3.284 3.167 3.831 0.456 0.151 0.943 0.232 1.449 0.232 1.347 0 2.559-0.578 3.402-1.5l210.521-223.918c3.797-2.56 2.517-7.637-1.28-7.637zM259.797 350.293h-25.259v-54.827h25.259c0.324-0.015 0.703-0.024 1.085-0.024 7.163 0 13.603 3.097 18.053 8.024 3.954 4.391 6.362 10.205 6.362 16.581 0 1.217-0.088 2.414-0.257 3.584 0.19 0.936 0.289 2.169 0.289 3.426 0 12.89-10.449 23.339-23.339 23.339-0.772 0-1.536-0.038-2.289-0.111zM447.573 350.293h-19.371v-116.48h19.797c1.019-0.072 2.208-0.113 3.407-0.113 14.911 0 28.333 6.374 37.691 16.546 8.536 9.283 13.748 21.673 13.748 35.28 0 2.619-0.193 5.193-0.566 7.708 0.309 1.706 0.465 4.007 0.465 6.344 0 13.701-5.381 26.145-14.146 35.333-9.155 9.608-22.075 15.596-36.394 15.596-1.631 0-3.244-0.078-4.835-0.23z" />
<glyph unicode="&#xe90c;" glyph-name="gruppieren-220" d="M1024.009 899.766l-60.234 60.234c33.267-33.267 33.267-87.202 0-120.469l-843.281-843.281c-33.267-33.267-87.202-33.267-120.469 0l60.234-60.234c-33.267 33.267-33.267 87.202 0 120.469l843.281 843.281c33.267 33.267 87.202 33.267 120.469 0zM60.234 960.009l-60.234-60.234c33.267 33.267 87.202 33.267 120.469 0l843.281-843.281c33.267-33.267 33.267-87.202 0-120.469l60.234 60.234c-33.267-33.267-87.202-33.267-120.469 0l-843.281 843.281c-33.267 33.267-33.267 87.202 0 120.469z" />
<glyph unicode="&#xe90d;" glyph-name="gruppieren-255" d="M971.989 556.757l-71.723 11.989c-8.406 26.875-18.204 49.912-29.946 71.748l43.429 56.977c7.399 10.179 11.837 22.928 11.837 36.712 0 17.44-7.103 33.221-18.575 44.607l-63.791 63.62c-11.404 11.532-27.224 18.677-44.712 18.688-0.071 0-0.153 0-0.235 0-13.659 0-26.291-4.399-36.555-11.858l-59.298-42.158c-20.492 11.192-44.417 21.331-69.385 29.103l-14.924 71.548c-5.19 30.115-31.112 52.736-62.319 52.736-0.066 0-0.132 0-0.198 0h-90.528c-0.056 0-0.122 0-0.188 0-31.206 0-57.129-22.621-62.265-52.36l-12.47-72.909c-26.819-8.5-49.834-18.452-71.606-30.389l-56.778 43.317c-10.205 7.345-22.957 11.746-36.736 11.746-17.498 0-33.339-7.098-44.799-18.573l-64.001-63.489c-11.437-11.416-18.513-27.199-18.513-44.634 0-13.768 4.412-26.505 11.899-36.874l42.539-59.804c-10.639-19.772-20.305-42.898-27.72-67.011l-71.779-14.739c-30.068-5.189-52.651-31.073-52.651-62.232 0-0.081 0-0.163 0-0.244v-89.929c0-0.020 0-0.044 0-0.068 0-31.235 22.694-57.17 52.492-62.216l73.118-12.425c8.531-26.751 18.508-49.706 30.47-71.415l-43.185-56.457c-7.367-10.165-11.784-22.886-11.784-36.638 0-17.477 7.134-33.288 18.648-44.679l63.792-63.621c11.416-11.437 27.199-18.513 44.634-18.513 13.768 0 26.505 4.412 36.874 11.899l59.932 42.539c19.064-10.182 41.455-19.591 64.756-26.951l14.86-72.505c5.19-30.115 31.112-52.736 62.319-52.736 0.066 0 0.132 0 0.198 0h90.315c0.067 0 0.145 0 0.224 0 31.198 0 57.112 22.624 62.229 52.361l12.256 72.098c26.941 8.372 50.039 18.143 71.936 29.864l57.088-43.347c10.215-7.367 22.985-11.782 36.786-11.782 17.474 0 33.294 7.078 44.751 18.524l63.786 63.616c11.482 11.423 18.588 27.236 18.588 44.708 0 13.735-4.391 26.445-11.846 36.802l-42.24 59.162c10.717 19.695 20.516 42.734 28.112 66.753l72.667 14.783c30.17 5.098 52.864 31.033 52.864 62.268 0 0.024 0 0.048 0 0.072v89.852c0.003 0.235 0.005 0.512 0.005 0.79 0 30.934-22.532 56.605-52.080 61.496zM967.083 404.651c0-0.020 0-0.043 0-0.066 0-2.762-2.019-5.053-4.662-5.477l-89.93-14.938c-11.33-1.941-20.289-10.299-23.082-21.134-8.914-34.192-21.672-64.011-38.15-91.333-1.675-2.667-3.173-7.739-3.173-13.162 0-6.248 1.99-12.032 5.37-16.752l52.805-74.196c0.608-0.907 0.97-2.024 0.97-3.225 0-1.563-0.613-2.982-1.612-4.031l-63.784-63.614c-1.012-1.059-2.435-1.717-4.012-1.717-1.236 0-2.377 0.404-3.299 1.087l-74.225 52.597c-4.652 3.314-10.451 5.298-16.714 5.298-5.433 0-10.517-1.493-14.864-4.091-25.656-15.491-55.474-28.219-87.075-36.553-13.451-3.279-21.84-12.24-23.703-23.411l-15.212-89.766c-0.428-2.675-2.718-4.694-5.481-4.694-0.023 0-0.046 0-0.069 0h-90.108c-0.020 0-0.043 0-0.066 0-2.762 0-5.053 2.019-5.477 4.662l-14.98 89.632c-1.973 11.295-10.321 20.216-21.134 22.997-33.511 8.856-62.686 21.132-89.615 36.838-2.494 1.487-7.507 2.909-12.851 2.928-0.054 0-0.112 0-0.17 0-6.203 0-11.94-2-16.6-5.39l-74.799-53.106c-0.901-0.614-1.999-1.003-3.184-1.066-0.067-0.002-0.127-0.003-0.187-0.003-1.602 0-3.050 0.654-4.094 1.709l-63.787 63.616c-1.011 1.037-1.634 2.455-1.634 4.019 0 1.207 0.372 2.328 1.007 3.254l52.638 73.623c3.31 4.678 5.291 10.5 5.291 16.785 0 5.451-1.49 10.554-4.085 14.924-15.711 25.539-28.607 55.22-37.061 86.72-3.532 13.305-12.413 21.588-23.482 23.666l-90.721 15.388c-2.675 0.428-4.694 2.718-4.694 5.481 0 0.023 0 0.046 0 0.069v89.852c0 0.020 0 0.043 0 0.066 0 2.762 2.019 5.053 4.662 5.477l89.29 14.938c11.394 1.916 20.422 10.273 23.293 21.132 8.689 34.173 21.241 64.008 37.517 91.369 1.607 2.563 3.068 7.544 3.068 12.866 0 6.281-2.035 12.086-5.481 16.794l-53.235 74.629c-0.622 0.906-0.994 2.027-0.994 3.234 0 1.564 0.623 2.982 1.635 4.020l63.785 63.7c1.012 1.059 2.435 1.717 4.012 1.717 1.236 0 2.377-0.404 3.299-1.087l73.713-52.597c4.697-3.303 10.535-5.278 16.834-5.278 5.462 0 10.576 1.485 14.962 4.073 25.649 15.681 55.462 28.551 87.088 36.976 13.297 3.518 21.571 12.362 23.678 23.394l15.56 90.467c0.428 2.675 2.718 4.694 5.481 4.694 0.023 0 0.046 0 0.069 0h90.108c0.020 0 0.043 0 0.066 0 2.762 0 5.053-2.019 5.477-4.662l14.98-89.034c1.937-11.363 10.289-20.358 21.132-23.208 35.014-8.911 65.588-21.799 93.613-38.515 2.621-1.649 7.705-3.146 13.14-3.146 6.263 0 12.062 1.987 16.801 5.366l73.725 52.889c0.901 0.614 1.999 1.003 3.184 1.066 0.067 0.002 0.127 0.003 0.187 0.003 1.602 0 3.050-0.654 4.094-1.709l63.787-63.616c1.004-1.042 1.622-2.461 1.622-4.024 0-1.204-0.367-2.323-0.995-3.25l-52.851-74.049c-3.321-4.633-5.311-10.417-5.311-16.665 0-5.422 1.498-10.494 4.104-14.825 15.547-25.659 28.305-55.477 36.642-87.091 3.288-13.46 12.287-21.858 23.495-23.69l90.063-15.169c2.675-0.428 4.694-2.718 4.694-5.481 0-0.023 0-0.046 0-0.069v-89.852zM512.299 670.123c-121.541-0.316-219.947-98.916-219.947-220.501 0-121.78 98.722-220.501 220.501-220.501s220.501 98.721 220.501 220.501c-0.17 121.816-98.96 220.502-220.8 220.502-0.090 0-0.18 0-0.27 0zM512.299 286.72c-89.732 0.218-162.389 73.011-162.389 162.773 0 89.897 72.876 162.773 162.773 162.773s162.773-72.876 162.773-162.773c-0.121-89.923-73.046-162.773-162.987-162.773-0.060 0-0.12 0-0.18 0z" />
<glyph unicode="&#xe90e;" glyph-name="gruppieren-287" d="M893.639 565.405c-0.188 11.582-9.621 20.898-21.23 20.898-0.016 0-0.031 0-0.047 0h-720.308c-1.055 0.186-2.27 0.293-3.509 0.293-11.703 0-21.191-9.487-21.191-21.191s9.487-21.191 21.191-21.191c1.239 0 2.454 0.106 3.635 0.311l720.185-0.018c0.012 0 0.027 0 0.042 0 11.712 0 21.209 9.482 21.232 21.188zM393.258 85.755c0.012 0 0.027 0 0.042 0 11.712 0 21.209 9.482 21.232 21.188v320.535c-0.16 11.627-9.622 20.991-21.272 20.991-5.815 0-11.086-2.333-14.926-6.115l-80.078-79.786c-2.789-3.559-4.473-8.101-4.473-13.036 0-11.726 9.506-21.232 21.232-21.232 4.956 0 9.516 1.698 13.128 4.544l45.22 45.063v-268.246c-0.114-0.825-0.179-1.778-0.179-2.746 0-11.31 8.861-20.551 20.020-21.159zM672.413 404.95c11.703 0 21.191 9.487 21.191 21.191s-9.487 21.191-21.191 21.191h-160.162c-0.012 0-0.027 0-0.042 0-11.712 0-21.209-9.482-21.232-21.188v-159.579c0.024-11.708 9.521-21.191 21.232-21.191 0.015 0 0.029 0 0.044 0h80.079c0.052 0 0.113 0 0.175 0 15.295 0 29.229-5.827 39.703-15.381l-0.046 0.042c10.718-10.61 17.354-25.325 17.354-41.59 0-32.317-26.198-58.514-58.514-58.514-0.224 0-0.447 0.001-0.67 0.004h-80.047c-1.055 0.186-2.27 0.293-3.509 0.293-11.703 0-21.191-9.487-21.191-21.191s9.487-21.191 21.191-21.191c1.239 0 2.454 0.106 3.635 0.311l79.955-0.018c0.087 0 0.19 0 0.292 0 55.4 0 100.31 44.91 100.31 100.31 0 26.193-10.039 50.041-26.479 67.906l0.065-0.071c-18.241 18.381-43.514 29.759-71.446 29.759-0.009 0-0.018 0-0.026 0h-58.805v117.029zM992.277 626.301c-0.113 0.002-0.245 0.003-0.378 0.003-11.542 0-20.898-9.356-20.898-20.898 0-0.104 0.001-0.208 0.002-0.312v-558.127c-0.376-32.267-26.516-58.305-58.787-58.514h-799.952c-0.125-0.001-0.273-0.002-0.421-0.002-16.158 0-30.786 6.549-41.375 17.138-10.606 10.382-17.181 24.844-17.181 40.843 0 0.218 0.001 0.435 0.004 0.652v557.901c0 11.749-9.525 21.274-21.274 21.274s-21.274-9.525-21.274-21.274v-558.143c0.379-55.596 45.536-100.519 101.186-100.519 0.060 0 0.119 0 0.179 0h800.383c55.525 0.164 100.517 45.025 100.895 100.483v558.179c-0.024 11.708-9.521 21.191-21.232 21.191-0.015 0-0.029 0-0.044 0zM341.682 830.098h381.43v-68.086c0-11.749 9.525-21.274 21.274-21.274s21.274 9.525 21.274 21.274v166.348c0 11.749-9.525 21.274-21.274 21.274s-21.274-9.525-21.274-21.274v-56.341h-381.43c-11.703 0-21.191-9.487-21.191-21.191s9.487-21.191 21.191-21.191zM981.41 842.679v0c-18.056 17.743-42.801 28.73-70.112 28.839h-105.89c-11.703 0-21.191-9.487-21.191-21.191s9.487-21.191 21.191-21.191h105.869c16.285-0.031 31.038-6.566 41.805-17.145 10.601-10.514 17.17-25.098 17.17-41.216 0-0.083 0-0.166-0.001-0.25v-65.356h-916.835v65.411c0 0 0 0 0 0.001 0 32.317 26.198 58.514 58.514 58.514 0.103 0 0.206 0 0.308-0.001h145.225v-68.086c-0.146-0.937-0.23-2.018-0.23-3.119 0-11.749 9.525-21.274 21.274-21.274s21.274 9.525 21.274 21.274c0 1.101-0.084 2.182-0.245 3.237l0.015 166.23c-0.024 11.708-9.521 21.191-21.232 21.191-0.015 0-0.029 0-0.044 0-5.847-0.013-11.129-2.426-14.915-6.307-3.651-3.663-5.906-8.711-5.906-14.286 0-0.21 0.003-0.42 0.010-0.629l-0.001-56.436h-146.578c-0.049 0-0.107 0-0.164 0-27.888 0-53.117-11.38-71.298-29.75l-0.008-0.009c-17.761-17.964-28.788-42.619-28.964-69.849v-86.134c0.024-11.708 9.521-21.191 21.232-21.191 0.015 0 0.029 0 0.044 0h960.552c0.012 0 0.027 0 0.042 0 11.712 0 21.209 9.482 21.232 21.188v86.102c-0.696 28.124-12.906 53.267-32.075 70.992z" />
<glyph unicode="&#xe90f;" glyph-name="gruppieren-288" horiz-adv-x="1023" d="M511.457 508.523c0 0 0 0 0 0 66.898 0 121.129 54.231 121.129 121.129s-54.231 121.129-121.129 121.129c-66.898 0-121.129-54.231-121.129-121.129 0 0 0 0 0 0 0-66.898 54.231-121.129 121.129-121.129zM434.436 629.652c-42.323-0.131-76.583-34.471-76.583-76.812 0-42.422 34.39-76.813 76.813-76.813s76.813 34.39 76.813 76.813c0 42.342-34.259 76.682-76.57 76.812zM508.742 28.852l258.172 372.785c40.266 58.060 64.326 130.012 64.326 207.584 0 94.737-35.886 181.092-94.806 246.214-58.068 58.016-138.667 94.093-227.692 94.093s-169.624-36.077-227.974-94.409c-58.229-64.639-93.848-150.645-93.848-244.97 0-76.842 23.639-148.163 64.042-207.088zM311.928 823.625c50.305 50.39 119.846 81.563 196.668 81.563s146.363-31.173 196.664-81.559c50.81-56.506 81.883-131.638 81.883-214.027 0-68.148-21.259-131.331-57.507-183.278l-221.395-319.824-222.585 321.619c-35.235 50.698-56.292 113.555-56.292 181.329 0 82.628 31.297 157.946 82.684 214.746zM712.573 238.488c-0.895 0.136-1.927 0.213-2.977 0.213-5.037 0-9.658-1.783-13.265-4.753-4.447-3.543-7.463-8.79-8.060-14.75-0.126-0.95-0.193-1.942-0.193-2.951 0-11.312 8.5-20.638 19.462-21.94 180.336-21.187 261.409-77.992 261.409-101.884 0-35.629-156.799-101.874-456.865-101.874s-456.865 66.287-456.865 101.874c0 23.892 78.859 80.697 261.305 101.874 10.807 1.885 18.919 11.196 18.919 22.402 0 12.549-10.173 22.722-22.722 22.722-0.558 0-1.111-0.020-1.658-0.060-180.158-21.172-300.452-79.774-300.452-146.186 0-39.221 45.068-75.184 129.775-101.874 111.558-28.161 239.626-44.321 371.469-44.321s259.911 16.16 382.333 46.608c72.924 24.32 118.912 60.366 118.912 99.587-0.209 65.619-120.92 124.095-300.525 145.313z" />
<glyph unicode="&#xe910;" glyph-name="gruppieren-289" d="M536.576 947.712c-16.384 0-32.768 0-49.152 0-270.336-8.192-483.328-229.376-483.328-499.712s212.992-491.52 483.328-499.712c8.192 0 16.384 0 24.576 0s16.384 0 24.576 0c270.336 12.288 483.328 229.376 483.328 499.712s-212.992 491.52-483.328 499.712zM512 5.632v0c-8.192 0-12.288 0-16.384 0-233.472 12.288-417.792 204.8-417.792 438.272s184.32 430.080 417.792 442.368c8.192 0 16.384 0 24.576 0 4.096 0 8.192 0 12.288 0 180.224-4.096 331.776-114.688 397.312-274.432 4.096-12.288 8.192-20.48 12.288-32.768 0 0 0-4.096 0-4.096 4.096-12.288 8.192-24.576 8.192-36.864 8.192-28.672 8.192-61.44 8.192-94.208s-4.096-61.44-8.192-94.208c-4.096-12.288-4.096-24.576-8.192-36.864 0 0 0-4.096 0-4.096-4.096-12.288-8.192-20.48-12.288-32.768-65.536-155.648-217.088-266.24-397.312-274.432v0c-4.096 0-8.192 0-12.288 0h-8.192zM905.216 292.352c-4.096-12.288-16.384-24.576-28.672-24.576 0 0-4.096 0-4.096 0s-4.096 0-8.192 0l-77.824 32.768c-16.384 8.192-24.576 24.576-16.384 40.96 4.096 16.384 24.576 24.576 40.96 16.384l65.536-28.672 12.288-4.096c12.288-4.096 20.48-16.384 16.384-32.768zM266.24 325.12c0-12.288-8.192-20.48-20.48-24.576l-73.728-32.768c-4.096 0-8.192 0-8.192 0s-4.096 0-4.096 0c-12.288 0-24.576 12.288-28.672 24.576-4.096 16.384 4.096 28.672 16.384 32.768l86.016 36.864v-4.096c8.192 0 12.288 0 20.48-4.096 8.192-8.192 12.288-20.48 12.288-28.672zM786.432 714.24v0c-12.288 12.288-32.768 12.288-45.056 0l-184.32-184.32c-12.288 4.096-24.576 8.192-40.96 8.192-49.152 0-94.208-40.96-94.208-94.208s40.96-94.208 94.208-94.208 94.208 40.96 94.208 94.208c0 12.288-4.096 28.672-8.192 40.96l184.32 188.416c8.192 8.192 8.192 28.672 0 40.96zM516.096 415.232c-16.384 0-32.768 12.288-32.768 32.768s12.288 32.768 32.768 32.768c16.384 0 32.768-12.288 32.768-32.768 0-8.192-4.096-16.384-8.192-20.48-8.192-8.192-16.384-12.288-24.576-12.288zM262.144 550.4c-4.096-12.288-16.384-20.48-28.672-20.48-4.096 0-8.192 0-12.288 0l-73.728 36.864c-12.288 4.096-20.48 12.288-20.48 24.576s4.096 20.48 12.288 28.672c8.192 8.192 20.48 8.192 32.768 4.096l73.728-32.768c16.384-4.096 20.48-24.576 16.384-40.96zM909.312 591.36c0-12.288-8.192-20.48-20.48-24.576l-73.728-32.768c-4.096 0-8.192-4.096-12.288-4.096-12.288 0-24.576 8.192-28.672 20.48 0 4.096-4.096 8.192-4.096 12.288 0 12.288 8.192 24.576 20.48 28.672l73.728 32.768c8.192 4.096 20.48 4.096 32.768-4.096 8.192-8.192 12.288-16.384 12.288-28.672zM425.984 710.144c-8.192-8.192-16.384-12.288-24.576-12.288 0 0-4.096 0-4.096 0-12.288 0-20.48 8.192-24.576 20.48l-32.768 77.824c-4.096 16.384 0 32.768 16.384 40.96s32.768 0 40.96-16.384l32.768-77.824c4.096-12.288 0-24.576-4.096-32.768zM696.32 796.16l-32.768-73.728c-4.096-8.192-8.192-12.288-16.384-16.384-4.096 0-8.192-4.096-12.288-4.096s-8.192 0-12.288 4.096-12.288 8.192-16.384 16.384c-4.096 8.192-4.096 16.384 0 24.576l32.768 73.728c8.192 16.384 24.576 20.48 40.96 16.384 12.288-8.192 20.48-28.672 16.384-40.96zM700.416 292.352h-368.64c-16.384 0-32.768-12.288-32.768-32.768v-122.88c0-16.384 12.288-32.768 32.768-32.768h368.64c16.384 0 32.768 12.288 32.768 32.768v122.88c0 20.48-16.384 32.768-32.768 32.768zM671.744 230.912v-61.44h-307.2v61.44h307.2z" />
<glyph unicode="&#xe911;" glyph-name="gruppieren-290" horiz-adv-x="1224" d="M500.661 184.308c0.075-0.001 0.164-0.001 0.252-0.001 4.045 0 7.861 0.979 11.224 2.713l296.223 145.993c8.212 4.205 13.735 12.609 13.735 22.303s-5.523 18.099-13.594 22.238l-296.501 146.123c-3.541 2.142-7.818 3.409-12.391 3.409-13.38 0-24.226-10.847-24.226-24.226 0-0.145 0.001-0.289 0.004-0.433v-292.093c0.004-8.925 4.69-16.755 11.734-21.168 3.82-2.929 8.466-4.761 13.526-5.053zM525.986 249.644v212.443l215.54-106.246zM1130.496 947.512h-1037.187c-0.164 0.001-0.358 0.002-0.552 0.002-44.123 0-79.931-35.599-80.269-79.642v-839.712c0.339-44.075 36.147-79.674 80.269-79.674 0.194 0 0.388 0.001 0.581 0.002h1037.157c0.164-0.001 0.358-0.002 0.552-0.002 44.123 0 79.931 35.599 80.269 79.642v839.712c-0.339 44.075-36.147 79.674-80.269 79.674-0.194 0-0.388-0.001-0.581-0.002zM1160.467 867.84v-139.863h-139.014l45.805 169.435h62.489c0.16 0.003 0.349 0.005 0.538 0.005 8.218 0 15.675-3.259 21.149-8.554 5.561-5.363 9.023-12.887 9.033-21.219zM1160.467 678.775v-650.615c0-16.552-13.418-29.971-29.971-29.971 0 0 0 0 0 0h-1037.187c0 0 0 0 0 0-16.552 0-29.971 13.418-29.971 29.971 0 0 0 0 0 0v650.065zM154 728.726h-91.611v139.863c0 16.552 13.418 29.971 29.971 29.971 0 0 0 0 0 0h107.745zM207.897 728.726l45.805 169.435h151.952l-45.805-169.435zM412.098 728.726l45.805 169.435h151.402l-45.805-169.435zM615.749 728.726l45.805 169.435h148.705l-45.805-169.435zM819.4 728.726l45.805 169.435h151.802l-45.805-169.435z" />
<glyph unicode="&#xe912;" glyph-name="gruppieren-324" horiz-adv-x="1218" d="M1205.411 667.143c-0.277 13.31-11.133 23.993-24.483 23.993-0.177 0-0.355-0.002-0.531-0.006h-7.97l-147.428-60.47c-2.559 4.463-4.622 9.631-5.918 15.096-0.88 6.922-1.337 14.476-1.337 22.136s0.457 15.214 1.345 22.636l-0.087-0.896c24.39 24.549 39.705 58.141 40.478 95.307-2.738 80.798-68.777 145.137-149.843 145.137-33.957 0-65.277-11.289-90.413-30.319-21.888-17.56-39.069-40.853-49.236-67.602-13.908-41.262-21.723-87.524-21.723-135.612 0-6.297 0.134-12.563 0.399-18.795-0.031 0.788-0.031 0.669-0.031 0.549 0-14.425 4.889-27.707 13.1-38.282 11.773-14.746 29.604-24.451 49.727-25.341l4.641-0.005-2.499-3.998-179.412-267.869h-52.474l-161.921 26.487h-15.492c-18.521-0.361-35.722-5.705-50.409-14.741-13.346-9.026-25.191-19.76-35.329-31.963l-0.221-0.273-299.854-334.337c-3.719-4.070-5.997-9.511-5.997-15.484 0-0.003 0-0.006 0-0.009 0.277-13.31 11.133-23.993 24.483-23.993 0.177 0 0.355 0.002 0.531 0.006h136.907c0.053 0 0.117-0.001 0.18-0.001 5.997 0 11.511 2.071 15.864 5.538l249.826 204.36 189.907-74.464c3.267-1.551 7.098-2.457 11.14-2.457 10.432 0 19.455 6.030 23.774 14.795 1.336 2.949 2.074 6.214 2.074 9.651s-0.738 6.701-2.065 9.644c-2.913 6.070-8.251 10.756-14.759 12.799l-205.573 80.008c-2.745 1.077-5.923 1.701-9.248 1.701-6.168 0-11.834-2.149-16.29-5.738l-252.826-207.86h-73.464l3.998 3.998 261.372 289.359c8.175 9.844 17.372 18.406 27.547 25.688 6.76 4.679 14.592 7.297 23.035 7.297 3.152 0 6.218-0.365 9.159-1.054l164.149-26.434h56.472l143.43-330.838c4.31-8.737 13.155-14.641 23.379-14.641 3.271 0 6.4 0.604 9.283 1.707 5.777 2.586 10.386 7.358 12.757 13.269 1.191 2.823 1.849 5.915 1.849 9.16s-0.658 6.338-1.849 9.15l-49.918 118.288 253.876 378.315c2.3 3.615 3.665 8.020 3.665 12.744s-1.365 9.129-3.723 12.841c-4.579 7.45-12.79 12.408-22.159 12.408-0.272 0-0.542-0.004-0.812-0.012-8.518-0.284-15.976-4.745-20.392-11.399l-235.944-349.923-70.965 162.421 106.448 159.422c139.932 56.972 405.302 165.419 411.299 168.418 4.202 4.316 6.794 10.219 6.794 16.727 0 1.329-0.108 2.632-0.316 3.902zM967.528 636.158c2.127-8.928 5.043-16.757 8.778-24.099l-0.282 0.611-143.93-58.471 42.479 63.469c2.457 3.657 3.942 8.146 3.998 12.979v26.501c-2.26 8.002-8.194 14.266-15.817 16.938-3.302 1.426-6.947 2.224-10.779 2.224-5.971 0-11.489-1.939-15.958-5.222-4.199-2.921-9.221-5.172-14.633-6.39l-9.78-0.054c-0.371-0.044-0.8-0.070-1.235-0.070-3.871 0-7.275 2.001-9.234 5.024-1.801 2.615-3.178 5.619-3.984 8.849l-0.040 0.189c-0.205 4.691-0.322 10.193-0.322 15.723 0 41.879 6.699 82.192 19.085 119.928 5.948 17.297 17.515 34.183 32.565 47.136 15.438 11.745 34.796 18.741 55.788 18.741 1.699 0 3.387-0.046 5.063-0.136-0.21 0.010-0.182 0.010-0.154 0.010 53.795 0 97.665-42.499 99.865-95.754-0.133-28.827-13.054-54.409-33.338-71.55-4.847-4.33-7.872-10.341-8.134-17.061-1.267-8.978-1.989-19.295-1.989-29.781s0.722-20.803 2.12-30.905zM412.798 446.251c0.757-0.008 1.652-0.013 2.548-0.013 139.011 0 252.030 111.288 254.823 249.63-0.422 70.364-30.059 133.461-77.337 178.061-46.718 45.553-110.479 73.58-180.786 73.58-0.438 0-0.876-0.001-1.313-0.003h0.067c-0.37 0.002-0.808 0.003-1.246 0.003-70.307 0-134.068-28.028-180.719-73.52-46.489-44.823-75.397-107.715-75.409-177.359 2.505-138.836 115.64-250.42 254.837-250.42 1.595 0 3.187 0.015 4.775 0.044zM412.798 900.029c109.888-2.793 197.903-92.538 197.903-202.839 0-112.059-90.842-202.901-202.901-202.901-112.037 0-202.866 90.807-202.901 202.836 1.402 112.369 92.819 202.92 205.385 202.92 0.884 0 1.766-0.006 2.648-0.017z" />
<glyph unicode="&#xe913;" glyph-name="paused" d="M512 960c-282.77 0-512-229.23-512-512s229.23-512 512-512c282.77 0 512 229.23 512 512s-229.23 512-512 512zM448 192h-128v512h128zM704 192h-128v512h128z" />
<glyph unicode="&#xe914;" glyph-name="pfad-2" horiz-adv-x="512" d="M501.541 475.429l-439.808 473.161c-6.321 7.031-15.446 11.433-25.6 11.433s-19.279-4.402-25.572-11.402c-6.591-7.277-10.608-16.936-10.608-27.533s4.017-20.256 10.611-27.537l414.177-445.551-414.135-445.586c-6.593-7.233-10.631-16.896-10.631-27.502s4.038-20.268 10.661-27.534c6.307-6.904 15.338-11.287 25.395-11.451 10.136 0.058 19.201 4.468 25.454 11.45l439.764 473.121c6.568 7.217 10.591 16.853 10.591 27.429s-4.022 20.211-10.62 27.462z" />
<glyph unicode="&#xe915;" glyph-name="pfad-3" d="M1012.864 7.765l-246.613 246.613c60.775 73.847 97.624 169.376 97.624 273.511 0 238.563-193.394 431.957-431.957 431.957s-431.957-193.394-431.957-431.957c0-238.563 193.394-431.957 431.957-431.957 104.242 0 199.86 36.925 274.487 98.409l245.872-246.993c7.73-7.767 18.429-12.574 30.251-12.574 23.569 0 42.675 19.106 42.675 42.675 0 11.747-4.747 22.386-12.426 30.103zM432 182.144c-191.257 0.049-346.283 155.104-346.283 346.368 0 191.294 155.074 346.368 346.368 346.368s346.368-155.074 346.368-346.368c0-0.030 0-0.060 0-0.090-0.267-191.194-155.241-346.108-346.437-346.278z" />
<glyph unicode="&#xe916;" glyph-name="pfad-8" horiz-adv-x="1365" d="M1361.749 567.524q0 42.951-6.258 109.113c-3.692 44.72-9.493 84.965-17.523 124.399-6.585 32.216-25.362 65.867-51.742 91.81-24.963 25.338-58.298 42.316-95.51 46.439-133.466 13.232-287.652 20.74-443.591 20.74-23.765 0-47.489-0.174-71.17-0.522-16.494 0.347-40.19 0.521-63.926 0.521-155.948 0-310.141-7.508-462.24-22.184-18.615-2.555-51.984-19.561-76.832-44.942-24.847-26.265-42.306-59.707-48.951-96.896-7.614-34.356-13.659-74.575-17.019-115.554q-5.907-69.462-6.476-112.414t0-119.467v-119.467q0-42.951 6.258-109.113c3.652-44.652 9.454-84.898 17.514-124.322 6.59-32.294 25.367-65.946 51.75-91.887 24.964-25.338 58.299-42.317 95.51-46.44 133.473-13.231 287.666-20.74 443.613-20.74 23.757 0 47.473 0.174 71.147 0.522 16.505-0.347 40.211-0.521 63.958-0.521 155.936 0 310.119 7.509 462.206 22.184 18.617 2.555 51.986 19.561 76.834 44.942 26.208 26.074 44.817 59.709 52.279 97.354 7.634 34.397 13.678 74.616 17.046 115.592q5.908 68.966 6.477 112.429t0 119.467q-2.446 76.004-3.356 118.955zM949.76 404.252l-389.689-255.659c-6.833-5.059-15.427-8.097-24.73-8.097-0.446 0-0.89 0.007-1.332 0.021-8.627 0.266-16.705 2.66-23.739 6.673-14.817 8.137-24.862 23.896-24.862 42.001 0 0.988 0.030 1.969 0.089 2.943l-0.006 511.297c-0.007 0.32-0.011 0.698-0.011 1.076 0 18.601 9.919 34.885 24.756 43.851 6.867 4.046 14.855 6.36 23.384 6.36 9.904 0 19.080-3.121 26.597-8.433l389.544-255.562c14.043-9.433 23.161-25.255 23.161-43.207s-9.118-33.775-22.975-43.089z" />
<glyph unicode="&#xe917;" glyph-name="pfad-24" horiz-adv-x="1354" d="M1335.844 494.998l-63.585 149.84c-4.595 10.688-14.96 18.072-27.071 18.246h-110.605c-0.002 0-0.003 0-0.005 0-16.49 0-29.857-13.368-29.857-29.857 0-0.194 0.002-0.388 0.006-0.582v-85.673h-61.927v71.879c0.003 0.165 0.005 0.359 0.005 0.553 0 16.49-13.368 29.857-29.857 29.857-0.002 0-0.004 0-0.005 0h-131.041v135.464c0.003 0.165 0.005 0.359 0.005 0.553 0 16.49-13.368 29.857-29.857 29.857-0.002 0-0.004 0-0.005 0h-230.566v70.773h230.566c14.943 2.086 26.319 14.782 26.319 30.134s-11.376 28.048-26.159 30.116l-519.901 0.018c-14.943-2.086-26.319-14.782-26.319-30.134s11.376-28.048 26.159-30.116l230.726-0.018v-70.773h-230.566c-0.002 0-0.003 0-0.005 0-16.49 0-29.857-13.368-29.857-29.857 0-0.194 0.002-0.388 0.006-0.582v-51.392h-110.583c-0.002 0-0.003 0-0.005 0-16.49 0-29.857-13.368-29.857-29.857 0-0.194 0.002-0.388 0.006-0.582v-252.653h-88.467v252.683c0 0 0 0 0 0 0 16.49-13.368 29.857-29.857 29.857s-29.857-13.368-29.857-29.857c0 0 0 0 0 0v-565.633c0 0 0 0 0 0 0-16.49 13.368-29.857 29.857-29.857s29.857 13.368 29.857 29.857c0 0 0 0 0 0v252.683h88.467v-252.683c-0.003-0.165-0.005-0.359-0.005-0.553 0-16.49 13.368-29.857 29.857-29.857 0.002 0 0.004 0 0.005 0h176.38l177.486-149.84c5.169-4.451 11.941-7.168 19.348-7.188h449.525c0.002 0 0.003 0 0.005 0 16.49 0 29.857 13.368 29.857 29.857 0 0.194-0.002 0.388-0.006 0.582v135.435h61.927v-84.043c-0.003-0.165-0.005-0.359-0.005-0.553 0-16.49 13.368-29.857 29.857-29.857 0.002 0 0.004 0 0.005 0h110.583c12.016 0.073 22.342 7.232 27.017 17.506l65.873 150.027c0.384 1.829 0.603 3.93 0.603 6.082s-0.22 4.254-0.638 6.282l0.034 299.48c0.391 1.828 0.616 3.929 0.616 6.082s-0.224 4.254-0.65 6.28zM1277.235 186.471l-55.292-123.3h-60.268v84.043c0.003 0.165 0.005 0.359 0.005 0.553 0 16.49-13.368 29.857-29.857 29.857-0.002 0-0.004 0-0.005 0h-121.641c-0.002 0-0.003 0-0.005 0-16.49 0-29.857-13.368-29.857-29.857 0-0.194 0.002-0.388 0.006-0.582v-135.435h-409.158l-175.274 148.181c-5.169 4.451-11.941 7.168-19.348 7.188h-154.821v507.024h110.583c0.002 0 0.003 0 0.005 0 16.49 0 29.857 13.368 29.857 29.857 0 0.194-0.002 0.388-0.006 0.582v51.392h461.132v-135.464c-0.003-0.165-0.005-0.359-0.005-0.553 0-16.49 13.368-29.857 29.857-29.857 0.002 0 0.004 0 0.005 0h131.041v-71.879c-0.003-0.165-0.005-0.359-0.005-0.553 0-16.49 13.368-29.857 29.857-29.857 0.002 0 0.004 0 0.005 0h121.641c0.002 0 0.003 0 0.005 0 16.49 0 29.857 13.368 29.857 29.857 0 0.194-0.002 0.388-0.006 0.582v84.014h59.162l55.292-128.829z" />
<glyph unicode="&#xe918;" glyph-name="pfad-25" horiz-adv-x="1435" d="M1172.376 745.191c-5.132 5.412-12.374 8.78-20.402 8.78-0.029 0-0.059 0-0.088 0h-175.588v132.865c0 32.326-26.205 58.531-58.531 58.531h-844.602c-32.326 0-58.531-26.205-58.531-58.531v-714.078c0-32.326 26.205-58.531 58.531-58.531h104.185v-3.512c12.956-90.931 90.297-160.077 183.787-160.077s170.831 69.146 183.671 159.087l0.116 4.502h444.836v-3.512c12.956-90.931 90.297-160.077 183.787-160.077s170.831 69.146 183.671 159.087l0.116 4.502h4.097c32.326 0 58.531 26.205 58.531 58.531v309.044c0 0.052 0.001 0.114 0.001 0.176 0 7.892-3.124 15.055-8.203 20.319zM361.136 8.286c-70.991 0.167-128.476 57.754-128.476 128.768 0 71.117 57.651 128.768 128.768 128.768s128.768-57.651 128.768-128.768c0-71.014-57.485-128.601-128.46-128.768zM918.352 171.002h-373.428v1.756c-14.678 89.059-91.104 156.161-183.202 156.161s-168.524-67.102-183.055-155.083l-104.332-1.078v713.493h845.188zM976.883 697.781h164.472l187.885-191.982h-351.186zM1269.538 49.843c-23.116-23.837-55.44-38.63-91.218-38.63-0.032 0-0.063 0-0.095 0-0.304-0.003-0.67-0.004-1.035-0.004-71.699 0-129.822 58.123-129.822 129.822s58.123 129.822 129.822 129.822c71.699 0 129.822-58.123 129.822-129.822 0-37.016-15.492-70.413-40.346-94.063zM1366.699 159.881l-8.78 32.777c-21.057 81.061-93.578 139.945-179.853 139.945-91.743 0-167.934-66.585-182.884-154.065l-0.155-5.781h-15.218v272.169h387.475z" />
<glyph unicode="&#xe919;" glyph-name="photo" horiz-adv-x="1365" d="M910.222 362.667c0-125.675-101.88-227.556-227.556-227.556s-227.556 101.88-227.556 227.556c0 125.675 101.88 227.556 227.556 227.556s227.556-101.88 227.556-227.556zM1274.311 789.333v0h-250.311l-51.2 136.533c-5.689 17.067-28.444 34.133-45.511 34.133h-489.244c-22.756 0-39.822-11.378-45.511-34.133l-51.2-136.533h-250.311c-45.511 0-85.333-39.822-85.333-85.333v-682.667c0-45.511 39.822-85.333 85.333-85.333h1188.978c45.511 0 85.333 39.822 85.333 85.333v682.667c0 56.889-28.444 85.333-91.022 85.333zM682.667 21.333c-187.733 0-341.333 153.6-341.333 341.333s153.6 341.333 341.333 341.333 341.333-153.6 341.333-341.333-153.6-341.333-341.333-341.333z" />
<glyph unicode="&#xe91a;" glyph-name="photo_download" horiz-adv-x="1027" d="M285.126 205.796c0-67.449 55.186-122.635 122.635-122.635s122.635 55.186 122.635 122.635c0 9.198 0 18.395-3.066 27.593-24.527 6.132-45.988 30.659-45.988 58.251v9.198c-21.461 15.329-45.988 24.527-73.581 24.527-67.449 3.066-122.635-52.12-122.635-119.569zM591.713 205.796c0-101.174-82.778-183.952-183.952-183.952s-183.952 82.778-183.952 183.952 82.778 183.952 183.952 183.952c27.593 0 52.12-6.132 73.581-15.329v153.293h-205.413c-12.263 0-21.461-6.132-24.527-18.395l-27.593-73.581h-134.898c-24.527 0-45.988-21.461-45.988-45.988v-367.904c0-24.527 21.461-45.988 45.988-45.988h640.766c24.527 0 45.988 21.461 45.988 45.988v208.479h-187.018c3.066-9.198 3.066-15.329 3.066-24.527zM974.946 920.144h-429.222c-9.198 0-15.329-6.132-15.329-15.329v-613.174c0-9.198 6.132-15.329 15.329-15.329h429.222c9.198 0 15.329 6.132 15.329 15.329v613.174c0 9.198-9.198 15.329-15.329 15.329zM882.97 444.934h-245.269v33.725h245.269v-33.725zM760.335 509.317l-122.635 113.437h70.515v98.108h104.24v-98.108h70.515l-122.635-113.437z" />
<glyph unicode="&#xe91b;" glyph-name="settings" d="M971.989 556.757l-71.723 11.989c-8.406 26.875-18.204 49.912-29.946 71.748l43.429 56.977c7.399 10.179 11.837 22.928 11.837 36.712 0 17.44-7.103 33.221-18.575 44.607l-63.791 63.62c-11.404 11.532-27.224 18.677-44.712 18.688-0.071 0-0.153 0-0.235 0-13.659 0-26.291-4.399-36.555-11.858l-59.298-42.158c-20.492 11.192-44.417 21.331-69.385 29.103l-14.924 71.548c-5.19 30.115-31.112 52.736-62.319 52.736-0.066 0-0.132 0-0.198 0h-90.528c-0.056 0-0.122 0-0.188 0-31.206 0-57.129-22.621-62.265-52.36l-12.47-72.909c-26.819-8.5-49.834-18.452-71.606-30.389l-56.778 43.317c-10.205 7.345-22.957 11.746-36.736 11.746-17.498 0-33.339-7.098-44.799-18.573l-64.001-63.489c-11.437-11.416-18.513-27.199-18.513-44.634 0-13.768 4.412-26.505 11.899-36.874l42.539-59.804c-10.639-19.772-20.305-42.898-27.72-67.011l-71.779-14.739c-30.068-5.189-52.651-31.073-52.651-62.232 0-0.081 0-0.163 0-0.244v-89.929c0-0.020 0-0.044 0-0.068 0-31.235 22.694-57.17 52.492-62.216l73.118-12.425c8.531-26.751 18.508-49.706 30.47-71.415l-43.185-56.457c-7.367-10.165-11.784-22.886-11.784-36.638 0-17.477 7.134-33.288 18.648-44.679l63.792-63.621c11.416-11.437 27.199-18.513 44.634-18.513 13.768 0 26.505 4.412 36.874 11.899l59.932 42.539c19.064-10.182 41.455-19.591 64.756-26.951l14.86-72.505c5.19-30.115 31.112-52.736 62.319-52.736 0.066 0 0.132 0 0.198 0h90.315c0.067 0 0.145 0 0.224 0 31.198 0 57.112 22.624 62.229 52.361l12.256 72.098c26.941 8.372 50.039 18.143 71.936 29.864l57.088-43.347c10.215-7.367 22.985-11.782 36.786-11.782 17.474 0 33.294 7.078 44.751 18.524l63.786 63.616c11.482 11.423 18.588 27.236 18.588 44.708 0 13.735-4.391 26.445-11.846 36.802l-42.24 59.162c10.717 19.695 20.516 42.734 28.112 66.753l72.667 14.783c30.17 5.098 52.864 31.033 52.864 62.268 0 0.024 0 0.048 0 0.072v89.852c0.003 0.235 0.005 0.512 0.005 0.79 0 30.934-22.532 56.605-52.080 61.496zM967.083 404.651c0-0.020 0-0.043 0-0.066 0-2.762-2.019-5.053-4.662-5.477l-89.93-14.938c-11.33-1.941-20.289-10.299-23.082-21.134-8.914-34.192-21.672-64.011-38.15-91.333-1.675-2.667-3.173-7.739-3.173-13.162 0-6.248 1.99-12.032 5.37-16.752l52.805-74.196c0.608-0.907 0.97-2.024 0.97-3.225 0-1.563-0.613-2.982-1.612-4.031l-63.784-63.614c-1.012-1.059-2.435-1.717-4.012-1.717-1.236 0-2.377 0.404-3.299 1.087l-74.225 52.597c-4.652 3.314-10.451 5.298-16.714 5.298-5.433 0-10.517-1.493-14.864-4.091-25.656-15.491-55.474-28.219-87.075-36.553-13.451-3.279-21.84-12.24-23.703-23.411l-15.212-89.766c-0.428-2.675-2.718-4.694-5.481-4.694-0.023 0-0.046 0-0.069 0h-90.108c-0.020 0-0.043 0-0.066 0-2.762 0-5.053 2.019-5.477 4.662l-14.98 89.632c-1.973 11.295-10.321 20.216-21.134 22.997-33.511 8.856-62.686 21.132-89.615 36.838-2.494 1.487-7.507 2.909-12.851 2.928-0.054 0-0.112 0-0.17 0-6.203 0-11.94-2-16.6-5.39l-74.799-53.106c-0.901-0.614-1.999-1.003-3.184-1.066-0.067-0.002-0.127-0.003-0.187-0.003-1.602 0-3.050 0.654-4.094 1.709l-63.787 63.616c-1.011 1.037-1.634 2.455-1.634 4.019 0 1.207 0.372 2.328 1.007 3.254l52.638 73.623c3.31 4.678 5.291 10.5 5.291 16.785 0 5.451-1.49 10.554-4.085 14.924-15.711 25.539-28.607 55.22-37.061 86.72-3.532 13.305-12.413 21.588-23.482 23.666l-90.721 15.388c-2.675 0.428-4.694 2.718-4.694 5.481 0 0.023 0 0.046 0 0.069v89.852c0 0.020 0 0.043 0 0.066 0 2.762 2.019 5.053 4.662 5.477l89.29 14.938c11.394 1.916 20.422 10.273 23.293 21.132 8.689 34.173 21.241 64.008 37.517 91.369 1.607 2.563 3.068 7.544 3.068 12.866 0 6.281-2.035 12.086-5.481 16.794l-53.235 74.629c-0.622 0.906-0.994 2.027-0.994 3.234 0 1.564 0.623 2.982 1.635 4.020l63.785 63.7c1.012 1.059 2.435 1.717 4.012 1.717 1.236 0 2.377-0.404 3.299-1.087l73.713-52.597c4.697-3.303 10.535-5.278 16.834-5.278 5.462 0 10.576 1.485 14.962 4.073 25.649 15.681 55.462 28.551 87.088 36.976 13.297 3.518 21.571 12.362 23.678 23.394l15.56 90.467c0.428 2.675 2.718 4.694 5.481 4.694 0.023 0 0.046 0 0.069 0h90.108c0.020 0 0.043 0 0.066 0 2.762 0 5.053-2.019 5.477-4.662l14.98-89.034c1.937-11.363 10.289-20.358 21.132-23.208 35.014-8.911 65.588-21.799 93.613-38.515 2.621-1.649 7.705-3.146 13.14-3.146 6.263 0 12.062 1.987 16.801 5.366l73.725 52.889c0.901 0.614 1.999 1.003 3.184 1.066 0.067 0.002 0.127 0.003 0.187 0.003 1.602 0 3.050-0.654 4.094-1.709l63.787-63.616c1.004-1.042 1.622-2.461 1.622-4.024 0-1.204-0.367-2.323-0.995-3.25l-52.851-74.049c-3.321-4.633-5.311-10.417-5.311-16.665 0-5.422 1.498-10.494 4.104-14.825 15.547-25.659 28.305-55.477 36.642-87.091 3.288-13.46 12.287-21.858 23.495-23.69l90.063-15.169c2.675-0.428 4.694-2.718 4.694-5.481 0-0.023 0-0.046 0-0.069v-89.852zM512.299 670.123c-121.541-0.316-219.947-98.916-219.947-220.501 0-121.78 98.722-220.501 220.501-220.501s220.501 98.721 220.501 220.501c-0.17 121.816-98.96 220.502-220.8 220.502-0.090 0-0.18 0-0.27 0zM512.299 286.72c-89.732 0.218-162.389 73.011-162.389 162.773 0 89.897 72.876 162.773 162.773 162.773s162.773-72.876 162.773-162.773c-0.121-89.923-73.046-162.773-162.987-162.773-0.060 0-0.12 0-0.18 0z" />
<glyph unicode="&#xe91c;" glyph-name="swipe" horiz-adv-x="956" d="M171.827 816.299h332.686c1.515 0.040 2.958 0.278 4.326 0.69l-51.908-86.501c-1.281-2.302-2.035-5.049-2.035-7.973 0-9.187 7.447-16.634 16.634-16.634 5.794 0 10.897 2.963 13.875 7.456l66.576 111.109c1.477 2.441 2.351 5.391 2.351 8.545s-0.874 6.103-2.393 8.62l-66.495 110.972c-3.005 4.63-8.149 7.65-13.999 7.65-9.187 0-16.634-7.447-16.634-16.634 0-2.986 0.787-5.787 2.164-8.21l51.749-86.389c-1.251 0.38-2.695 0.619-4.187 0.659h-332.709c-9.199 0-16.657-7.458-16.657-16.657s7.458-16.657 16.657-16.657zM45.625 612.818c1.252-0.382 2.695-0.62 4.188-0.659h332.776c9.199 0 16.657 7.458 16.657 16.657s-7.458 16.657-16.657 16.657h-332.686c-1.515-0.040-2.958-0.279-4.326-0.69l51.908 86.501c1.334 2.34 2.121 5.142 2.121 8.127 0 9.187-7.447 16.634-16.634 16.634-5.85 0-10.994-3.020-13.96-7.585l-66.577-111.112c-1.486-2.443-2.365-5.397-2.365-8.556s0.88-6.113 2.407-8.63l66.496-110.973c3.017-4.555 8.119-7.518 13.914-7.518 9.187 0 16.634 7.447 16.634 16.634 0 2.923-0.754 5.671-2.079 8.058zM947.2 394.729l-235.11 143.701 31.38 117.487c1.56 5.597 2.456 12.023 2.456 18.66 0 39.82-32.28 72.1-72.1 72.1-33.183 0-61.131-22.417-69.525-52.934l-77.647-291.572c-3.816-14.477-16.791-24.98-32.219-24.98-1.663 0-3.297 0.122-4.894 0.357l-23.212 48.402c-12.805 26.257-39.3 44.027-69.945 44.027-12.189 0-23.721-2.811-33.984-7.82l-9.735-4.69c-26.193-12.885-43.901-39.381-43.901-70.013 0-12.213 2.815-23.769 7.831-34.054l122.677-255.722-15.292-57.298c-0.443-1.428-0.697-3.069-0.697-4.77 0-9.199 7.458-16.657 16.657-16.657 7.815 0 14.373 5.382 16.17 12.642l17 63.42c0.308 1.197 0.485 2.571 0.485 3.987 0 2.586-0.59 5.034-1.643 7.217l-125.59 261.589c-2.742 5.606-4.345 12.198-4.345 19.165 0 17.499 10.114 32.636 24.814 39.884l10.455 5.009c5.613 2.76 12.218 4.374 19.2 4.374 17.508 0 32.646-10.151 39.849-24.888l27.058-55.786c2.198-4.418 6.175-7.672 10.968-8.851l3.118-0.797c5.16-1.437 11.085-2.262 17.203-2.262 30.831 0 56.765 20.97 64.316 49.425l77.724 291.508c4.977 16.097 19.727 27.59 37.161 27.59 21.44 0 38.821-17.381 38.821-38.821 0-3.144-0.374-6.2-1.079-9.127l-68.213-255.143c-0.443-1.428-0.697-3.069-0.697-4.77 0-9.199 7.458-16.657 16.657-16.657 7.815 0 14.373 5.382 16.17 12.642l27.968 104.494 53.453-32.654c-1.292-1.667-2.287-3.637-2.863-5.778l-28.63-107.272c-0.374-1.316-0.589-2.827-0.589-4.389 0-7.669 5.182-14.127 12.236-16.064 1.373-0.375 2.816-0.574 4.305-0.574 0.048 0 0.095 0 0.143 0.001-0.001 0 0.005 0 0.012 0 7.657 0 14.106 5.174 16.041 12.217l27.971 104.496 53.68-33.314c-1.5-1.766-2.645-3.885-3.295-6.21l-28.518-106.84c-0.443-1.428-0.697-3.069-0.697-4.77 0-9.199 7.458-16.657 16.657-16.657 7.815 0 14.373 5.382 16.17 12.642l27.968 104.494 52.338-31.994-69.313-258.844-95.71-84.946c-2.355-2.113-4.098-4.866-4.956-7.984l-17.003-63.4c-0.443-1.428-0.697-3.069-0.697-4.77 0-9.199 7.458-16.657 16.657-16.657 7.815 0 14.373 5.382 16.17 12.642l15.657 58.528 95.71 84.946c2.356 2.113 4.099 4.865 4.956 7.984l73.71 275.937c0.413 1.381 0.65 2.968 0.65 4.611 0 6.216-3.4 11.637-8.441 14.506z" />
<glyph unicode="&#xe91d;" glyph-name="tap" horiz-adv-x="666" d="M255.36 922.368c1.637 0.046 3.564 0.072 5.497 0.072 114.111 0 207.032-90.729 210.559-203.984l0.008-63.812c0.549-10.418 9.13-18.658 19.635-18.658s19.087 8.24 19.633 18.609l0.002 64.049c-7.759 134.981-119.113 241.503-255.347 241.503s-247.588-106.522-255.316-240.82l-0.031-80.043c0.549-10.418 9.13-18.658 19.635-18.658s19.087 8.24 19.633 18.609l0.002 79.409c3.826 113.357 96.639 203.797 210.575 203.797 1.939 0 3.872-0.026 5.798-0.078zM651.571 487.424l-311.91 86.63v135.68c-2.546 45.028-39.682 80.578-85.12 80.578s-82.574-35.55-85.11-80.354l-0.010-275.988h-2.099c-0.707 0.016-1.541 0.025-2.376 0.025-61.951 0-112.437-49.087-114.687-110.488l-0.006-172.749c-0.018-0.295-0.028-0.639-0.028-0.986s0.010-0.691 0.030-1.033l-0.002-3.409 0.794-1.741 0.922-1.485 1.178-1.613v-0.87l107.904-118.579v-66.099c0.393-10.549 9.039-18.951 19.648-18.951s19.255 8.403 19.647 18.916l0.001 73.072c0.001 0.083 0.002 0.181 0.002 0.279 0 4.676-1.791 8.934-4.724 12.124l-107.892 118.566v163.635c1.225 40.879 34.656 73.551 75.718 73.551 0.722 0 1.442-0.010 2.16-0.030l1.942 0.002v-91.955c0.393-10.549 9.039-18.951 19.648-18.951s19.255 8.403 19.647 18.916l0.001 405.591c1.323 24.286 21.339 43.478 45.837 43.478s44.513-19.192 45.832-43.361l0.005-294.824c0.666-10.331 9.208-18.457 19.648-18.457s18.982 8.127 19.645 18.399l0.003 120.378 69.402-19.302v-131.686c0.393-10.549 9.039-18.951 19.648-18.951s19.255 8.403 19.647 18.916l0.001 120.356 69.402-19.302v-131.328c0.549-10.418 9.13-18.658 19.635-18.658s19.087 8.24 19.633 18.609l0.002 120.369 69.402-19.302v-298.675l-81.459-118.835c-2.033-2.851-3.257-6.4-3.277-10.235v-73.042c0.666-10.331 9.208-18.457 19.648-18.457s18.982 8.127 19.645 18.399l0.003 67.514 83.149 119.066c2.033 2.851 3.257 6.4 3.277 10.235v318.469c-0.079 8.593-5.937 15.797-13.872 17.916z" />
</font>
</defs>
</svg>
