<?xml version="1.0" encoding="utf-8"?>
<!-- Generator: Adobe Illustrator 17.0.0, SVG Export Plug-In . SVG Version: 6.00 Build 0)  -->
<!DOCTYPE svg PUBLIC "-//W3C//DTD SVG 1.1//EN" "http://www.w3.org/Graphics/SVG/1.1/DTD/svg11.dtd">
<svg version="1.1" id="Слой_1" xmlns="http://www.w3.org/2000/svg" xmlns:xlink="http://www.w3.org/1999/xlink" x="0px" y="0px"
	 width="100px" height="100px" viewBox="270 190 100 100" enable-background="new 270 190 100 100" xml:space="preserve">
<path d="M308.952,218.646c0.89-0.865,2.304-0.87,3.201-0.012c0.87,0.838,0.896,2.224,0.058,3.094
	c-0.015,0.016-0.03,0.031-0.046,0.046l-16.341,16.003h53.893c0.6-0.007,1.18,0.222,1.612,0.638c0.427,0.412,0.669,0.979,0.67,1.572
	c-0.014,1.248-1.037,2.248-2.284,2.234h-53.882l16.341,15.969c0.871,0.868,0.874,2.277,0.006,3.149
	c-0.002,0.002-0.004,0.004-0.006,0.006c-0.893,0.882-2.33,0.882-3.223,0l-20.3-19.867c-0.864-0.855-0.871-2.248-0.017-3.112
	c0.006-0.006,0.011-0.011,0.017-0.017L308.952,218.646z"/>
</svg>
