<?xml version="1.0" encoding="utf-8"?>
<!-- Generator: Adobe Illustrator 17.0.0, SVG Export Plug-In . SVG Version: 6.00 Build 0)  -->
<!DOCTYPE svg PUBLIC "-//W3C//DTD SVG 1.1//EN" "http://www.w3.org/Graphics/SVG/1.1/DTD/svg11.dtd">
<svg version="1.1" id="Слой_1" xmlns="http://www.w3.org/2000/svg" xmlns:xlink="http://www.w3.org/1999/xlink" x="0px" y="0px"
	 width="100px" height="100px" viewBox="270 190 100 100" enable-background="new 270 190 100 100" xml:space="preserve">
<path d="M331.053,218.652c-0.892-0.871-2.314-0.876-3.212-0.012c-0.87,0.838-0.896,2.223-0.058,3.094
	c0.015,0.016,0.03,0.031,0.046,0.046l16.338,16h-53.883c-0.6-0.008-1.18,0.221-1.612,0.638c-0.428,0.411-0.671,0.979-0.672,1.572
	c0.014,1.247,1.037,2.247,2.284,2.234h53.883l-16.338,15.966c-0.871,0.866-0.875,2.274-0.009,3.145
	c0.003,0.003,0.006,0.006,0.009,0.009c0.893,0.882,2.331,0.882,3.224,0l20.294-19.864c0.864-0.854,0.871-2.247,0.017-3.111
	c-0.006-0.006-0.011-0.011-0.017-0.017L331.053,218.652z"/>
</svg>
