<?xml version="1.0" encoding="utf-8"?>
<!-- Generator: Adobe Illustrator 17.0.0, SVG Export Plug-In . SVG Version: 6.00 Build 0)  -->
<!DOCTYPE svg PUBLIC "-//W3C//DTD SVG 1.1//EN" "http://www.w3.org/Graphics/SVG/1.1/DTD/svg11.dtd">
<svg version="1.1" id="Слой_1" xmlns="http://www.w3.org/2000/svg" xmlns:xlink="http://www.w3.org/1999/xlink" x="0px" y="0px"
	 width="100px" height="100px" viewBox="270 190 100 100" enable-background="new 270 190 100 100" xml:space="preserve">
<g transform="translate(2632.95 218)">
	<path d="M-2328.443,6.472c1.473,0,2.667-1.193,2.667-2.665V-7.335c0-1.472-1.194-2.665-2.667-2.665s-2.667,1.193-2.667,2.665V3.817
		C-2331.104,5.285-2329.912,6.472-2328.443,6.472z"/>
	<path d="M-2297.718,6.472c1.473,0,2.667-1.193,2.667-2.665V-7.335c0-1.472-1.194-2.665-2.667-2.665
		c-1.473,0-2.667,1.193-2.667,2.665V3.817C-2300.379,5.285-2299.187,6.472-2297.718,6.472z"/>
	<path d="M-2299.947,41.046c-1.651,1.411-3.782,2.134-5.952,2.02c-1.752,0.057-3.498-0.25-5.125-0.901v-3.961
		c1.385,0.87,2.988,1.33,4.624,1.327c1.039,0.066,2.067-0.244,2.896-0.874c0.686-0.589,1.067-1.458,1.035-2.361
		c0-2.1-1.488-3.134-4.438-3.134c-1.174,0.019-2.346,0.108-3.509,0.267V21.584h11.733v3.795h-7.707v4.265
		c0.584-0.031,1.17-0.031,1.755,0c1.855-0.107,3.68,0.502,5.099,1.7c1.247,1.195,1.916,2.87,1.835,4.595
		c0.108,2.018-0.701,3.977-2.203,5.331L-2299.947,41.046z M-2314.928,42.694h-13.285v-3.662h4.384V25.913l-4.491,0.981v-3.822
		l9.141-1.834v17.815h4.357v3.662L-2314.928,42.694z M-2283.739-4.28h-5.979v7.964c0,4.4-3.569,7.967-7.971,7.967
		c-4.402,0-7.971-3.567-7.971-7.967V-4.28h-14.704v7.964c0,4.4-3.569,7.967-7.971,7.967c-4.402,0-7.971-3.567-7.971-7.967V-4.28
		h-5.979c-1.473,0-2.667,1.193-2.667,2.665v52.95c0,1.472,1.194,2.665,2.667,2.665h58.667c1.473,0,2.667-1.193,2.667-2.665v-52.96
		c0-1.472-1.194-2.665-2.667-2.665L-2283.739-4.28z"/>
</g>
</svg>
