<?xml version="1.0" encoding="utf-8"?>
<!-- Generator: Adobe Illustrator 17.0.0, SVG Export Plug-In . SVG Version: 6.00 Build 0)  -->
<!DOCTYPE svg PUBLIC "-//W3C//DTD SVG 1.1//EN" "http://www.w3.org/Graphics/SVG/1.1/DTD/svg11.dtd">
<svg version="1.1" id="Слой_1" xmlns="http://www.w3.org/2000/svg" xmlns:xlink="http://www.w3.org/1999/xlink" x="0px" y="0px"
	 width="100px" height="100px" viewBox="270 190 100 100" enable-background="new 270 190 100 100" xml:space="preserve">
<g transform="translate(1085 2986)">
	<path d="M-784.668-2715.422c0.004,0.789,0.646,1.425,1.435,1.422l0,0h36.459c0.789,0.004,1.431-0.633,1.435-1.422l0,0v-46.054
		h-39.329V-2715.422z M-756.921-2753.646h5.39v30.994h-5.39V-2753.646z M-767.702-2753.646h5.39v30.994h-5.39V-2753.646z
		 M-778.483-2753.646h5.39v30.994h-5.39V-2753.646z"/>
	<path d="M-752.895-2771.464v-5.114c-0.004-0.789-0.646-1.425-1.435-1.422l0,0h-21.339c-0.789-0.004-1.431,0.633-1.435,1.422l0,0
		v6.893h-10.039c-0.789-0.004-1.431,0.633-1.435,1.422l0,0v3.605c0.004,0.789,0.646,1.426,1.435,1.422l0,0h44.292
		c0.788,0.002,1.428-0.634,1.432-1.422v-3.605c-0.004-0.789-0.646-1.426-1.435-1.422l0,0h-10.039L-752.895-2771.464z
		 M-758.286-2769.979h-13.439v-2.695h13.439V-2769.979z"/>
</g>
</svg>
