<?xml version="1.0" encoding="utf-8"?>
<!-- Generator: Adobe Illustrator 17.0.0, SVG Export Plug-In . SVG Version: 6.00 Build 0)  -->
<!DOCTYPE svg PUBLIC "-//W3C//DTD SVG 1.1//EN" "http://www.w3.org/Graphics/SVG/1.1/DTD/svg11.dtd">
<svg version="1.1" id="Слой_1" xmlns="http://www.w3.org/2000/svg" xmlns:xlink="http://www.w3.org/1999/xlink" x="0px" y="0px"
	 width="100px" height="100px" viewBox="270 190 100 100" enable-background="new 270 190 100 100" xml:space="preserve">
<g transform="translate(2035.816 726.027)">
	<path d="M-1686.381-496.639c-0.495-1.308-1.957-1.967-3.265-1.472c-1.308,0.495-1.967,1.957-1.472,3.265
		c5.171,13.649-1.703,28.906-15.352,34.076c-13.649,5.171-28.906-1.703-34.076-15.352c-5.171-13.649,1.703-28.906,15.352-34.076
		c6.109-2.314,12.858-2.284,18.946,0.085l-1.795,3.029c-0.492,0.832-0.114,1.388,0.841,1.234l8.51-1.365
		c0.78-0.095,1.335-0.805,1.239-1.585c-0.015-0.121-0.045-0.239-0.09-0.353l-2.884-8.147c-0.323-0.911-0.995-0.975-1.484-0.143
		l-1.731,2.91c-16.03-6.722-34.474,0.823-41.196,16.853c-6.722,16.03,0.823,34.474,16.853,41.196
		c16.03,6.722,34.474-0.824,41.196-16.853c3.117-7.433,3.263-15.778,0.409-23.316L-1686.381-496.639z"/>
	<path d="M-1716.76-503.345c-1.383,0.002-2.504,1.122-2.505,2.505v17.167c0.001,0.294,0.166,0.562,0.428,0.695l15.694,8.112
		c0.351,0.186,0.741,0.286,1.138,0.291l0,0c1.384,0.008,2.512-1.107,2.52-2.491c0.005-0.942-0.518-1.808-1.356-2.24l-13.407-6.931
		v-14.592c0.005-1.385-1.114-2.512-2.499-2.517C-1716.753-503.345-1716.756-503.345-1716.76-503.345z"/>
</g>
</svg>
