<?xml version="1.0" encoding="utf-8"?>
<!-- Generator: Adobe Illustrator 17.0.0, SVG Export Plug-In . SVG Version: 6.00 Build 0)  -->
<!DOCTYPE svg PUBLIC "-//W3C//DTD SVG 1.1//EN" "http://www.w3.org/Graphics/SVG/1.1/DTD/svg11.dtd">
<svg version="1.1" id="Слой_1" xmlns="http://www.w3.org/2000/svg" xmlns:xlink="http://www.w3.org/1999/xlink" x="0px" y="0px"
	 width="100px" height="100px" viewBox="270 190 100 100" enable-background="new 270 190 100 100" xml:space="preserve">
<g transform="translate(-1695 171)">
	<path d="M2046.534,37.467L2046.534,37.467c1.088,1.088,0.206,3.736-1.971,5.912l-55.183,55.183
		c-2.177,2.177-4.824,3.059-5.912,1.971l0,0c-1.088-1.088-0.206-3.736,1.971-5.912l55.183-55.183
		C2042.798,37.261,2045.445,36.379,2046.534,37.467z"/>
	<path d="M1983.466,37.467L1983.466,37.467c1.089-1.088,3.736-0.206,5.912,1.971l55.183,55.183c2.177,2.177,3.059,4.824,1.971,5.912
		l0,0c-1.089,1.088-3.736,0.206-5.912-1.971l-55.183-55.183C1983.26,41.202,1982.378,38.555,1983.466,37.467z"/>
</g>
</svg>
