<?xml version="1.0" encoding="utf-8"?>
<!-- Generator: Adobe Illustrator 17.0.0, SVG Export Plug-In . SVG Version: 6.00 Build 0)  -->
<!DOCTYPE svg PUBLIC "-//W3C//DTD SVG 1.1//EN" "http://www.w3.org/Graphics/SVG/1.1/DTD/svg11.dtd">
<svg version="1.1" id="Слой_1" xmlns="http://www.w3.org/2000/svg" xmlns:xlink="http://www.w3.org/1999/xlink" x="0px" y="0px"
	 width="100px" height="100px" viewBox="270 190 100 100" enable-background="new 270 190 100 100" xml:space="preserve">
<g transform="translate(20.75 1351.75)">
	<path d="M293.311-1097.673c0.21,0.002,0.418-0.046,0.605-0.141l15.821-7.797c0.658-0.331,0.922-1.133,0.591-1.791
		c-0.129-0.255-0.336-0.462-0.591-0.591l-15.821-7.797c-0.614-0.365-1.408-0.164-1.773,0.45c-0.123,0.207-0.186,0.443-0.182,0.683
		v15.595c0,0.462,0.239,0.89,0.632,1.133c0.208,0.159,0.459,0.252,0.72,0.267L293.311-1097.673z M294.663-1101.161v-11.341
		l11.507,5.672L294.663-1101.161z"/>
	<path d="M326.935-1138.417h-55.371c-2.366-0.016-4.297,1.888-4.315,4.253v44.827c0.018,2.366,1.949,4.27,4.315,4.253h55.371
		c2.366,0.016,4.297-1.888,4.315-4.253v-44.827C331.232-1136.529,329.301-1138.433,326.935-1138.417z M328.535-1134.163v7.467
		h-7.421l2.445-9.045h3.336c0.431-0.008,0.847,0.156,1.157,0.456c0.308,0.297,0.482,0.706,0.483,1.133V-1134.163z M328.535-1124.07
		v34.733c0,0.884-0.716,1.6-1.6,1.6l0,0h-55.371c-0.884,0-1.6-0.716-1.6-1.6l0,0v-34.704L328.535-1124.07z M274.805-1126.737h-4.891
		v-7.467c0-0.884,0.716-1.6,1.6-1.6l0,0h5.752L274.805-1126.737z M277.682-1126.737l2.445-9.045h8.112l-2.445,9.045H277.682z
		 M288.583-1126.737l2.445-9.045h8.083l-2.445,9.045H288.583z M299.455-1126.737l2.445-9.045h7.939l-2.445,9.045H299.455z
		 M310.327-1126.737l2.445-9.045h8.104l-2.445,9.045H310.327z"/>
</g>
</svg>
