<svg xmlns="http://www.w3.org/2000/svg" viewBox="-3417 720.107 18 16.693">
  <defs>
    <style>
      .cls-1 {
        fill: #222;
      }
    </style>
  </defs>
  <path id="pfad-31" class="cls-1" d="M153.25,564.545a.736.736,0,0,0-.664-.425H136.057a.739.739,0,0,0-.568,1.2L141.8,573v7.07a.737.737,0,0,0,.736.738.727.727,0,0,0,.328-.08l3.568-1.774a.731.731,0,0,0,.408-.658V573.02l6.312-7.68A.74.74,0,0,0,153.25,564.545Zm-10.185,7.728-5.456-6.645h13.457l-5.488,6.677a.739.739,0,0,0-.168.465v5.088l-2.1,1.043v-6.139A.739.739,0,0,0,143.065,572.274Z" transform="translate(-3552.324 155.988)"/>
</svg>
