<?xml version="1.0" encoding="utf-8"?>
<!-- Generator: Adobe Illustrator 17.0.0, SVG Export Plug-In . SVG Version: 6.00 Build 0)  -->
<!DOCTYPE svg PUBLIC "-//W3C//DTD SVG 1.1//EN" "http://www.w3.org/Graphics/SVG/1.1/DTD/svg11.dtd">
<svg version="1.1" id="Слой_1" xmlns="http://www.w3.org/2000/svg" xmlns:xlink="http://www.w3.org/1999/xlink" x="0px" y="0px"
	 width="100px" height="100px" viewBox="270 190 100 100" enable-background="new 270 190 100 100" xml:space="preserve">
<g transform="translate(20.76 1159.75)">
	<path d="M323.589-927.24c-0.012-0.741-0.616-1.335-1.357-1.333h-45.957c-0.736-0.124-1.434,0.373-1.557,1.109
		c-0.124,0.736,0.373,1.433,1.109,1.557c0.148,0.025,0.3,0.025,0.448,0h45.957c0.748,0.001,1.356-0.604,1.357-1.352V-927.24z"/>
	<path d="M291.664-896.644c0.748,0.001,1.356-0.604,1.357-1.352v-20.446c-0.01-0.749-0.626-1.349-1.375-1.339
		c-0.35,0.005-0.685,0.144-0.934,0.39l-5.109,5.09c-0.459,0.59-0.353,1.441,0.238,1.901c0.49,0.381,1.177,0.38,1.666-0.002
		l2.888-2.877v17.111c-0.097,0.74,0.425,1.419,1.165,1.515C291.595-896.649,291.629-896.646,291.664-896.644L291.664-896.644z"/>
	<path d="M309.475-917.005c0.747,0,1.352-0.605,1.352-1.352c0-0.747-0.605-1.352-1.352-1.352h-10.219
		c-0.748-0.001-1.356,0.604-1.357,1.352v10.179c0.001,0.748,0.609,1.353,1.357,1.352h5.109c0.94-0.003,1.846,0.346,2.541,0.978l0,0
		c1.466,1.45,1.478,3.813,0.027,5.279c-0.711,0.718-1.683,1.118-2.694,1.107h-5.109c-0.736-0.124-1.434,0.373-1.557,1.109
		c-0.124,0.736,0.373,1.433,1.109,1.557c0.148,0.025,0.3,0.025,0.448,0h5.109c3.535,0.01,6.408-2.846,6.419-6.38
		c0.005-1.609-0.597-3.161-1.685-4.346l0,0c-1.206-1.215-2.848-1.899-4.56-1.898h-3.752v-7.465L309.475-917.005z"/>
	<path d="M329.883-931.125c-0.736-0.013-1.344,0.573-1.357,1.309c0,0.014,0,0.029,0,0.043v35.603
		c-0.023,2.059-1.693,3.72-3.752,3.733h-51.037c-0.999,0.007-1.96-0.387-2.667-1.093c-0.711-0.695-1.107-1.651-1.096-2.645v-35.59
		c0-0.75-0.608-1.357-1.357-1.357s-1.357,0.608-1.357,1.357l0,0v35.603c0.023,3.552,2.914,6.418,6.467,6.412h51.067
		c3.542-0.01,6.414-2.871,6.437-6.412v-35.603c-0.001-0.748-0.609-1.353-1.357-1.352L329.883-931.125z"/>
	<path d="M288.373-944.125h24.336v4.343c0,0.75,0.608,1.357,1.357,1.357c0.75,0,1.357-0.608,1.357-1.357v-10.611
		c0-0.75-0.608-1.357-1.357-1.357c-0.75,0-1.357,0.608-1.357,1.357l0,0v3.594h-24.336c-0.747,0-1.352,0.605-1.352,1.352
		c0,0.747,0.605,1.352,1.352,1.352V-944.125z"/>
	<path d="M329.189-944.927L329.189-944.927c-1.195-1.173-2.8-1.833-4.475-1.84h-6.755c-0.747,0-1.352,0.605-1.352,1.352
		c0,0.747,0.605,1.352,1.352,1.352h6.755c0.998,0.002,1.955,0.394,2.667,1.093c0.705,0.699,1.1,1.652,1.096,2.645v4.17h-58.496
		v-4.172c0-2.061,1.671-3.733,3.733-3.733c0.006,0,0.012,0,0.019,0H283v4.343c-0.11,0.741,0.402,1.432,1.144,1.541
		c0.742,0.11,1.432-0.402,1.542-1.143c0.02-0.132,0.02-0.266,0-0.398v-10.611c-0.001-0.748-0.609-1.353-1.357-1.352
		c-0.359,0.001-0.702,0.146-0.952,0.403c-0.25,0.251-0.386,0.595-0.376,0.949v3.602h-9.352c-1.713-0.003-3.355,0.681-4.56,1.898l0,0
		c-1.174,1.188-1.837,2.788-1.848,4.458v5.492c0.001,0.748,0.609,1.353,1.357,1.352h61.285c0.748,0.001,1.356-0.604,1.357-1.352
		v-5.492c-0.041-1.726-0.781-3.362-2.051-4.532L329.189-944.927z"/>
</g>
</svg>
