<?xml version="1.0" encoding="utf-8"?>
<!-- Generator: Adobe Illustrator 20.1.0, SVG Export Plug-In . SVG Version: 6.00 Build 0)  -->
<svg version="1.1" id="Capa_1" xmlns="http://www.w3.org/2000/svg" xmlns:xlink="http://www.w3.org/1999/xlink" x="0px" y="0px"
	 viewBox="0 0 24 24" style="enable-background:new 0 0 24 24;" xml:space="preserve">
<style type="text/css">
	.st0{fill:#090509;}
</style>
<g>
	<path class="st0" d="M12,0C5.4,0,0,5.4,0,12s5.4,12,12,12s12-5.4,12-12S18.6,0,12,0z M12,22C6.5,22,2,17.5,2,12S6.5,2,12,2
		s10,4.5,10,10S17.5,22,12,22z"/>
	<path class="st0" d="M13.6,16.3l-1,0.5l1.3-6.8c0.2-0.7-0.6-1.5-1.4-1L10,10.5c-0.5,0.3-0.6,0.9-0.4,1.3c0.2,0.4,0.9,0.6,1.3,0.4
		l0.6-0.3l-1.3,6.5c-0.1,0.6,0.4,1.2,1,1.2c0.2,0,0.3-0.1,0.4-0.1l2.7-1.2c0.5-0.2,0.7-0.8,0.5-1.3C14.7,16.3,14.1,16.1,13.6,16.3z"
		/>
	<path class="st0" d="M13,7.2c0.8,0,1.4-0.6,1.4-1.4S13.7,4.4,13,4.4c-0.8,0-1.4,0.6-1.4,1.4S12.2,7.2,13,7.2z"/>
</g>
</svg>
