<?xml version="1.0" encoding="utf-8"?>
<!-- Generator: Adobe Illustrator 17.0.0, SVG Export Plug-In . SVG Version: 6.00 Build 0)  -->
<!DOCTYPE svg PUBLIC "-//W3C//DTD SVG 1.1//EN" "http://www.w3.org/Graphics/SVG/1.1/DTD/svg11.dtd">
<svg version="1.1" id="Layer_1" xmlns="http://www.w3.org/2000/svg" xmlns:xlink="http://www.w3.org/1999/xlink" x="0px" y="0px"
	 width="100px" height="100px" viewBox="270 190 100 100" enable-background="new 270 190 100 100" xml:space="preserve">
<g>
	<g id="pfad-2">
		<path d="M334.483,214.067c-8.09-8.09-21.399-8.09-29.488,0c-7.307,8.09-8.09,20.094-2.088,28.966l16.701,24.269l16.701-24.008
			C342.573,234.161,341.79,222.157,334.483,214.067z M333.178,240.946l-13.309,19.311l-13.309-19.311
			c-4.958-7.307-4.436-16.962,1.305-23.747l0.261-0.261c6.524-6.524,17.223-6.524,23.486,0
			C337.615,223.723,338.137,233.639,333.178,240.946z"/>
	</g>
	<g id="pfad-3">
		<path d="M351.967,262.084c0,2.871-2.871,5.219-8.612,7.046c-7.568,1.827-15.657,2.871-23.486,2.871s-15.657-1.044-23.225-2.871
			c-5.741-1.827-8.612-4.175-8.612-7.046c0-4.697,7.568-8.351,19.311-9.916c1.044,0,2.088,0.783,2.349,1.827
			c0,0.522,0,1.044-0.261,1.566c-0.261,0.522-0.783,0.783-1.305,0.783c-11.743,1.305-15.657,4.958-15.657,5.741
			c0,1.305,8.351,5.741,27.922,5.741c19.572,0,27.923-4.436,27.923-5.741c0-0.783-4.175-4.436-15.657-5.741
			c-0.522,0-1.044-0.261-1.305-0.783c-0.261-0.522-0.522-1.044-0.522-1.566c0-0.522,0.261-1.044,0.783-1.305
			c0.522-0.261,1.044-0.522,1.566-0.522C344.4,253.733,351.967,257.647,351.967,262.084z"/>
	</g>
	<g>
		<path d="M319.87,238.858c-5.48,0-10.177-4.436-10.177-10.177c0-5.741,4.436-10.177,10.177-10.177s10.177,4.436,10.177,10.177
			C330.047,234.422,325.35,238.858,319.87,238.858z M319.87,222.418c-3.392,0-6.263,2.871-6.263,6.263
			c0,3.392,2.871,6.263,6.263,6.263s6.263-2.871,6.263-6.263C326.132,225.289,323.262,222.418,319.87,222.418z"/>
	</g>
</g>
</svg>
