<?xml version="1.0" encoding="utf-8"?>
<!-- Generator: Adobe Illustrator 17.0.0, SVG Export Plug-In . SVG Version: 6.00 Build 0)  -->
<!DOCTYPE svg PUBLIC "-//W3C//DTD SVG 1.1//EN" "http://www.w3.org/Graphics/SVG/1.1/DTD/svg11.dtd">
<svg version="1.1" id="Слой_1" xmlns="http://www.w3.org/2000/svg" xmlns:xlink="http://www.w3.org/1999/xlink" x="0px" y="0px"
	 width="100px" height="100px" viewBox="270 190 100 100" enable-background="new 270 190 100 100" xml:space="preserve">
<path d="M351.829,234.411c0-1.342-0.098-3.048-0.293-5.115c-0.151-1.852-0.407-3.695-0.768-5.518
	c-0.34-1.755-1.205-3.366-2.48-4.619c-1.207-1.225-2.8-1.995-4.51-2.179c-7.954-0.744-15.943-1.06-23.931-0.947
	c-7.987-0.113-15.975,0.203-23.928,0.947c-1.711,0.178-3.307,0.949-4.51,2.179c-1.202,1.273-2.002,2.871-2.302,4.595
	c-0.385,1.82-0.653,3.663-0.8,5.518c-0.178,2.068-0.276,3.773-0.293,5.115s-0.018,3.209,0,5.601v5.601
	c0,1.342,0.098,3.048,0.293,5.115c0.149,1.853,0.406,3.695,0.768,5.518c0.34,1.755,1.205,3.366,2.48,4.619
	c1.207,1.225,2.8,1.995,4.51,2.179c7.954,0.744,15.943,1.06,23.931,0.947c7.987,0.113,15.975-0.203,23.928-0.947
	c1.711-0.178,3.307-0.949,4.51-2.179c1.265-1.258,2.122-2.868,2.459-4.619c0.385-1.82,0.652-3.663,0.8-5.518
	c0.178-2.052,0.276-3.757,0.293-5.115c0.018-1.358,0.018-3.225,0-5.601C351.91,237.613,351.858,235.754,351.829,234.411z
	 M332.515,242.066l-18.269,11.986c-0.353,0.259-0.782,0.392-1.219,0.379c-0.387-0.012-0.766-0.117-1.104-0.307
	c-0.767-0.415-1.225-1.236-1.173-2.107V228.04c-0.018-0.863,0.429-1.67,1.171-2.112c0.728-0.423,1.636-0.384,2.326,0.099
	l18.269,11.986c1.119,0.744,1.423,2.253,0.679,3.372c-0.179,0.269-0.41,0.5-0.679,0.679L332.515,242.066z"/>
</svg>
