<?xml version="1.0" encoding="utf-8"?>
<!-- Generator: Adobe Illustrator 17.0.0, SVG Export Plug-In . SVG Version: 6.00 Build 0)  -->
<!DOCTYPE svg PUBLIC "-//W3C//DTD SVG 1.1//EN" "http://www.w3.org/Graphics/SVG/1.1/DTD/svg11.dtd">
<svg version="1.1" id="Слой_1" xmlns="http://www.w3.org/2000/svg" xmlns:xlink="http://www.w3.org/1999/xlink" x="0px" y="0px"
	 width="100px" height="100px" viewBox="270 190 100 100" enable-background="new 270 190 100 100" xml:space="preserve">
<path d="M347.508,221.343h-54.891c-1.223-0.007-2.398,0.473-3.267,1.334c-0.866,0.863-1.352,2.036-1.35,3.259v28.128
	c-0.003,1.223,0.483,2.396,1.35,3.259c0.869,0.86,2.044,1.34,3.267,1.334h16.718c1.349,0.038,2.585-0.752,3.118-1.992l3.734-9.335
	c0.681-1.469,2.163-2.399,3.782-2.371c1.619,0.026,3.07,1.003,3.702,2.494l3.243,9.084c0.516,1.27,1.747,2.105,3.118,2.115h17.337
	c1.223,0.007,2.398-0.473,3.267-1.334c0.866-0.863,1.352-2.036,1.35-3.259v-28.006c0.099-1.239-0.333-2.462-1.19-3.363
	C349.939,221.798,348.745,221.309,347.508,221.343z M306.34,248.103c-3.923,0.004-7.106-3.172-7.111-7.095v0
	c0.045-3.906,3.205-7.059,7.111-7.095c3.906,0.036,7.066,3.189,7.111,7.095c-0.006,3.922-3.189,7.096-7.111,7.092V248.103z
	 M333.785,248.103c-3.923,0.004-7.106-3.172-7.111-7.095v0c0.045-3.906,3.205-7.059,7.111-7.095
	c3.906,0.036,7.066,3.189,7.111,7.095c-0.006,3.922-3.189,7.096-7.111,7.092V248.103z"/>
</svg>
