<?xml version="1.0" encoding="utf-8"?>
<!-- Generator: Adobe Illustrator 17.0.0, SVG Export Plug-In . SVG Version: 6.00 Build 0)  -->
<!DOCTYPE svg PUBLIC "-//W3C//DTD SVG 1.1//EN" "http://www.w3.org/Graphics/SVG/1.1/DTD/svg11.dtd">
<svg version="1.1" id="Слой_1" xmlns="http://www.w3.org/2000/svg" xmlns:xlink="http://www.w3.org/1999/xlink" x="0px" y="0px"
	 width="100px" height="100px" viewBox="270 190 100 100" enable-background="new 270 190 100 100" xml:space="preserve">
<g transform="translate(-909.5 2779)">
	<g transform="translate(370 725)">
		<path d="M887.452-3278.234c-0.002-0.682-0.265-1.338-0.736-1.832l-13.946-15.083c-0.512-0.56-1.242-0.87-2-0.851H835.9
			c-2.432,0.026-4.39,2.003-4.395,4.435v55.13c0.004,2.432,1.963,4.408,4.395,4.435H883.1c2.432-0.026,4.39-2.003,4.395-4.435
			L887.452-3278.234z M848.452-3251.834h-2.157v2.933c0.047,0.279-0.043,0.564-0.243,0.765c-0.197,0.2-0.48,0.292-0.757,0.245
			h-1.157c-0.277,0.046-0.56-0.045-0.757-0.245c-0.199-0.201-0.29-0.486-0.243-0.765v-10.637c-0.047-0.279,0.044-0.564,0.243-0.765
			c0.198-0.2,0.48-0.292,0.757-0.245h4.237c1.133-0.025,2.224,0.435,2.997,1.264c0.779,0.833,1.171,1.956,1.08,3.093
			c0.109,1.123-0.264,2.24-1.027,3.072c-0.762,0.826-1.842,1.283-2.965,1.256L848.452-3251.834z M859.652-3247.984h-3.499
			c-0.277,0.046-0.56-0.045-0.757-0.245c-0.199-0.202-0.289-0.486-0.243-0.765v-10.624c-0.047-0.279,0.044-0.564,0.243-0.765
			c0.198-0.2,0.48-0.292,0.757-0.245h3.467c2.327-0.15,4.542,1.015,5.739,3.016c1.206,2.009,1.206,4.519,0,6.528
			c-1.197,2.001-3.412,3.166-5.739,3.016L859.652-3247.984z M875.678-3257.85h-3.659v2.667h2.816
			c0.277-0.046,0.56,0.045,0.757,0.245c0.199,0.201,0.289,0.486,0.243,0.765v0.664c0.047,0.279-0.044,0.564-0.243,0.765
			c-0.198,0.2-0.48,0.292-0.757,0.245h-2.816v3.69c0.047,0.279-0.044,0.564-0.243,0.765c-0.197,0.2-0.48,0.292-0.757,0.245h-1.157
			c-0.277,0.046-0.56-0.045-0.757-0.245c-0.199-0.201-0.29-0.486-0.243-0.765v-10.65c-0.047-0.279,0.043-0.564,0.243-0.765
			c0.197-0.2,0.48-0.292,0.757-0.245h5.736c0.277-0.046,0.56,0.045,0.757,0.245c0.199,0.201,0.289,0.486,0.243,0.765v0.664l0,0
			c0.01,0.25-0.087,0.493-0.267,0.667c-0.18,0.172-0.426,0.258-0.675,0.235L875.678-3257.85z M883.585-3277.386h-9.13
			c-2.432-0.026-4.39-2.003-4.395-4.435v-9.904c0.014-0.112,0.092-0.206,0.2-0.24c0.107-0.035,0.225-0.003,0.301,0.08l13.157,13.994
			c0.237,0.16,0.157,0.477-0.08,0.477L883.585-3277.386z"/>
		<path d="M847.743-3257.893h-1.579v3.427h1.579c0.454,0.02,0.893-0.164,1.197-0.501c0.305-0.34,0.445-0.798,0.381-1.25
			c0.123-0.796-0.423-1.541-1.219-1.664C847.983-3257.901,847.863-3257.904,847.743-3257.893z"/>
		<path d="M859.479-3257.893h-1.211v7.28h1.237c0.969,0.064,1.914-0.314,2.571-1.029c0.661-0.72,0.963-1.699,0.824-2.667
			c0.125-0.958-0.19-1.922-0.856-2.621C861.381-3257.627,860.436-3257.982,859.479-3257.893L859.479-3257.893z"/>
	</g>
</g>
</svg>
