<?xml version="1.0" encoding="utf-8"?>
<!-- Generator: Adobe Illustrator 17.0.0, SVG Export Plug-In . SVG Version: 6.00 Build 0)  -->
<!DOCTYPE svg PUBLIC "-//W3C//DTD SVG 1.1//EN" "http://www.w3.org/Graphics/SVG/1.1/DTD/svg11.dtd">
<svg version="1.1" id="Layer_1" xmlns="http://www.w3.org/2000/svg" xmlns:xlink="http://www.w3.org/1999/xlink" x="0px" y="0px"
	 width="100px" height="100px" viewBox="270 190 100 100" enable-background="new 270 190 100 100" xml:space="preserve">
<g>
	<circle cx="319.866" cy="244.017" r="10.711"/>
	<path d="M347.716,223.933L347.716,223.933h-11.782l-2.41-6.427c-0.268-0.803-1.339-1.607-2.142-1.607h-23.029
		c-1.071,0-1.875,0.536-2.142,1.607l-2.41,6.427h-11.783c-2.142,0-4.017,1.874-4.017,4.017v32.134c0,2.142,1.875,4.017,4.017,4.017
		h55.967c2.142,0,4.017-1.875,4.017-4.017V227.95C352,225.272,350.661,223.933,347.716,223.933z M319.866,260.084
		c-8.837,0-16.067-7.23-16.067-16.067c0-8.837,7.23-16.067,16.067-16.067c8.837,0,16.067,7.23,16.067,16.067
		C335.933,252.854,328.703,260.084,319.866,260.084z"/>
</g>
</svg>
