<?xml version="1.0" encoding="utf-8"?>
<!-- Generator: Adobe Illustrator 17.0.0, SVG Export Plug-In . SVG Version: 6.00 Build 0)  -->
<!DOCTYPE svg PUBLIC "-//W3C//DTD SVG 1.1//EN" "http://www.w3.org/Graphics/SVG/1.1/DTD/svg11.dtd">
<svg version="1.1" id="Layer_1" xmlns="http://www.w3.org/2000/svg" xmlns:xlink="http://www.w3.org/1999/xlink" x="0px" y="0px"
	 width="100px" height="100px" viewBox="270 190 100 100" enable-background="new 270 190 100 100" xml:space="preserve">
<g>
	<path d="M304.362,256.362c0,4.557,3.728,8.285,8.285,8.285c4.557,0,8.285-3.728,8.285-8.285c0-0.621,0-1.243-0.207-1.864
		c-1.657-0.414-3.107-2.071-3.107-3.935v-0.621c-1.45-1.036-3.107-1.657-4.971-1.657
		C308.091,248.078,304.362,251.806,304.362,256.362z"/>
	<path d="M325.074,256.362c0,6.835-5.592,12.427-12.427,12.427s-12.427-5.592-12.427-12.427c0-6.835,5.592-12.427,12.427-12.427
		c1.864,0,3.521,0.414,4.971,1.036v-10.356h-13.877c-0.829,0-1.45,0.414-1.657,1.243l-1.864,4.971h-9.113
		c-1.657,0-3.107,1.45-3.107,3.107v24.854c0,1.657,1.45,3.107,3.107,3.107h43.288c1.657,0,3.107-1.45,3.107-3.107v-14.084h-12.634
		C325.074,255.327,325.074,255.741,325.074,256.362z"/>
	<path d="M350.964,208.104h-28.997c-0.621,0-1.036,0.414-1.036,1.036v41.424c0,0.621,0.414,1.036,1.036,1.036h28.997
		c0.621,0,1.036-0.414,1.036-1.036v-41.424C352,208.518,351.379,208.104,350.964,208.104z M344.751,240.207h-16.57v-2.278h16.57
		V240.207z M336.466,235.858l-8.285-7.663h4.764v-6.628h7.042v6.628h4.764L336.466,235.858z"/>
</g>
</svg>
