<?xml version="1.0" encoding="utf-8"?>
<!-- Generator: Adobe Illustrator 17.0.0, SVG Export Plug-In . SVG Version: 6.00 Build 0)  -->
<!DOCTYPE svg PUBLIC "-//W3C//DTD SVG 1.1//EN" "http://www.w3.org/Graphics/SVG/1.1/DTD/svg11.dtd">
<svg version="1.1" id="Слой_1" xmlns="http://www.w3.org/2000/svg" xmlns:xlink="http://www.w3.org/1999/xlink" x="0px" y="0px"
	 width="100px" height="100px" viewBox="270 190 100 100" enable-background="new 270 190 100 100" xml:space="preserve">
<g transform="translate(20.87 2149.98)">
	<path d="M331.114-1921.734c-0.015-0.725-0.614-1.301-1.34-1.287c0,0,0,0-0.001,0h-0.429l-7.908,3.243l0,0
		c-0.146-0.26-0.255-0.54-0.322-0.831c-0.09-0.775-0.09-1.557,0-2.332l0,0c1.355-1.364,2.133-3.198,2.171-5.12
		c-0.146-4.439-3.863-7.919-8.302-7.772c-1.65,0.054-3.244,0.616-4.564,1.607c-1.213,0.966-2.14,2.245-2.681,3.699
		c-0.859,2.636-1.24,5.405-1.126,8.176c-0.004,0.746,0.241,1.473,0.697,2.064c0.653,0.823,1.631,1.322,2.681,1.367h0.241
		l-0.134,0.214l-9.623,14.368h-2.815l-8.685-1.421h-0.831c-0.946,0.018-1.871,0.286-2.681,0.777
		c-0.725,0.484-1.375,1.071-1.93,1.742l0,0l-16.083,17.933c-0.207,0.227-0.322,0.524-0.322,0.831
		c0.015,0.725,0.615,1.301,1.34,1.287c0,0,0,0,0,0h7.345c0.311,0.002,0.614-0.102,0.858-0.295l13.403-10.963l0,0l10.186,3.994
		c0.703,0.326,1.539,0.028,1.876-0.67c0.143-0.324,0.143-0.694,0-1.019c-0.158-0.335-0.45-0.589-0.804-0.697l-11.017-4.289
		c-0.462-0.176-0.982-0.094-1.367,0.214l-13.563,11.151h-3.94l0.214-0.214l14.019-15.52c0.437-0.529,0.942-0.997,1.501-1.394
		c0.493-0.338,1.106-0.455,1.689-0.322l8.819,1.421h3.029l7.693,17.745c0.314,0.647,1.069,0.949,1.742,0.697
		c0.319-0.139,0.57-0.4,0.697-0.724c0.128-0.309,0.128-0.656,0-0.965l-2.681-6.353l0,0l13.617-20.292
		c0.262-0.418,0.262-0.949,0-1.367c-0.26-0.429-0.731-0.685-1.233-0.67c-0.445,0.014-0.855,0.244-1.099,0.617l-12.652,18.764
		l-3.806-8.712l0,0l5.71-8.551l0,0c7.505-3.056,21.739-8.873,22.061-9.033C331.049-1920.926,331.178-1921.333,331.114-1921.734
		L331.114-1921.734z M318.355-1920.072c0.102,0.436,0.255,0.859,0.456,1.26l0,0l-7.72,3.136l2.278-3.404
		c0.137-0.207,0.212-0.449,0.214-0.697v-1.421c-0.118-0.427-0.439-0.768-0.858-0.911c-0.469-0.2-1.008-0.139-1.421,0.161
		c-0.243,0.167-0.516,0.285-0.804,0.348h-0.509c-0.223,0.025-0.442-0.079-0.563-0.268c-0.1-0.146-0.173-0.31-0.214-0.482l0,0
		c-0.099-2.415,0.228-4.828,0.965-7.13c0.343-1.041,0.964-1.968,1.796-2.68c0.931-0.702,2.079-1.053,3.243-0.992
		c2.879-0.002,5.246,2.27,5.361,5.147c-0.007,1.479-0.664,2.881-1.796,3.833c-0.261,0.233-0.416,0.562-0.429,0.911
		C318.213-1922.203,318.213-1921.131,318.355-1920.072L318.355-1920.072z"/>
	<path d="M288.601-1909.886c7.499,0.075,13.658-5.905,13.805-13.403c-0.021-3.615-1.523-7.064-4.155-9.543
		c-2.609-2.543-6.114-3.958-9.757-3.94l0,0c-3.643-0.017-7.148,1.398-9.757,3.94c-2.586,2.49-4.047,5.926-4.048,9.516
		c0.132,7.549,6.359,13.562,13.908,13.43C288.598-1909.886,288.599-1909.886,288.601-1909.886L288.601-1909.886z M288.601-1934.225
		c6.009,0.148,10.76,5.139,10.612,11.148c-0.148,6.009-5.139,10.76-11.148,10.611c-5.903-0.146-10.613-4.972-10.615-10.876
		c0.074-6.084,5.065-10.957,11.149-10.883C288.6-1934.225,288.6-1934.225,288.601-1934.225z"/>
</g>
</svg>
