<?xml version="1.0" encoding="utf-8"?>
<!-- Generator: Adobe Illustrator 17.0.0, SVG Export Plug-In . SVG Version: 6.00 Build 0)  -->
<!DOCTYPE svg PUBLIC "-//W3C//DTD SVG 1.1//EN" "http://www.w3.org/Graphics/SVG/1.1/DTD/svg11.dtd">
<svg version="1.1" id="Слой_1" xmlns="http://www.w3.org/2000/svg" xmlns:xlink="http://www.w3.org/1999/xlink" x="0px" y="0px"
	 width="100px" height="100px" viewBox="270 190 100 100" enable-background="new 270 190 100 100" xml:space="preserve">
<path d="M351.23,267.443l-15.395-15.397c9.43-11.528,7.73-28.519-3.796-37.95c-11.526-9.431-28.514-7.731-37.944,3.797
	c-9.43,11.528-7.73,28.519,3.796,37.95c9.938,8.131,24.23,8.126,34.162-0.012l15.394,15.384c1.038,1.043,2.725,1.047,3.767,0.009
	c1.043-1.038,1.047-2.725,0.009-3.768L351.23,267.443z M314.97,256.556c-11.941-0.003-21.619-9.687-21.616-21.63
	c0.003-11.943,9.686-21.623,21.627-21.62c11.941,0.003,21.619,9.687,21.616,21.63l0,0
	C336.581,246.874,326.906,256.546,314.97,256.556z"/>
</svg>
