<?xml version="1.0" encoding="utf-8"?>
<!-- Generator: Adobe Illustrator 17.0.0, SVG Export Plug-In . SVG Version: 6.00 Build 0)  -->
<!DOCTYPE svg PUBLIC "-//W3C//DTD SVG 1.1//EN" "http://www.w3.org/Graphics/SVG/1.1/DTD/svg11.dtd">
<svg version="1.1" id="Слой_1" xmlns="http://www.w3.org/2000/svg" xmlns:xlink="http://www.w3.org/1999/xlink" x="0px" y="0px"
	 width="100px" height="100px" viewBox="270 190 100 100" enable-background="new 270 190 100 100" xml:space="preserve">
<g transform="translate(212 1521.84)">
	<g transform="translate(0 0.16)">
		<path d="M136.711-1288.716l-4.48-0.751c-0.465-1.506-1.069-2.965-1.804-4.358l2.646-3.704c1.127-1.571,0.949-3.73-0.421-5.093
			l-3.984-3.984c-0.738-0.748-1.743-1.17-2.793-1.17c-0.82-0.003-1.621,0.254-2.287,0.735l-3.715,2.648
			c-1.44-0.769-2.951-1.395-4.512-1.87l-0.754-4.433c-0.32-1.911-1.972-3.308-3.904-3.303h-5.655
			c-1.932-0.006-3.585,1.392-3.904,3.303l-0.776,4.543c-1.503,0.473-2.958,1.088-4.344,1.839l-3.675-2.648
			c-1.574-1.124-3.727-0.943-5.093,0.427l-3.997,3.976c-1.365,1.366-1.543,3.521-0.421,5.093l2.665,3.757
			c-0.73,1.397-1.326,2.861-1.778,4.372l-4.437,0.748c-1.904,0.321-3.296,1.976-3.289,3.912v5.633
			c-0.002,1.937,1.396,3.59,3.302,3.904l4.544,0.775c0.473,1.504,1.089,2.959,1.839,4.345l-2.633,3.663
			c-1.125,1.573-0.943,3.732,0.429,5.093l3.984,3.984c1.362,1.368,3.511,1.547,5.079,0.422l3.755-2.672
			c1.353,0.705,2.767,1.287,4.224,1.737l0.749,4.492c0.32,1.911,1.972,3.308,3.904,3.303h5.642c1.933,0.007,3.586-1.391,3.904-3.303
			l0.762-4.492c1.505-0.464,2.964-1.068,4.357-1.804l3.702,2.648c1.573,1.125,3.726,0.947,5.093-0.422l3.984-3.984
			c1.367-1.364,1.549-3.519,0.429-5.093l-2.646-3.717c0.737-1.393,1.341-2.852,1.804-4.358l4.491-0.748
			c1.906-0.314,3.304-1.967,3.302-3.904v-5.627c0.024-1.936-1.369-3.597-3.275-3.904L136.711-1288.716z M136.405-1279.19
			c0.002,0.173-0.123,0.321-0.293,0.347l-5.615,0.935c-0.704,0.118-1.271,0.642-1.444,1.336c-0.505,1.972-1.288,3.862-2.327,5.611
			c-0.363,0.613-0.331,1.383,0.08,1.964l3.302,4.652c0.094,0.142,0.077,0.331-0.04,0.454l-3.984,3.984
			c-0.12,0.126-0.315,0.143-0.456,0.04l-4.637-3.295c-0.582-0.411-1.351-0.443-1.964-0.08c-1.746,1.038-3.631,1.821-5.596,2.327
			c-0.693,0.168-1.218,0.737-1.332,1.443l-0.949,5.611c-0.027,0.171-0.174,0.296-0.346,0.294h-5.628
			c-0.172,0.002-0.32-0.123-0.346-0.294l-0.935-5.611c-0.119-0.703-0.642-1.27-1.332-1.443c-1.918-0.501-3.761-1.257-5.479-2.247
			c-0.277-0.157-0.59-0.24-0.909-0.24c-0.374-0.002-0.739,0.115-1.042,0.334l-4.677,3.329c-0.059,0.04-0.128,0.063-0.2,0.067
			c-0.1,0.003-0.196-0.036-0.267-0.107l-3.984-3.984c-0.119-0.123-0.136-0.313-0.04-0.454l3.289-4.612
			c0.41-0.587,0.441-1.359,0.08-1.977c-1.048-1.74-1.841-3.621-2.353-5.588c-0.183-0.688-0.746-1.208-1.444-1.336l-5.655-0.962
			c-0.17-0.027-0.295-0.175-0.293-0.347v-5.627c-0.002-0.173,0.123-0.321,0.293-0.347l5.575-0.935
			c0.707-0.116,1.279-0.64,1.458-1.336c0.492-1.97,1.262-3.86,2.287-5.611c0.359-0.611,0.322-1.377-0.093-1.951l-3.329-4.679
			c-0.096-0.142-0.079-0.332,0.04-0.454l3.984-3.99c0.12-0.126,0.315-0.143,0.456-0.04l4.605,3.295
			c0.588,0.41,1.359,0.441,1.977,0.08c1.743-1.049,3.628-1.842,5.596-2.354c0.685-0.183,1.203-0.745,1.332-1.443l0.97-5.654
			c0.027-0.171,0.174-0.296,0.346-0.294h5.628c0.172-0.002,0.32,0.123,0.346,0.294l0.935,5.574c0.117,0.707,0.64,1.279,1.332,1.456
			c2.014,0.506,3.945,1.299,5.735,2.354c0.613,0.363,1.382,0.332,1.964-0.08l4.61-3.316c0.059-0.04,0.128-0.063,0.2-0.067
			c0.1-0.003,0.196,0.036,0.267,0.107l3.984,3.984c0.118,0.123,0.135,0.312,0.04,0.454l-3.302,4.639
			c-0.411,0.581-0.443,1.351-0.08,1.964c1.038,1.75,1.821,3.639,2.327,5.611c0.169,0.697,0.738,1.224,1.444,1.336l5.615,0.949
			c0.17,0.026,0.295,0.175,0.293,0.347v5.628L136.405-1279.19z"/>
	</g>
	<path d="M107.999-1295.656c-7.606,0.019-13.757,6.218-13.738,13.844c0.019,7.627,6.201,13.794,13.807,13.775
		c7.593-0.019,13.738-6.196,13.738-13.809C121.796-1289.483,115.614-1295.665,107.999-1295.656z M107.999-1271.645
		c-5.615-0.013-10.156-4.588-10.143-10.218c0.013-5.63,4.576-10.183,10.191-10.17c5.606,0.013,10.143,4.573,10.143,10.194
		C118.182-1276.202,113.62-1271.639,107.999-1271.645z"/>
</g>
</svg>
