<?xml version="1.0" encoding="utf-8"?>
<!-- Generator: Adobe Illustrator 17.0.0, SVG Export Plug-In . SVG Version: 6.00 Build 0)  -->
<!DOCTYPE svg PUBLIC "-//W3C//DTD SVG 1.1//EN" "http://www.w3.org/Graphics/SVG/1.1/DTD/svg11.dtd">
<svg version="1.1" id="Слой_1" xmlns="http://www.w3.org/2000/svg" xmlns:xlink="http://www.w3.org/1999/xlink" x="0px" y="0px"
	 width="100px" height="100px" viewBox="270 190 100 100" enable-background="new 270 190 100 100" xml:space="preserve">
<g transform="translate(-540 3403.995)">
	<path d="M867.593-3163.932"/>
	<path d="M853.595-3187.338l-11.66,8.863H831.2c-1.781,0.021-3.211,1.477-3.2,3.258v22.59c0.001,1.772,1.428,3.214,3.2,3.234h10.666
		l11.732,8.74c0.963,0.741,2.266,0.862,3.349,0.312c1.089-0.558,1.771-1.682,1.763-2.906v-41.497
		c0.009-1.224-0.673-2.348-1.763-2.906C855.863-3188.201,854.558-3188.08,853.595-3187.338z"/>
	<path d="M871.66-3179.213c-0.758-0.939-1.987-1.361-3.162-1.085c-1.178,0.288-2.091,1.217-2.36,2.4
		c-0.272,1.182,0.14,2.417,1.067,3.2c5.873,5.984,5.873,15.568,0,21.552c-1.209,1.263-1.209,3.254,0,4.517
		c1.186,1.224,3.139,1.255,4.362,0.069c0.023-0.023,0.046-0.046,0.069-0.069c8.392-8.466,8.403-22.11,0.024-30.589L871.66-3179.213z
		"/>
	<path d="M882.808-3186.348c-1.166-1.224-3.104-1.27-4.328-0.104c-0.035,0.034-0.07,0.068-0.104,0.104
		c-1.209,1.263-1.209,3.254,0,4.517c9.795,9.98,9.795,25.966,0,35.946c-0.878,0.928-1.135,2.281-0.659,3.466
		c0.474,1.181,1.602,1.97,2.874,2.008c0.831,0.002,1.628-0.327,2.216-0.915c12.256-12.5,12.256-32.509,0-45.009V-3186.348z"/>
</g>
</svg>
