<?xml version="1.0" encoding="utf-8"?>
<!-- Generator: Adobe Illustrator 17.0.0, SVG Export Plug-In . SVG Version: 6.00 Build 0)  -->
<!DOCTYPE svg PUBLIC "-//W3C//DTD SVG 1.1//EN" "http://www.w3.org/Graphics/SVG/1.1/DTD/svg11.dtd">
<svg version="1.1" id="Layer_1" xmlns="http://www.w3.org/2000/svg" xmlns:xlink="http://www.w3.org/1999/xlink" x="0px" y="0px"
	 width="100px" height="100px" viewBox="270 190 100 100" enable-background="new 270 190 100 100" xml:space="preserve">
<g>
	<g>
		<path d="M321.548,208.516c-1.032,0-2.065,0-3.097,0C301.419,209.032,288,222.968,288,240s13.419,30.968,30.452,31.484
			c0.516,0,1.032,0,1.548,0s1.032,0,1.548,0C338.581,270.71,352,257.032,352,240S338.581,209.032,321.548,208.516z M320,267.871
			L320,267.871c-0.516,0-0.774,0-1.032,0c-14.71-0.774-26.323-12.903-26.323-27.613c0-14.71,11.613-27.097,26.323-27.871
			c0.516,0,1.032,0,1.548,0c0.258,0,0.516,0,0.774,0c11.355,0.258,20.903,7.226,25.032,17.29c0.258,0.774,0.516,1.29,0.774,2.065
			V232c0.258,0.774,0.516,1.548,0.516,2.323c0.516,1.806,0.516,3.871,0.516,5.935c0,2.065-0.258,3.871-0.516,5.935
			c-0.258,0.774-0.258,1.548-0.516,2.323v0.258c-0.258,0.774-0.516,1.29-0.774,2.065c-4.129,9.806-13.677,16.774-25.032,17.29l0,0
			c-0.258,0-0.516,0-0.774,0H320V267.871z"/>
	</g>
	<g>
		<g>
			<path d="M344.774,249.806c-0.258,0.774-1.032,1.548-1.806,1.548h-0.258c0,0-0.258,0-0.516,0l-4.903-2.065
				c-1.032-0.516-1.548-1.548-1.032-2.581c0.258-1.032,1.548-1.548,2.581-1.032l4.129,1.806l0,0l0.774,0.258
				C344.516,248,345.032,248.774,344.774,249.806z"/>
		</g>
		<g>
			<path d="M304.516,247.742c0,0.774-0.516,1.29-1.29,1.548l-4.645,2.065c-0.258,0-0.516,0-0.516,0h-0.258
				c-0.774,0-1.548-0.774-1.806-1.548c-0.258-1.032,0.258-1.806,1.032-2.065l5.419-2.323v0.258c0.516,0,0.774,0,1.29,0.258
				C304.258,246.452,304.516,247.226,304.516,247.742z"/>
		</g>
		<g>
			<path d="M337.29,223.226L337.29,223.226c-0.774-0.774-2.065-0.774-2.839,0l-11.613,11.613c-0.774-0.258-1.548-0.516-2.581-0.516
				c-3.097,0-5.935,2.581-5.935,5.935c0,3.355,2.581,5.935,5.935,5.935c3.355,0,5.935-2.581,5.935-5.935
				c0-0.774-0.258-1.806-0.516-2.581l11.613-11.871C337.806,225.29,337.806,224,337.29,223.226z M320.258,242.065
				c-1.032,0-2.065-0.774-2.065-2.065s0.774-2.065,2.065-2.065c1.032,0,2.065,0.774,2.065,2.065c0,0.516-0.258,1.032-0.516,1.29
				C321.29,241.806,320.774,242.065,320.258,242.065z"/>
		</g>
		<g>
			<path d="M304.258,233.548c-0.258,0.774-1.032,1.29-1.806,1.29c-0.258,0-0.516,0-0.774,0l-4.645-2.323
				c-0.774-0.258-1.29-0.774-1.29-1.548c0-0.774,0.258-1.29,0.774-1.806c0.516-0.516,1.29-0.516,2.065-0.258l4.645,2.065
				C304.258,231.226,304.516,232.516,304.258,233.548z"/>
		</g>
		<g>
			<path d="M345.032,230.968c0,0.774-0.516,1.29-1.29,1.548l-4.645,2.065c-0.258,0-0.516,0.258-0.774,0.258
				c-0.774,0-1.548-0.516-1.806-1.29c0-0.258-0.258-0.516-0.258-0.774c0-0.774,0.516-1.548,1.29-1.806l4.645-2.065
				c0.516-0.258,1.29-0.258,2.065,0.258C344.774,229.677,345.032,230.194,345.032,230.968z"/>
		</g>
		<g>
			<path d="M314.581,223.484c-0.516,0.516-1.032,0.774-1.548,0.774h-0.258c-0.774,0-1.29-0.516-1.548-1.29l-2.065-4.903
				c-0.258-1.032,0-2.065,1.032-2.581s2.065,0,2.581,1.032l2.065,4.903C315.097,222.194,314.839,222.968,314.581,223.484z"/>
		</g>
		<g>
			<path d="M331.613,218.065l-2.065,4.645c-0.258,0.516-0.516,0.774-1.032,1.032c-0.258,0-0.516,0.258-0.774,0.258
				c-0.258,0-0.516,0-0.774-0.258c-0.516-0.258-0.774-0.516-1.032-1.032c-0.258-0.516-0.258-1.032,0-1.548l2.065-4.645
				c0.516-1.032,1.548-1.29,2.581-1.032C331.355,216,331.871,217.29,331.613,218.065z"/>
		</g>
		<g>
			<path d="M331.871,249.806h-23.226c-1.032,0-2.065,0.774-2.065,2.065v7.742c0,1.032,0.774,2.065,2.065,2.065h23.226
				c1.032,0,2.065-0.774,2.065-2.065v-7.742C333.935,250.581,332.903,249.806,331.871,249.806z M330.065,253.677v3.871H310.71
				v-3.871H330.065z"/>
		</g>
	</g>
</g>
</svg>
