<?xml version="1.0" encoding="utf-8"?>
<!-- Generator: Adobe Illustrator 17.0.0, SVG Export Plug-In . SVG Version: 6.00 Build 0)  -->
<!DOCTYPE svg PUBLIC "-//W3C//DTD SVG 1.1//EN" "http://www.w3.org/Graphics/SVG/1.1/DTD/svg11.dtd">
<svg version="1.1" id="Слой_1" xmlns="http://www.w3.org/2000/svg" xmlns:xlink="http://www.w3.org/1999/xlink" x="0px" y="0px"
	 width="100px" height="100px" viewBox="270 190 100 100" enable-background="new 270 190 100 100" xml:space="preserve">
<g transform="translate(2598.993 5404.945)">
	<path d="M-2298.109-5187.955h20.779c0.089-0.002,0.177-0.016,0.263-0.042l-3.235,5.401c-0.275,0.504-0.09,1.135,0.414,1.41
		c0.475,0.259,1.07,0.11,1.367-0.343l4.156-6.936c0.196-0.329,0.196-0.739,0-1.067l-4.156-6.936
		c-0.31-0.482-0.953-0.623-1.436-0.313c-0.462,0.296-0.614,0.902-0.345,1.381l3.235,5.401c-0.085-0.025-0.174-0.039-0.263-0.041
		h-20.779c-0.575,0-1.041,0.466-1.041,1.04c0,0.575,0.466,1.041,1.041,1.041V-5187.955z"/>
	<path d="M-2305.992-5175.246c0.085,0.025,0.174,0.039,0.263,0.041h20.783c0.574,0,1.04-0.466,1.04-1.04
		c0-0.575-0.466-1.041-1.04-1.041h-20.779c-0.089,0.002-0.177,0.016-0.263,0.041l3.235-5.401c0.28-0.5,0.102-1.134-0.399-1.414
		c-0.479-0.268-1.085-0.117-1.382,0.346l-4.156,6.936c-0.197,0.329-0.197,0.74,0,1.069l4.156,6.936
		c0.314,0.48,0.958,0.614,1.438,0.3c0.453-0.297,0.602-0.892,0.342-1.367L-2305.992-5175.246z"/>
	<path d="M-2249.681-5161.625l-14.685-8.975l1.96-7.338c0.644-2.402-0.782-4.872-3.184-5.515s-4.872,0.782-5.515,3.184l0,0
		l-4.843,18.18c-0.264,1.026-1.258,1.689-2.307,1.539l-1.461-3.024c-1.157-2.412-4.05-3.43-6.463-2.274l-0.637,0.305
		c-2.408,1.166-3.421,4.058-2.265,6.471l7.675,16l-0.955,3.579c-0.164,0.551,0.149,1.13,0.7,1.294c0.551,0.164,1.13-0.149,1.294-0.7
		c0.005-0.018,0.01-0.035,0.014-0.053l1.06-3.954c0.057-0.232,0.033-0.478-0.07-0.694l-7.847-16.344
		c-0.659-1.378-0.08-3.03,1.295-3.695l0.637-0.306c1.378-0.662,3.032-0.082,3.695,1.296c0,0,0,0.001,0,0.001l1.683,3.468
		c0.136,0.279,0.39,0.482,0.692,0.554l0.188,0.048c2.217,0.593,4.496-0.723,5.089-2.94c0.003-0.012,0.006-0.023,0.009-0.035
		l4.848-18.178c0.387-1.282,1.74-2.007,3.022-1.62c1.225,0.37,1.951,1.629,1.659,2.875l-4.264,15.953
		c-0.164,0.55,0.149,1.13,0.7,1.294c0.551,0.165,1.13-0.149,1.294-0.7c0.005-0.018,0.01-0.035,0.014-0.053l1.745-6.52l3.338,2.04
		c-0.084,0.109-0.146,0.234-0.18,0.368l-1.787,6.692c-0.151,0.555,0.175,1.126,0.729,1.278c0.002,0,0.004,0.001,0.005,0.001
		c0.088,0.023,0.179,0.035,0.27,0.034c0.471,0,0.883-0.315,1.005-0.771l1.745-6.519l3.353,2.081
		c-0.097,0.115-0.168,0.25-0.208,0.395l-1.78,6.666c-0.164,0.55,0.149,1.13,0.7,1.294c0.551,0.165,1.13-0.149,1.294-0.7
		c0.005-0.018,0.01-0.035,0.014-0.053l1.745-6.52l3.269,1.999l-4.329,16.167l-5.978,5.306c-0.151,0.135-0.259,0.311-0.311,0.506
		l-1.06,3.953c-0.164,0.551,0.149,1.13,0.7,1.294c0.551,0.164,1.13-0.149,1.294-0.7c0.005-0.017,0.01-0.035,0.014-0.053l0.977-3.648
		l5.978-5.306c0.151-0.135,0.259-0.311,0.311-0.506l4.602-17.227C-2249.056-5160.893-2249.26-5161.388-2249.681-5161.625z"/>
</g>
</svg>
