<?xml version="1.0" encoding="utf-8"?>
<!-- Generator: Adobe Illustrator 17.0.0, SVG Export Plug-In . SVG Version: 6.00 Build 0)  -->
<!DOCTYPE svg PUBLIC "-//W3C//DTD SVG 1.1//EN" "http://www.w3.org/Graphics/SVG/1.1/DTD/svg11.dtd">
<svg version="1.1" id="Слой_1" xmlns="http://www.w3.org/2000/svg" xmlns:xlink="http://www.w3.org/1999/xlink" x="0px" y="0px"
	 width="100px" height="100px" viewBox="270 190 100 100" enable-background="new 270 190 100 100" xml:space="preserve">
<g transform="translate(392 5)">
	<path d="M-76.837,205.361c7.246-0.189,13.281,5.515,13.499,12.76v3.967c0.035,0.678,0.612,1.199,1.289,1.164
		c0.629-0.032,1.132-0.535,1.164-1.164v-3.999c-0.491-8.811-8.032-15.555-16.843-15.064c-8.125,0.453-14.611,6.939-15.064,15.064
		v4.958c0.035,0.678,0.612,1.199,1.289,1.164c0.629-0.032,1.132-0.535,1.164-1.164v-4.958
		C-90.102,210.857-84.071,205.171-76.837,205.361z"/>
	<path d="M-52.083,232.535l-19.488-5.412v-8.477c-0.161-2.937-2.673-5.187-5.61-5.026c-2.712,0.149-4.877,2.314-5.026,5.026v17.229
		h-0.131c-3.918-0.081-7.175,2.998-7.314,6.914v10.78c-0.002,0.041-0.002,0.082,0,0.123v0.216l0.05,0.109l0.058,0.093l0.074,0.101
		v0.054l6.742,7.409v4.13c0.024,0.678,0.594,1.208,1.272,1.183c0.644-0.023,1.16-0.54,1.183-1.183v-4.563
		c0.004-0.286-0.101-0.563-0.294-0.774l-6.742-7.409v-10.224c0.076-2.609,2.25-4.664,4.859-4.594h0.128v5.745
		c0.024,0.678,0.594,1.208,1.272,1.183c0.644-0.023,1.16-0.54,1.183-1.183v-25.338c0.084-1.582,1.434-2.796,3.015-2.712
		c1.465,0.077,2.635,1.248,2.712,2.712v18.413c0.042,0.678,0.626,1.193,1.304,1.151c0.619-0.039,1.112-0.532,1.151-1.151v-7.517
		l4.336,1.206v8.228c0.024,0.678,0.594,1.208,1.272,1.183c0.644-0.023,1.16-0.54,1.183-1.183v-7.517l4.336,1.206v8.205
		c0.035,0.678,0.612,1.199,1.289,1.164c0.629-0.032,1.132-0.535,1.164-1.164v-7.517l4.336,1.206v18.661l-5.089,7.425
		c-0.132,0.187-0.204,0.411-0.205,0.64v4.563c0.042,0.678,0.626,1.193,1.304,1.151c0.619-0.039,1.112-0.532,1.151-1.151v-4.215
		l5.195-7.439c0.132-0.187,0.204-0.411,0.205-0.64v-19.897C-51.213,233.128-51.571,232.668-52.083,232.535z"/>
</g>
</svg>
