<?xml version="1.0" encoding="utf-8"?>
<!-- Generator: Adobe Illustrator 17.0.0, SVG Export Plug-In . SVG Version: 6.00 Build 0)  -->
<!DOCTYPE svg PUBLIC "-//W3C//DTD SVG 1.1//EN" "http://www.w3.org/Graphics/SVG/1.1/DTD/svg11.dtd">
<svg version="1.1" id="Layer_1" xmlns="http://www.w3.org/2000/svg" xmlns:xlink="http://www.w3.org/1999/xlink" x="0px" y="0px"
	 width="100px" height="100px" viewBox="270 190 100 100" enable-background="new 270 190 100 100" xml:space="preserve">
<g id="gruppieren-328" transform="translate(1852.816 -78.973)">
	<path id="pfad" fill="#222222" d="M-1503.109,308.365c-0.355-1.42-1.775-2.13-3.195-1.775c-1.42,0.355-2.131,1.775-1.775,3.196
		c0,0,0,0,0,0.355c5.326,13.492-1.775,28.76-15.268,34.086c-13.493,5.326-28.76-1.775-34.086-15.268s1.775-28.76,15.268-34.086
		c6.036-2.485,12.783-2.13,18.818,0l-1.775,3.196c-0.355,0.71,0,1.42,0.71,1.065l8.521-1.42c0.71,0,1.42-0.71,1.065-1.42v-0.355
		l-2.841-8.166c-0.355-1.065-1.065-1.065-1.42,0l-1.775,2.84c-15.978-6.746-34.441,0.71-41.188,16.688s0.71,34.441,16.688,41.187
		c15.978,6.746,34.441-0.71,41.188-16.688C-1500.269,324.343-1500.269,315.822-1503.109,308.365L-1503.109,308.365z"/>
	<path id="pfad-2" fill="#222222" d="M-1533.29,301.619c-1.42,0-2.485,1.065-2.485,2.486v17.043c0,0.355,0,0.71,0.355,0.71
		l15.622,8.166c0.355,0.355,0.71,0.355,1.065,0.355l0,0c1.42,0,2.485-1.065,2.485-2.485c0-1.065-0.355-1.775-1.42-2.13
		l-13.493-6.746V304.46C-1530.804,302.684-1531.87,301.619-1533.29,301.619L-1533.29,301.619z"/>
</g>
</svg>
