<?xml version="1.0" encoding="utf-8"?>
<!-- Generator: Adobe Illustrator 17.0.0, SVG Export Plug-In . SVG Version: 6.00 Build 0)  -->
<!DOCTYPE svg PUBLIC "-//W3C//DTD SVG 1.1//EN" "http://www.w3.org/Graphics/SVG/1.1/DTD/svg11.dtd">
<svg version="1.1" id="Слой_1" xmlns="http://www.w3.org/2000/svg" xmlns:xlink="http://www.w3.org/1999/xlink" x="0px" y="0px"
	 width="100px" height="100px" viewBox="270 190 100 100" enable-background="new 270 190 100 100" xml:space="preserve">
<g id="gruppieren-23" transform="translate(2630 196)">
	<path id="pfad" d="M-2289.203,53.054c-2.898,0.104-5.164,2.538-5.06,5.436c0.104,2.898,2.538,5.163,5.436,5.059
		c2.825-0.101,5.063-2.421,5.063-5.248c-0.047-2.945-2.472-5.295-5.417-5.248C-2289.188,53.053-2289.195,53.054-2289.203,53.054z"/>
	<path id="pfad-2" d="M-2289.722,31.234h-9.404c-0.694-0.012-1.266,0.54-1.28,1.234v24.084c0.014,0.694,0.586,1.245,1.28,1.234
		h1.358c0.627,0.016,1.171-0.431,1.276-1.049c0.768-4.025,4.654-6.666,8.679-5.898c2.989,0.57,5.327,2.908,5.898,5.898
		c0.106,0.618,0.649,1.065,1.276,1.049h1.358c0.694,0.012,1.266-0.54,1.28-1.234V44.51c0-0.292-0.106-0.574-0.299-0.793
		l-10.439-12.042c-0.247-0.283-0.605-0.445-0.981-0.444L-2289.722,31.234z M-2297.843,41.115v-6.179
		c0.014-0.694,0.586-1.245,1.28-1.234h5.639c0.377-0.002,0.737,0.16,0.985,0.444l5.333,6.179c0.318,0.363,0.386,0.882,0.174,1.315
		c-0.219,0.439-0.668,0.715-1.159,0.711h-10.968c-0.694,0.012-1.266-0.54-1.28-1.234L-2297.843,41.115z"/>
	<path id="pfad-3" d="M-2340.72,57.789h3.278c0.626,0.016,1.169-0.429,1.276-1.045c0.768-4.025,4.654-6.666,8.68-5.897
		c2.989,0.57,5.327,2.908,5.897,5.897c0.107,0.617,0.65,1.062,1.276,1.045h16.077c0.694,0.012,1.266-0.54,1.28-1.234V25.681
		c-0.014-0.694-0.586-1.246-1.28-1.234h-36.485c-0.694-0.012-1.266,0.54-1.28,1.234v30.875
		C-2341.986,57.249-2341.414,57.801-2340.72,57.789z"/>
	<path id="pfad-4" d="M-2328.881,53.054c-2.898,0.106-5.162,2.542-5.056,5.44c0.106,2.898,2.542,5.162,5.44,5.056
		c2.822-0.103,5.057-2.42,5.059-5.244c-0.044-2.945-2.468-5.296-5.413-5.252C-2328.861,53.053-2328.871,53.053-2328.881,53.054z"/>
</g>
</svg>
