<?xml version="1.0" encoding="utf-8"?>
<!-- Generator: Adobe Illustrator 17.0.0, SVG Export Plug-In . SVG Version: 6.00 Build 0)  -->
<!DOCTYPE svg PUBLIC "-//W3C//DTD SVG 1.1//EN" "http://www.w3.org/Graphics/SVG/1.1/DTD/svg11.dtd">
<svg version="1.1" id="Layer_1" xmlns="http://www.w3.org/2000/svg" xmlns:xlink="http://www.w3.org/1999/xlink" x="0px" y="0px"
	 width="100px" height="100px" viewBox="270 190 100 100" enable-background="new 270 190 100 100" xml:space="preserve">
<path id="pfad-25" fill="#E6E6E6" stroke="#E6E6E6" stroke-width="0.0508" d="M340.581,226.428
	c-0.266-0.266-0.531-0.531-1.062-0.266h-7.967v-6.108c0-1.593-1.062-2.656-2.656-2.656h-38.241c-1.593,0-2.656,1.062-2.656,2.656
	v32.398c0,1.593,1.062,2.656,2.656,2.656h4.78v0.266c0.531,4.515,4.78,7.701,9.56,7.17c3.718-0.531,6.639-3.452,7.17-7.17v-0.266
	h20.183v0.266c0.531,4.515,4.78,7.701,9.56,7.17c3.718-0.531,6.639-3.452,7.17-7.17v-0.266h0.266c1.593,0,2.656-1.062,2.656-2.656
	v-14.075c0-0.266,0-0.797-0.266-1.062L340.581,226.428z M303.934,259.888c-3.187,0-5.842-2.656-5.842-5.842
	c0-3.187,2.656-5.842,5.842-5.842c3.187,0,5.842,2.656,5.842,5.842C309.776,257.232,307.12,259.888,303.934,259.888L303.934,259.888
	z M329.162,252.452h-16.996l0,0c-0.797-4.515-5.046-7.701-9.56-6.905c-3.718,0.531-6.373,3.452-6.905,6.905h-4.78v-32.398h38.241
	V252.452z M331.817,228.552h7.436l8.498,8.763h-15.934V228.552z M345.095,258.029c-1.062,1.062-2.656,1.859-4.249,1.859
	c-3.187,0-5.842-2.656-5.842-5.842c0-3.187,2.656-5.842,5.842-5.842s5.842,2.656,5.842,5.842
	C346.689,255.374,346.158,256.967,345.095,258.029L345.095,258.029z M349.61,252.984l-0.266-1.593
	c-1.062-4.515-5.842-7.17-10.357-6.108c-3.187,0.797-5.577,3.452-6.108,6.905v0.266h-0.797v-12.216h17.527L349.61,252.984z"/>
</svg>
