<?xml version="1.0" encoding="utf-8"?>
<!-- Generated by IcoMoon.io -->
<!DOCTYPE svg PUBLIC "-//W3C//DTD SVG 1.1//EN" "http://www.w3.org/Graphics/SVG/1.1/DTD/svg11.dtd">
<svg version="1.1" xmlns="http://www.w3.org/2000/svg" xmlns:xlink="http://www.w3.org/1999/xlink" width="47" height="32" viewBox="0 0 47 32">
<path fill="#000" d="M31.312 0.477c-0.302-0.295-0.716-0.477-1.172-0.477-0.452 0-0.862 0.179-1.164 0.469-0.3 0.289-0.487 0.696-0.487 1.146 0 0.446 0.183 0.848 0.478 1.137l11.882 11.637h-39.188c-0.006-0-0.014-0-0.022-0-0.447 0-0.853 0.177-1.151 0.465-0.3 0.289-0.487 0.694-0.488 1.143 0.011 0.9 0.742 1.625 1.644 1.625 0.006 0 0.012-0 0.018-0h39.187l-11.882 11.612c-0.295 0.293-0.477 0.699-0.477 1.147s0.182 0.854 0.477 1.147c0.301 0.298 0.715 0.481 1.172 0.481s0.871-0.184 1.173-0.482l14.759-14.446c0.293-0.29 0.475-0.693 0.475-1.137s-0.182-0.847-0.475-1.137z"></path>
</svg>
