<?xml version="1.0" encoding="utf-8"?>
<!-- Generated by IcoMoon.io -->
<!DOCTYPE svg PUBLIC "-//W3C//DTD SVG 1.1//EN" "http://www.w3.org/Graphics/SVG/1.1/DTD/svg11.dtd">
<svg version="1.1" xmlns="http://www.w3.org/2000/svg" xmlns:xlink="http://www.w3.org/1999/xlink" width="47" height="32" viewBox="0 0 47 32">
<path fill="#000" d="M15.235 0.477c0.301-0.293 0.714-0.474 1.168-0.474 0.45 0 0.859 0.177 1.16 0.466 0.3 0.289 0.487 0.696 0.487 1.145 0 0.446-0.183 0.848-0.478 1.137l-11.882 11.637h39.188c0.006-0 0.013-0 0.021-0 0.447 0 0.854 0.177 1.152 0.465 0.299 0.289 0.486 0.694 0.487 1.143-0.011 0.9-0.742 1.625-1.644 1.625-0.006 0-0.012-0-0.019-0h-39.179l11.882 11.612c0.294 0.293 0.476 0.699 0.476 1.147s-0.182 0.854-0.476 1.147c-0.301 0.298-0.715 0.481-1.172 0.481s-0.871-0.184-1.172-0.481l-14.761-14.446c-0.293-0.29-0.475-0.693-0.475-1.137s0.182-0.847 0.475-1.137z"></path>
</svg>
