<?xml version="1.0" encoding="utf-8"?>
<!-- Generated by IcoMoon.io -->
<!DOCTYPE svg PUBLIC "-//W3C//DTD SVG 1.1//EN" "http://www.w3.org/Graphics/SVG/1.1/DTD/svg11.dtd">
<svg version="1.1" xmlns="http://www.w3.org/2000/svg" xmlns:xlink="http://www.w3.org/1999/xlink" width="32" height="32" viewBox="0 0 32 32">
<path fill="#000" d="M28.032 12.416c0 0.512-0.384 1.024-1.024 1.024h-22.016c0 0-0.128 0-0.128 0-0.256 0-0.64-0.128-0.768-0.384-0.256-0.384-0.256-0.896 0-1.152 0.128-0.384 0.512-0.512 0.896-0.384h22.016c0.512 0 1.024 0.384 1.024 0.896z"></path>
<path fill="#000" d="M13.312 16.64v9.856c0 0.512-0.384 1.024-1.024 1.024v0c-0.256 0-0.512-0.128-0.64-0.384s-0.256-0.512-0.256-0.768v-7.424l-0.896 0.896c-0.384 0.384-1.024 0.256-1.28 0-0.384-0.384-0.384-0.896-0.128-1.28l2.432-2.432c0.256-0.256 0.64-0.384 1.024-0.256 0.512 0 0.768 0.384 0.768 0.768z"></path>
<path fill="#000" d="M20.864 21.632c0.896 1.024 1.152 2.432 0.64 3.712s-1.792 2.048-3.072 2.048h-2.56c-0.256 0-0.64-0.128-0.768-0.384-0.256-0.384-0.256-0.768 0-1.024 0.256-0.384 0.64-0.512 0.896-0.384h2.432c0.64 0 1.152-0.384 1.408-0.896s0.128-1.152-0.384-1.664c-0.256-0.256-0.64-0.384-1.024-0.384h-2.432c-0.512 0-1.024-0.384-1.024-1.024v-4.992c0-0.512 0.384-1.024 1.024-1.024h4.864c0.512 0 1.024 0.384 1.024 1.024 0 0.512-0.384 1.024-1.024 1.024h-3.968v2.944h1.536c0.896 0 1.792 0.384 2.432 1.024z"></path>
<path d="M31.744 11.264v17.152c0 1.92-1.536 3.328-3.456 3.328h-24.576c-1.92 0-3.456-1.536-3.456-3.328v-17.152c0.128-0.64 0.512-1.024 1.024-1.024s1.024 0.384 1.024 1.024v17.152c0 0.384 0.128 0.768 0.384 1.024s0.64 0.384 1.024 0.384c0 0 0 0 0 0h24.448c0.768 0 1.408-0.64 1.536-1.408v-17.152c0-0.256 0.128-0.512 0.256-0.64 0.256-0.256 0.512-0.384 0.768-0.384 0.512 0 1.024 0.384 1.024 1.024z"></path>
<path d="M24.064 3.712c0 0.128 0 0.256 0 0.384v-0.768c0 0.128 0 0.256 0 0.384z"></path>
<path d="M24.064 3.328c0 0.128 0 0.256 0 0.384s0 0.256 0 0.384v2.304c0 0.512-0.384 1.024-1.024 1.024-0.512 0-1.024-0.384-1.024-1.024v-1.792h-11.392c-0.384 0-0.768-0.384-0.768-0.896s0.384-1.024 1.024-1.024h11.392v-1.408c0-0.512 0.512-1.024 1.024-1.024s1.024 0.384 1.024 1.024v2.048z"></path>
<path d="M31.744 6.144v2.688c0 0.512-0.384 1.024-1.024 1.024h-29.44c-0.512 0-1.024-0.384-1.024-1.024v-2.688c0-0.896 0.384-1.792 1.024-2.304 0.64-0.64 1.536-1.024 2.432-1.024 0 0 0 0 0 0h4.224v-1.536c0-0.256 0.128-0.512 0.256-0.64s0.384-0.256 0.64-0.256c0.512 0 1.024 0.384 1.024 1.024v5.12c0 0.384-0.128 0.64-0.384 0.896-0.384 0.256-0.768 0.256-1.024 0-0.384-0.256-0.64-0.64-0.512-1.024v-1.792h-4.224c-0.384 0-0.768 0.256-1.024 0.512s-0.384 0.64-0.384 1.024v1.664h27.392v-1.664c0-0.384-0.128-0.768-0.384-1.024s-0.64-0.384-1.024-0.384h-3.2c-0.384 0-0.768-0.256-0.896-0.64v-0.768c0.128-0.384 0.512-0.64 0.896-0.64h3.072c0.896 0 1.792 0.384 2.432 1.024s1.024 1.408 1.152 2.432z"></path>
</svg>
