<?xml version="1.0" encoding="utf-8"?>
<!-- Generated by IcoMoon.io -->
<!DOCTYPE svg PUBLIC "-//W3C//DTD SVG 1.1//EN" "http://www.w3.org/Graphics/SVG/1.1/DTD/svg11.dtd">
<svg version="1.1" xmlns="http://www.w3.org/2000/svg" xmlns:xlink="http://www.w3.org/1999/xlink" width="32" height="32" viewBox="0 0 32 32">
<path fill="#000" d="M8.253 8.235c0.736 0 1.333-0.597 1.333-1.333v-5.573c0-0.736-0.597-1.333-1.333-1.333s-1.333 0.597-1.333 1.333v5.579c0.003 0.734 0.599 1.328 1.333 1.328 0 0 0 0 0 0z"></path>
<path fill="#000" d="M23.616 8.235c0.736 0 1.333-0.597 1.333-1.333v-5.573c0-0.736-0.597-1.333-1.333-1.333s-1.333 0.597-1.333 1.333v5.579c0.003 0.734 0.599 1.328 1.333 1.328 0 0 0 0 0 0z"></path>
<path fill="#000" d="M22.501 25.531c-0.736 0.632-1.7 1.017-2.753 1.017-0.078 0-0.156-0.002-0.233-0.006-0.051 0.003-0.123 0.004-0.196 0.004-0.849 0-1.658-0.167-2.398-0.469l0.042-1.966c0.654 0.417 1.45 0.664 2.304 0.664 0.003 0 0.005 0 0.008 0 0.041 0.003 0.089 0.004 0.137 0.004 0.495 0 0.951-0.166 1.316-0.445 0.313-0.271 0.513-0.674 0.513-1.125 0-0.019-0-0.037-0.001-0.055 0-1.048-0.744-1.565-2.219-1.565-0.629 0.010-1.236 0.058-1.832 0.142l0.078-5.934h5.867v1.899h-3.853v2.133c0.131-0.007 0.284-0.012 0.439-0.012s0.308 0.004 0.46 0.013c0.041-0.005 0.114-0.007 0.187-0.007 0.895 0 1.714 0.324 2.346 0.861 0.563 0.541 0.915 1.306 0.915 2.154 0 0.049-0.001 0.099-0.004 0.148 0.003 0.047 0.005 0.109 0.005 0.173 0 0.986-0.426 1.872-1.103 2.485zM15.011 26.355h-6.643v-1.832h2.192v-6.563l-2.245 0.491v-1.912l4.571-0.917v8.912h2.179v1.832zM30.605 2.856h-2.989v3.984c0 2.201-1.784 3.985-3.985 3.985s-3.985-1.784-3.985-3.985v-3.984h-7.352v3.984c0 2.201-1.784 3.985-3.985 3.985s-3.985-1.784-3.985-3.985v-3.984h-2.989c-0.736 0-1.333 0.597-1.333 1.333v26.488c0 0.736 0.597 1.333 1.333 1.333h29.333c0.736 0 1.333-0.597 1.333-1.333v-26.493c0-0.736-0.597-1.333-1.333-1.333z"></path>
</svg>
