<?xml version="1.0" encoding="utf-8"?>
<!-- Generated by IcoMoon.io -->
<!DOCTYPE svg PUBLIC "-//W3C//DTD SVG 1.1//EN" "http://www.w3.org/Graphics/SVG/1.1/DTD/svg11.dtd">
<svg version="1.1" xmlns="http://www.w3.org/2000/svg" xmlns:xlink="http://www.w3.org/1999/xlink" width="16" height="32" viewBox="0 0 16 32">
<path fill="#000" d="M15.673 15.143l-13.744-14.786c-0.198-0.22-0.483-0.357-0.8-0.357s-0.602 0.138-0.799 0.356c-0.206 0.227-0.332 0.529-0.332 0.86s0.126 0.633 0.332 0.861l12.943 13.923-12.942 13.925c-0.206 0.226-0.332 0.528-0.332 0.859s0.126 0.633 0.333 0.86c0.197 0.216 0.479 0.353 0.794 0.358 0.317-0.002 0.6-0.14 0.795-0.358l13.743-14.785c0.205-0.226 0.331-0.527 0.331-0.857s-0.126-0.632-0.332-0.858z"></path>
</svg>
