<?xml version="1.0" encoding="utf-8"?>
<!-- Generated by IcoMoon.io -->
<!DOCTYPE svg PUBLIC "-//W3C//DTD SVG 1.1//EN" "http://www.w3.org/Graphics/SVG/1.1/DTD/svg11.dtd">
<svg version="1.1" xmlns="http://www.w3.org/2000/svg" xmlns:xlink="http://www.w3.org/1999/xlink" width="24" height="32" viewBox="0 0 24 32">
<path fill="#000" d="M1.959 31.284c0.002 0.393 0.321 0.711 0.714 0.711 0.001 0 0.002 0 0.004 0h18.226c0.001 0 0.002 0 0.003 0 0.393 0 0.712-0.318 0.714-0.711v-23.023h-19.661zM15.83 12.175h2.695v15.495h-2.695zM10.44 12.175h2.695v15.495h-2.695zM5.051 12.175h2.695v15.495h-2.695z"></path>
<path fill="#000" d="M17.843 3.267v-2.557c-0.002-0.393-0.321-0.711-0.714-0.711-0.001 0-0.002 0-0.004 0h-10.668c-0.001 0-0.002 0-0.003 0-0.393 0-0.712 0.318-0.714 0.711v3.446h-5.019c-0.001 0-0.002 0-0.003 0-0.393 0-0.712 0.318-0.714 0.711v1.802c0.002 0.393 0.321 0.711 0.714 0.711 0.001 0 0.002 0 0.004 0h22.142c0 0 0.001 0 0.002 0 0.393 0 0.712-0.318 0.714-0.711v-1.802c-0.002-0.393-0.321-0.711-0.714-0.711-0.001 0-0.002 0-0.004 0h-5.019zM15.148 4.010h-6.718v-1.347h6.718z"></path>
</svg>
