<?xml version="1.0" encoding="utf-8"?>
<!-- Generated by IcoMoon.io -->
<!DOCTYPE svg PUBLIC "-//W3C//DTD SVG 1.1//EN" "http://www.w3.org/Graphics/SVG/1.1/DTD/svg11.dtd">
<svg version="1.1" xmlns="http://www.w3.org/2000/svg" xmlns:xlink="http://www.w3.org/1999/xlink" width="32" height="32" viewBox="0 0 32 32">
<path fill="#000" d="M32 1.882l-1.882-1.882c1.040 1.040 1.040 2.725 0 3.765l-26.353 26.353c-1.040 1.040-2.725 1.040-3.765 0l1.882 1.882c-1.040-1.040-1.040-2.725 0-3.765l26.353-26.353c1.040-1.040 2.725-1.040 3.765 0z"></path>
<path fill="#000" d="M1.882-0l-1.882 1.882c1.040-1.040 2.725-1.040 3.765 0l26.353 26.353c1.040 1.040 1.040 2.725 0 3.765l1.882-1.882c-1.040 1.040-2.725 1.040-3.765 0l-26.353-26.353c-1.040-1.040-1.040-2.725 0-3.765z"></path>
</svg>
