<?xml version="1.0" encoding="utf-8"?>
<!-- Generated by IcoMoon.io -->
<!DOCTYPE svg PUBLIC "-//W3C//DTD SVG 1.1//EN" "http://www.w3.org/Graphics/SVG/1.1/DTD/svg11.dtd">
<svg version="1.1" xmlns="http://www.w3.org/2000/svg" xmlns:xlink="http://www.w3.org/1999/xlink" width="42" height="32" viewBox="0 0 42 32">
<path fill="#000" d="M41.745 14.531l-1.987-4.682c-0.144-0.334-0.468-0.565-0.846-0.57h-3.456c-0 0-0 0-0 0-0.515 0-0.933 0.418-0.933 0.933 0 0.006 0 0.012 0 0.018v2.677h-1.935v-2.246c0-0.005 0-0.011 0-0.017 0-0.515-0.418-0.933-0.933-0.933-0 0-0 0-0 0h-4.095v-4.233c0-0.005 0-0.011 0-0.017 0-0.515-0.418-0.933-0.933-0.933-0 0-0 0-0 0h-7.205v-2.212h7.205c0.467-0.065 0.822-0.462 0.822-0.942s-0.355-0.876-0.817-0.941l-16.247-0.001c-0.467 0.065-0.822 0.462-0.822 0.942s0.355 0.877 0.817 0.941l7.21 0.001v2.212h-7.205c-0 0-0 0-0 0-0.515 0-0.933 0.418-0.933 0.933 0 0.006 0 0.012 0 0.018v1.606h-3.456c-0 0-0 0-0 0-0.515 0-0.933 0.418-0.933 0.933 0 0.006 0 0.012 0 0.018v7.895h-2.765v-7.896c0-0.515-0.418-0.933-0.933-0.933s-0.933 0.418-0.933 0.933v17.676c0 0.515 0.418 0.933 0.933 0.933s0.933-0.418 0.933-0.933v-7.896h2.765v7.896c-0 0.005-0 0.011-0 0.017 0 0.515 0.418 0.933 0.933 0.933 0 0 0 0 0 0h5.512l5.546 4.683c0.162 0.139 0.373 0.224 0.605 0.225h14.048c0 0 0 0 0 0 0.515 0 0.933-0.418 0.933-0.933 0-0.006-0-0.012-0-0.018v-4.232h1.935v2.626c-0 0.005-0 0.011-0 0.017 0 0.515 0.418 0.933 0.933 0.933 0 0 0 0 0 0h3.456c0.376-0.002 0.698-0.226 0.844-0.547l2.059-4.688c0.012-0.057 0.019-0.123 0.019-0.19s-0.007-0.133-0.020-0.196l0.001-9.359c0.012-0.057 0.019-0.123 0.019-0.19s-0.007-0.133-0.020-0.196zM39.914 24.173l-1.728 3.853h-1.883v-2.626c0-0.005 0-0.011 0-0.017 0-0.515-0.418-0.933-0.933-0.933-0 0-0 0-0 0h-3.801c-0 0-0 0-0 0-0.515 0-0.933 0.418-0.933 0.933 0 0.006 0 0.012 0 0.018v4.232h-12.786l-5.477-4.631c-0.162-0.139-0.373-0.224-0.605-0.225h-4.838v-15.845h3.456c0 0 0 0 0 0 0.515 0 0.933-0.418 0.933-0.933 0-0.006-0-0.012-0-0.018v-1.606h14.41v4.233c-0 0.005-0 0.011-0 0.017 0 0.515 0.418 0.933 0.933 0.933 0 0 0 0 0 0h4.095v2.246c-0 0.005-0 0.011-0 0.017 0 0.515 0.418 0.933 0.933 0.933 0 0 0 0 0 0h3.801c0 0 0 0 0 0 0.515 0 0.933-0.418 0.933-0.933 0-0.006-0-0.012-0-0.018v-2.625h1.849l1.728 4.026z"></path>
</svg>
