<?xml version="1.0" encoding="utf-8"?>
<!-- Generated by IcoMoon.io -->
<!DOCTYPE svg PUBLIC "-//W3C//DTD SVG 1.1//EN" "http://www.w3.org/Graphics/SVG/1.1/DTD/svg11.dtd">
<svg version="1.1" xmlns="http://www.w3.org/2000/svg" xmlns:xlink="http://www.w3.org/1999/xlink" width="32" height="32" viewBox="0 0 32 32">
<path fill="#000" d="M23.249 3.004c-4.049-4.049-10.71-4.049-14.759 0-3.657 4.049-4.049 10.057-1.045 14.498l8.359 12.147 8.359-12.016c3.135-4.571 2.743-10.58-0.914-14.629zM22.596 16.457l-6.661 9.665-6.661-9.665c-2.482-3.657-2.22-8.49 0.653-11.886l0.131-0.131c3.265-3.265 8.62-3.265 11.755 0 3.004 3.396 3.265 8.359 0.784 12.016z"></path>
<path fill="#000" d="M32 27.037c0 1.437-1.437 2.612-4.31 3.527-3.788 0.914-7.837 1.437-11.755 1.437s-7.837-0.522-11.624-1.437c-2.873-0.914-4.31-2.090-4.31-3.527 0-2.351 3.788-4.18 9.665-4.963 0.522 0 1.045 0.392 1.175 0.914 0 0.261 0 0.522-0.131 0.784s-0.392 0.392-0.653 0.392c-5.878 0.653-7.837 2.482-7.837 2.873 0 0.653 4.18 2.873 13.976 2.873s13.976-2.22 13.976-2.873c0-0.392-2.090-2.22-7.837-2.873-0.261 0-0.522-0.131-0.653-0.392s-0.261-0.522-0.261-0.784 0.131-0.522 0.392-0.653c0.261-0.131 0.522-0.261 0.784-0.261 5.616 0.784 9.404 2.743 9.404 4.963z"></path>
<path fill="#000" d="M15.935 15.412c-2.743 0-5.094-2.22-5.094-5.094s2.22-5.094 5.094-5.094 5.094 2.22 5.094 5.094-2.351 5.094-5.094 5.094zM15.935 7.184c-1.698 0-3.135 1.437-3.135 3.135s1.437 3.135 3.135 3.135 3.135-1.437 3.135-3.135-1.437-3.135-3.135-3.135z"></path>
</svg>
