<?xml version="1.0" encoding="utf-8"?>
<!-- Generated by IcoMoon.io -->
<!DOCTYPE svg PUBLIC "-//W3C//DTD SVG 1.1//EN" "http://www.w3.org/Graphics/SVG/1.1/DTD/svg11.dtd">
<svg version="1.1" xmlns="http://www.w3.org/2000/svg" xmlns:xlink="http://www.w3.org/1999/xlink" width="43" height="32" viewBox="0 0 43 32">
<path fill="#000" d="M40.895 12.557q0-1.237-0.18-3.143c-0.106-1.288-0.274-2.448-0.505-3.584-0.19-0.928-0.731-1.897-1.491-2.645-0.719-0.73-1.679-1.219-2.751-1.338-3.845-0.381-8.287-0.598-12.779-0.598-0.684 0-1.368 0.005-2.050 0.015-0.475-0.010-1.158-0.015-1.842-0.015-4.492 0-8.934 0.216-13.316 0.639-0.536 0.074-1.498 0.563-2.213 1.295-0.716 0.757-1.219 1.72-1.41 2.791-0.219 0.99-0.393 2.148-0.49 3.329q-0.17 2.001-0.187 3.238t0 3.441v3.441q0 1.237 0.18 3.143c0.105 1.286 0.272 2.446 0.505 3.581 0.19 0.93 0.731 1.9 1.491 2.647 0.719 0.73 1.679 1.219 2.751 1.338 3.845 0.381 8.287 0.598 12.779 0.598 0.684 0 1.368-0.005 2.050-0.015 0.476 0.010 1.158 0.015 1.843 0.015 4.492 0 8.934-0.216 13.315-0.639 0.536-0.074 1.497-0.563 2.213-1.295 0.755-0.751 1.291-1.72 1.506-2.805 0.22-0.991 0.394-2.149 0.491-3.33q0.17-1.987 0.187-3.239t0-3.441q-0.071-2.19-0.097-3.427zM29.027 17.26l-11.226 7.365c-0.197 0.146-0.444 0.233-0.712 0.233-0.013 0-0.026-0-0.038-0.001-0.248-0.008-0.481-0.077-0.684-0.192-0.427-0.234-0.716-0.688-0.716-1.21 0-0.029 0.001-0.057 0.003-0.085l-0-14.729c-0-0.009-0-0.020-0-0.031 0-0.536 0.286-1.005 0.713-1.263 0.198-0.117 0.428-0.183 0.674-0.183 0.285 0 0.55 0.090 0.766 0.243l11.222 7.362c0.404 0.272 0.667 0.728 0.667 1.245s-0.263 0.973-0.662 1.241z"></path>
</svg>
