<?xml version="1.0" encoding="utf-8"?>
<!-- Generated by IcoMoon.io -->
<!DOCTYPE svg PUBLIC "-//W3C//DTD SVG 1.1//EN" "http://www.w3.org/Graphics/SVG/1.1/DTD/svg11.dtd">
<svg version="1.1" xmlns="http://www.w3.org/2000/svg" xmlns:xlink="http://www.w3.org/1999/xlink" width="55" height="32" viewBox="0 0 55 32">
<path fill="#000" d="M45.836 3.504h-36.743c-0.005-0-0.011-0-0.016-0-0.847 0-1.614 0.341-2.171 0.893-0.558 0.556-0.903 1.325-0.903 2.175 0 0.002 0 0.004 0 0.007v18.828c0 0.002 0 0.004 0 0.006 0 0.85 0.345 1.619 0.903 2.175 0.557 0.552 1.324 0.893 2.171 0.893 0.006 0 0.012-0 0.017-0h11.19c0.018 0.001 0.040 0.001 0.061 0.001 0.903 0 1.679-0.543 2.020-1.32l2.505-6.263c0.446-0.945 1.39-1.588 2.485-1.588 0.016 0 0.033 0 0.049 0.001 1.107 0.018 2.054 0.693 2.469 1.652l2.178 6.099c0.345 0.832 1.148 1.409 2.086 1.416h11.606c0.005 0 0.011 0 0.016 0 0.847 0 1.614-0.341 2.171-0.893 0.558-0.556 0.903-1.325 0.903-2.175 0-0.002 0-0.004 0-0.007v-18.746c0.006-0.070 0.009-0.152 0.009-0.234 0-0.782-0.307-1.493-0.807-2.018-0.535-0.556-1.287-0.902-2.119-0.902-0.028 0-0.057 0.001-0.085 0.001zM18.279 21.417c-0.002 0-0.004 0-0.005 0-2.624 0-4.752-2.126-4.755-4.749 0.031-2.614 2.145-4.725 4.758-4.749 2.617 0.025 4.731 2.135 4.762 4.746-0.004 2.626-2.131 4.75-4.755 4.75-0.002 0-0.004 0-0.006 0zM36.651 21.417c-0.002 0-0.004 0-0.005 0-2.624 0-4.752-2.126-4.755-4.749 0.031-2.614 2.145-4.725 4.758-4.749 2.617 0.025 4.731 2.135 4.762 4.746-0.004 2.626-2.131 4.75-4.755 4.75-0.002 0-0.004 0-0.005 0z"></path>
</svg>
