<?xml version="1.0" encoding="utf-8"?>
<!-- Generated by IcoMoon.io -->
<!DOCTYPE svg PUBLIC "-//W3C//DTD SVG 1.1//EN" "http://www.w3.org/Graphics/SVG/1.1/DTD/svg11.dtd">
<svg version="1.1" xmlns="http://www.w3.org/2000/svg" xmlns:xlink="http://www.w3.org/1999/xlink" width="28" height="32" viewBox="0 0 28 32">
<path fill="#000" d="M27.973 8.883c-0.001-0.355-0.141-0.678-0.369-0.917l-6.973-7.541c-0.24-0.262-0.585-0.426-0.967-0.426-0.012 0-0.023 0-0.035 0l-17.433-0c-1.215 0.014-2.195 1.001-2.197 2.217v27.566c0.002 1.217 0.982 2.204 2.196 2.217h23.601c1.215-0.014 2.195-1.001 2.197-2.217zM8.473 22.083h-1.079v1.467c0.004 0.022 0.006 0.047 0.006 0.073 0 0.121-0.049 0.23-0.127 0.31s-0.187 0.129-0.307 0.129c-0.025 0-0.050-0.002-0.074-0.006l-0.576 0c-0.021 0.004-0.046 0.006-0.071 0.006-0.12 0-0.229-0.049-0.307-0.129s-0.127-0.189-0.127-0.31c0-0.026 0.002-0.051 0.006-0.076l-0-5.316c-0.004-0.022-0.006-0.047-0.006-0.073 0-0.121 0.049-0.23 0.127-0.31s0.187-0.129 0.307-0.129c0.025 0 0.050 0.002 0.074 0.006l2.116-0c0.013-0 0.028-0 0.043-0 0.574 0 1.091 0.243 1.454 0.631 0.34 0.363 0.547 0.85 0.547 1.386 0 0.057-0.002 0.113-0.007 0.169 0.006 0.050 0.010 0.117 0.010 0.185 0 0.519-0.199 0.991-0.524 1.345-0.357 0.386-0.867 0.627-1.434 0.627-0.017 0-0.034-0-0.050-0.001zM14.073 24.008h-1.749c-0.021 0.004-0.046 0.006-0.071 0.006-0.12 0-0.229-0.049-0.307-0.129s-0.127-0.189-0.127-0.31c0-0.026 0.002-0.051 0.006-0.075l-0-5.309c-0.004-0.022-0.006-0.047-0.006-0.073 0-0.121 0.049-0.23 0.127-0.31s0.187-0.129 0.307-0.129c0.025 0 0.050 0.002 0.074 0.006l1.731-0c0.060-0.004 0.129-0.006 0.199-0.006 1.129 0 2.117 0.601 2.662 1.501 0.292 0.48 0.46 1.043 0.46 1.646s-0.168 1.166-0.46 1.646c-0.545 0.899-1.533 1.5-2.662 1.5-0.070 0-0.14-0.002-0.209-0.007zM22.087 19.075h-1.829v1.333h1.408c0.021-0.004 0.046-0.006 0.071-0.006 0.12 0 0.229 0.049 0.307 0.129s0.127 0.189 0.127 0.31c0 0.026-0.002 0.051-0.006 0.075l0 0.329c0.004 0.022 0.006 0.047 0.006 0.073 0 0.121-0.049 0.23-0.127 0.31s-0.187 0.129-0.307 0.129c-0.025 0-0.050-0.002-0.074-0.006l-1.405 0v1.845c0.004 0.022 0.006 0.047 0.006 0.073 0 0.121-0.049 0.23-0.127 0.31s-0.187 0.129-0.307 0.129c-0.025 0-0.050-0.002-0.074-0.006l-0.576 0c-0.021 0.004-0.046 0.006-0.071 0.006-0.12 0-0.229-0.049-0.307-0.129s-0.127-0.189-0.127-0.31c0-0.026 0.002-0.051 0.006-0.076l-0-5.323c-0.004-0.022-0.006-0.047-0.006-0.073 0-0.121 0.049-0.23 0.127-0.31s0.187-0.129 0.307-0.129c0.025 0 0.050 0.002 0.074 0.006l2.865-0c0.021-0.004 0.046-0.006 0.071-0.006 0.12 0 0.229 0.049 0.307 0.129s0.127 0.189 0.127 0.31c0 0.026-0.002 0.051-0.006 0.075l0 0.329c0 0.005 0 0.011 0 0.017 0 0.124-0.051 0.236-0.134 0.316-0.077 0.074-0.182 0.119-0.298 0.119-0.014 0-0.028-0.001-0.041-0.002zM26.040 9.307h-4.565c-1.215-0.014-2.195-1.001-2.197-2.217v-4.952c0.007-0.057 0.047-0.103 0.099-0.12 0.014-0.005 0.029-0.007 0.045-0.007 0.042 0 0.080 0.018 0.106 0.047l6.579 6.997c0.119 0.080 0.079 0.239-0.040 0.239z"></path>
<path fill="#000" d="M8.119 19.053h-0.789v1.713h0.789c0.010 0 0.022 0.001 0.034 0.001 0.224 0 0.425-0.097 0.564-0.251 0.124-0.137 0.199-0.319 0.199-0.518 0-0.038-0.003-0.075-0.008-0.112 0.006-0.029 0.009-0.068 0.009-0.107 0-0.403-0.327-0.729-0.729-0.729-0.024 0-0.048 0.001-0.072 0.003z"></path>
<path fill="#000" d="M13.987 19.053h-0.605v3.64h0.619c0.032 0.002 0.069 0.004 0.106 0.004 0.466 0 0.885-0.199 1.178-0.517 0.267-0.29 0.43-0.677 0.43-1.102 0-0.082-0.006-0.162-0.018-0.241 0.010-0.053 0.015-0.125 0.015-0.198 0-0.428-0.168-0.817-0.442-1.104-0.286-0.3-0.69-0.487-1.137-0.487-0.051 0-0.101 0.002-0.151 0.007z"></path>
</svg>
