<?xml version="1.0" encoding="utf-8"?>
<!-- Generated by IcoMoon.io -->
<!DOCTYPE svg PUBLIC "-//W3C//DTD SVG 1.1//EN" "http://www.w3.org/Graphics/SVG/1.1/DTD/svg11.dtd">
<svg version="1.1" xmlns="http://www.w3.org/2000/svg" xmlns:xlink="http://www.w3.org/1999/xlink" width="32" height="32" viewBox="0 0 32 32">
<path fill="#000" d="M8.31 24.205c0 2.285 1.87 4.155 4.155 4.155s4.155-1.87 4.155-4.155c0-0.312 0-0.623-0.104-0.935-0.831-0.208-1.558-1.039-1.558-1.973v-0.312c-0.727-0.519-1.558-0.831-2.493-0.831-2.285-0.104-4.155 1.766-4.155 4.051z"></path>
<path fill="#000" d="M18.697 24.205c0 3.427-2.804 6.232-6.232 6.232s-6.232-2.804-6.232-6.232 2.804-6.232 6.232-6.232c0.935 0 1.766 0.208 2.493 0.519v-5.193h-6.959c-0.415 0-0.727 0.208-0.831 0.623l-0.935 2.493h-4.57c-0.831 0-1.558 0.727-1.558 1.558v12.464c0 0.831 0.727 1.558 1.558 1.558h21.707c0.831 0 1.558-0.727 1.558-1.558v-7.063h-6.336c0.104 0.312 0.104 0.519 0.104 0.831z"></path>
<path fill="#000" d="M31.679 0.005h-14.541c-0.312 0-0.519 0.208-0.519 0.519v20.773c0 0.312 0.208 0.519 0.519 0.519h14.541c0.312 0 0.519-0.208 0.519-0.519v-20.773c0-0.312-0.312-0.519-0.519-0.519zM28.564 16.104h-8.309v-1.142h8.309v1.142zM24.409 13.923l-4.155-3.843h2.389v-3.324h3.531v3.324h2.389l-4.155 3.843z"></path>
</svg>
