<?xml version="1.0" encoding="utf-8"?>
<!-- Generated by IcoMoon.io -->
<!DOCTYPE svg PUBLIC "-//W3C//DTD SVG 1.1//EN" "http://www.w3.org/Graphics/SVG/1.1/DTD/svg11.dtd">
<svg version="1.1" xmlns="http://www.w3.org/2000/svg" xmlns:xlink="http://www.w3.org/1999/xlink" width="43" height="32" viewBox="0 0 43 32">
<path fill="#000" d="M28.444 18.667c0 3.927-3.184 7.111-7.111 7.111s-7.111-3.184-7.111-7.111c0-3.927 3.184-7.111 7.111-7.111s7.111 3.184 7.111 7.111z"></path>
<path fill="#000" d="M39.822 5.333v0h-7.822l-1.6-4.267c-0.178-0.533-0.889-1.067-1.422-1.067h-15.289c-0.711 0-1.244 0.356-1.422 1.067l-1.6 4.267h-7.822c-1.422 0-2.667 1.244-2.667 2.667v21.333c0 1.422 1.244 2.667 2.667 2.667h37.156c1.422 0 2.667-1.244 2.667-2.667v-21.333c0-1.778-0.889-2.667-2.844-2.667zM21.333 29.333c-5.867 0-10.667-4.8-10.667-10.667s4.8-10.667 10.667-10.667 10.667 4.8 10.667 10.667-4.8 10.667-10.667 10.667z"></path>
</svg>
