<?xml version="1.0" encoding="utf-8"?>
<!-- Generated by IcoMoon.io -->
<!DOCTYPE svg PUBLIC "-//W3C//DTD SVG 1.1//EN" "http://www.w3.org/Graphics/SVG/1.1/DTD/svg11.dtd">
<svg version="1.1" xmlns="http://www.w3.org/2000/svg" xmlns:xlink="http://www.w3.org/1999/xlink" width="38" height="32" viewBox="0 0 38 32">
<path fill="#000" d="M37.669 9.152c-0.009-0.416-0.348-0.75-0.765-0.75-0.006 0-0.011 0-0.017 0h-0.249l-4.607 1.89c-0.080-0.139-0.144-0.301-0.185-0.472-0.027-0.216-0.042-0.452-0.042-0.692s0.014-0.475 0.042-0.707l-0.003 0.028c0.762-0.767 1.241-1.817 1.265-2.978-0.086-2.525-2.149-4.536-4.683-4.536-1.061 0-2.040 0.353-2.825 0.947-0.684 0.549-1.221 1.277-1.539 2.113-0.435 1.289-0.679 2.735-0.679 4.238 0 0.197 0.004 0.393 0.012 0.587-0.001-0.025-0.001-0.021-0.001-0.017 0 0.451 0.153 0.866 0.409 1.196 0.368 0.461 0.925 0.764 1.554 0.792l0.145 0-0.078 0.125-5.607 8.371h-1.64l-5.060-0.828h-0.484c-0.579 0.011-1.116 0.178-1.575 0.461-0.417 0.282-0.787 0.617-1.104 0.999l-0.007 0.009-9.37 10.448c-0.116 0.127-0.187 0.297-0.187 0.484 0 0 0 0 0 0 0.009 0.416 0.348 0.75 0.765 0.75 0.006 0 0.011-0 0.017-0h4.278c0.002 0 0.004 0 0.006 0 0.187 0 0.36-0.065 0.496-0.173l7.807-6.386 5.935 2.327c0.102 0.048 0.222 0.077 0.348 0.077 0.326 0 0.608-0.188 0.743-0.462 0.042-0.092 0.065-0.194 0.065-0.302s-0.023-0.209-0.065-0.301c-0.091-0.19-0.258-0.336-0.461-0.4l-6.424-2.5c-0.086-0.034-0.185-0.053-0.289-0.053-0.193 0-0.37 0.067-0.509 0.179l-7.901 6.496h-2.296l0.125-0.125 8.168-9.042c0.255-0.308 0.543-0.575 0.861-0.803 0.211-0.146 0.456-0.228 0.72-0.228 0.098 0 0.194 0.011 0.286 0.033l5.13 0.826h1.765l4.482 10.339c0.135 0.273 0.411 0.458 0.731 0.458 0.102 0 0.2-0.019 0.29-0.053 0.181-0.081 0.325-0.23 0.399-0.415 0.037-0.088 0.058-0.185 0.058-0.286s-0.021-0.198-0.058-0.286l-1.56-3.697 7.934-11.822c0.072-0.113 0.115-0.251 0.115-0.398s-0.043-0.285-0.116-0.401c-0.143-0.233-0.4-0.388-0.692-0.388-0.009 0-0.017 0-0.025 0-0.266 0.009-0.499 0.148-0.637 0.356l-7.373 10.935-2.218-5.076 3.326-4.982c4.373-1.78 12.666-5.169 12.853-5.263 0.131-0.135 0.212-0.319 0.212-0.523 0-0.042-0.003-0.082-0.010-0.122zM30.235 10.12c0.066 0.279 0.158 0.524 0.274 0.753l-0.009-0.019-4.498 1.827 1.327-1.983c0.077-0.114 0.123-0.255 0.125-0.406v-0.828c-0.071-0.25-0.256-0.446-0.494-0.529-0.103-0.045-0.217-0.069-0.337-0.069-0.187 0-0.359 0.061-0.499 0.163-0.131 0.091-0.288 0.162-0.457 0.2l-0.306 0.002c-0.012 0.001-0.025 0.002-0.039 0.002-0.121 0-0.227-0.063-0.289-0.157-0.056-0.082-0.099-0.176-0.125-0.277l-0.001-0.006c-0.006-0.147-0.010-0.319-0.010-0.491 0-1.309 0.209-2.569 0.596-3.748 0.186-0.541 0.547-1.068 1.018-1.473 0.482-0.367 1.087-0.586 1.743-0.586 0.053 0 0.106 0.001 0.158 0.004-0.007-0-0.006-0-0.005-0 1.681 0 3.052 1.328 3.121 2.992-0.004 0.901-0.408 1.7-1.042 2.236-0.151 0.135-0.246 0.323-0.254 0.533-0.040 0.281-0.062 0.603-0.062 0.931s0.023 0.65 0.066 0.966z"></path>
<path fill="#000" d="M12.9 16.055c0.024 0 0.052 0 0.080 0 4.344 0 7.876-3.478 7.963-7.801-0.013-2.199-0.939-4.171-2.417-5.564-1.46-1.423-3.452-2.299-5.65-2.299-0.014 0-0.027 0-0.041 0h0.002c-0.012-0-0.025-0-0.039-0-2.197 0-4.19 0.876-5.647 2.297-1.453 1.401-2.356 3.366-2.357 5.542 0.078 4.339 3.614 7.826 7.964 7.826 0.050 0 0.1-0 0.149-0.001zM12.9 1.874c3.434 0.087 6.184 2.892 6.184 6.339 0 3.502-2.839 6.341-6.341 6.341s-6.34-2.838-6.341-6.339c0.044-3.512 2.901-6.341 6.418-6.341 0.028 0 0.055 0 0.083 0.001z"></path>
</svg>
