<?xml version="1.0" encoding="utf-8"?>
<!-- Generated by IcoMoon.io -->
<!DOCTYPE svg PUBLIC "-//W3C//DTD SVG 1.1//EN" "http://www.w3.org/Graphics/SVG/1.1/DTD/svg11.dtd">
<svg version="1.1" xmlns="http://www.w3.org/2000/svg" xmlns:xlink="http://www.w3.org/1999/xlink" width="32" height="32" viewBox="0 0 32 32">
<path fill="#000" d="M31.652 29.757l-7.707-7.707c1.899-2.308 3.051-5.293 3.051-8.547 0-7.455-6.044-13.499-13.499-13.499s-13.499 6.044-13.499 13.499c0 7.455 6.044 13.499 13.499 13.499 3.258 0 6.246-1.154 8.578-3.075l7.684 7.718c0.242 0.243 0.576 0.393 0.945 0.393 0.737 0 1.334-0.597 1.334-1.334 0-0.367-0.148-0.7-0.388-0.941zM13.5 24.308c-5.977-0.002-10.821-4.847-10.821-10.824s4.846-10.824 10.824-10.824 10.824 4.846 10.824 10.824c0 0.001 0 0.002 0 0.003-0.008 5.975-4.851 10.816-10.826 10.821z"></path>
</svg>
