<?xml version="1.0" encoding="utf-8"?>
<!-- Generated by IcoMoon.io -->
<!DOCTYPE svg PUBLIC "-//W3C//DTD SVG 1.1//EN" "http://www.w3.org/Graphics/SVG/1.1/DTD/svg11.dtd">
<svg version="1.1" xmlns="http://www.w3.org/2000/svg" xmlns:xlink="http://www.w3.org/1999/xlink" width="32" height="32" viewBox="0 0 32 32">
<path fill="#000" d="M30.375 12.601l-2.241-0.375c-0.263-0.84-0.569-1.56-0.936-2.242l1.357-1.781c0.231-0.318 0.37-0.716 0.37-1.147 0-0.545-0.222-1.038-0.58-1.394l-1.993-1.988c-0.356-0.36-0.851-0.584-1.397-0.584-0.002 0-0.005 0-0.007 0-0.427 0-0.822 0.137-1.142 0.371l-1.853 1.317c-0.64-0.35-1.388-0.667-2.168-0.909l-0.466-2.236c-0.162-0.941-0.972-1.648-1.947-1.648-0.002 0-0.004 0-0.006 0h-2.829c-0.002 0-0.004 0-0.006 0-0.975 0-1.785 0.707-1.946 1.636l-0.39 2.278c-0.838 0.266-1.557 0.577-2.238 0.95l-1.774-1.354c-0.319-0.23-0.717-0.367-1.148-0.367-0.547 0-1.042 0.222-1.4 0.58l-2 1.984c-0.357 0.357-0.579 0.85-0.579 1.395 0 0.43 0.138 0.828 0.372 1.152l1.329 1.869c-0.332 0.618-0.635 1.341-0.866 2.094l-2.243 0.461c-0.94 0.162-1.645 0.971-1.645 1.945 0 0.003 0 0.005 0 0.008v2.81c0 0.001 0 0.001 0 0.002 0 0.976 0.709 1.787 1.64 1.944l2.285 0.388c0.267 0.836 0.578 1.553 0.952 2.232l-1.35 1.764c-0.23 0.318-0.368 0.715-0.368 1.145 0 0.546 0.223 1.040 0.583 1.396l1.994 1.988c0.357 0.357 0.85 0.579 1.395 0.579 0.43 0 0.828-0.138 1.152-0.372l1.873-1.329c0.596 0.318 1.295 0.612 2.024 0.842l0.464 2.266c0.162 0.941 0.972 1.648 1.947 1.648 0.002 0 0.004 0 0.006 0h2.822c0.002 0 0.005 0 0.007 0 0.975 0 1.785-0.707 1.945-1.636l0.383-2.253c0.842-0.262 1.564-0.567 2.248-0.933l1.784 1.355c0.319 0.23 0.718 0.368 1.15 0.368 0.546 0 1.040-0.221 1.398-0.579l1.993-1.988c0.359-0.357 0.581-0.851 0.581-1.397 0-0.429-0.137-0.826-0.37-1.15l-1.32-1.849c0.335-0.615 0.641-1.335 0.878-2.086l2.271-0.462c0.943-0.159 1.652-0.97 1.652-1.946 0-0.001 0-0.002 0-0.002v-2.808c0-0.007 0-0.016 0-0.025 0-0.967-0.704-1.769-1.628-1.922zM30.221 17.355c0 0.001 0 0.001 0 0.002 0 0.086-0.063 0.158-0.146 0.171l-2.81 0.467c-0.354 0.061-0.634 0.322-0.721 0.66-0.279 1.069-0.677 2-1.192 2.854-0.052 0.083-0.099 0.242-0.099 0.411 0 0.195 0.062 0.376 0.168 0.523l1.65 2.319c0.019 0.028 0.030 0.063 0.030 0.101 0 0.049-0.019 0.093-0.050 0.126l-1.993 1.988c-0.032 0.033-0.076 0.054-0.125 0.054-0.039 0-0.074-0.013-0.103-0.034l-2.32-1.644c-0.145-0.104-0.327-0.166-0.522-0.166-0.17 0-0.329 0.047-0.465 0.128-0.802 0.484-1.734 0.882-2.721 1.142-0.42 0.102-0.683 0.383-0.741 0.732l-0.475 2.805c-0.013 0.084-0.085 0.147-0.171 0.147-0.001 0-0.001 0-0.002 0h-2.816c-0.001 0-0.001 0-0.002 0-0.086 0-0.158-0.063-0.171-0.146l-0.468-2.801c-0.062-0.353-0.323-0.632-0.66-0.719-1.047-0.277-1.959-0.66-2.8-1.151-0.078-0.046-0.235-0.091-0.402-0.091-0.002 0-0.004 0-0.005 0-0.194 0-0.373 0.063-0.519 0.168l-2.337 1.66c-0.028 0.019-0.062 0.031-0.099 0.033-0.002 0-0.004 0-0.006 0-0.050 0-0.095-0.020-0.128-0.053l-1.993-1.988c-0.032-0.032-0.051-0.077-0.051-0.126 0-0.038 0.012-0.073 0.031-0.102l1.645-2.301c0.103-0.146 0.165-0.328 0.165-0.525 0-0.17-0.047-0.33-0.128-0.466-0.491-0.798-0.894-1.726-1.158-2.71-0.11-0.416-0.388-0.675-0.734-0.74l-2.835-0.481c-0.084-0.013-0.147-0.085-0.147-0.171 0-0.001 0-0.001 0-0.002v-2.808c0-0.001 0-0.001 0-0.002 0-0.086 0.063-0.158 0.146-0.171l2.79-0.467c0.356-0.060 0.638-0.321 0.728-0.66 0.272-1.068 0.664-2 1.172-2.855 0.050-0.080 0.096-0.236 0.096-0.402 0-0.196-0.064-0.378-0.171-0.525l-1.664-2.332c-0.019-0.028-0.031-0.063-0.031-0.101 0-0.049 0.019-0.093 0.051-0.126l1.993-1.991c0.032-0.033 0.076-0.054 0.125-0.054 0.039 0 0.074 0.013 0.103 0.034l2.304 1.644c0.147 0.103 0.329 0.165 0.526 0.165 0.171 0 0.331-0.046 0.468-0.127 0.802-0.49 1.733-0.892 2.722-1.155 0.416-0.11 0.674-0.386 0.74-0.731l0.486-2.827c0.013-0.084 0.085-0.147 0.171-0.147 0.001 0 0.001 0 0.002 0h2.816c0.001 0 0.001 0 0.002 0 0.086 0 0.158 0.063 0.171 0.146l0.468 2.782c0.061 0.355 0.322 0.636 0.66 0.725 1.094 0.278 2.050 0.681 2.925 1.204 0.082 0.052 0.241 0.098 0.411 0.098 0.196 0 0.377-0.062 0.525-0.168l2.304-1.653c0.028-0.019 0.062-0.031 0.099-0.033 0.002-0 0.004-0 0.006-0 0.050 0 0.095 0.020 0.128 0.053l1.993 1.988c0.031 0.033 0.051 0.077 0.051 0.126 0 0.038-0.011 0.073-0.031 0.102l-1.652 2.314c-0.104 0.145-0.166 0.326-0.166 0.521 0 0.169 0.047 0.328 0.128 0.463 0.486 0.802 0.885 1.734 1.145 2.722 0.103 0.421 0.384 0.683 0.734 0.74l2.814 0.474c0.084 0.013 0.147 0.085 0.147 0.171 0 0.001 0 0.001 0 0.002v2.808z"></path>
<path fill="#000" d="M16.009 9.059c-3.798 0.010-6.873 3.091-6.873 6.891 0 3.806 3.085 6.891 6.891 6.891s6.891-3.085 6.891-6.891c-0.005-3.807-3.093-6.891-6.9-6.891-0.003 0-0.006 0-0.008 0zM16.009 21.040c-2.804-0.007-5.075-2.282-5.075-5.087 0-2.809 2.277-5.087 5.087-5.087s5.087 2.277 5.087 5.087c-0.004 2.81-2.283 5.087-5.093 5.087-0.002 0-0.004 0-0.006 0z"></path>
</svg>
