<?xml version="1.0" encoding="utf-8"?>
<!-- Generated by IcoMoon.io -->
<!DOCTYPE svg PUBLIC "-//W3C//DTD SVG 1.1//EN" "http://www.w3.org/Graphics/SVG/1.1/DTD/svg11.dtd">
<svg version="1.1" xmlns="http://www.w3.org/2000/svg" xmlns:xlink="http://www.w3.org/1999/xlink" width="43" height="32" viewBox="0 0 43 32">
<path fill="#000" d="M17.060 0.436l-7.774 5.909h-7.157c-1.181 0.014-2.133 0.975-2.133 2.158 0 0.005 0 0.010 0 0.015v15.061c0.001 1.183 0.953 2.142 2.132 2.156h7.112l7.822 5.828c0.351 0.272 0.797 0.436 1.281 0.436 0.347 0 0.675-0.084 0.963-0.233 0.691-0.36 1.163-1.084 1.163-1.917 0-0.005-0-0.011-0-0.016v-27.667c0-0.005 0-0.010 0-0.015 0-0.833-0.472-1.557-1.163-1.917-0.289-0.15-0.617-0.234-0.965-0.234-0.485 0-0.931 0.164-1.287 0.44z"></path>
<path fill="#000" d="M29.104 5.852c-0.387-0.477-0.973-0.779-1.63-0.779-0.17 0-0.335 0.020-0.493 0.058-0.771 0.194-1.375 0.807-1.556 1.583-0.038 0.16-0.058 0.327-0.058 0.499 0 0.66 0.296 1.251 0.763 1.647 1.819 1.852 2.94 4.389 2.94 7.187s-1.121 5.336-2.938 7.186c-0.373 0.389-0.603 0.92-0.603 1.504s0.23 1.115 0.605 1.507c0.374 0.385 0.897 0.625 1.477 0.625s1.103-0.24 1.477-0.625c2.597-2.619 4.202-6.225 4.202-10.206 0-3.973-1.598-7.572-4.187-10.191z"></path>
<path fill="#000" d="M36.537 1.095c-0.372-0.39-0.897-0.633-1.477-0.633s-1.105 0.243-1.477 0.632c-0.375 0.391-0.605 0.922-0.605 1.507s0.23 1.115 0.605 1.507c3.028 3.083 4.897 7.314 4.897 11.982s-1.869 8.899-4.901 11.986c-0.367 0.387-0.594 0.915-0.594 1.495 0 0.293 0.058 0.572 0.163 0.828 0.31 0.758 1.045 1.297 1.908 1.324 0.005 0 0.007 0 0.009 0 0.575 0 1.095-0.233 1.471-0.61 3.79-3.863 6.129-9.16 6.129-15.004s-2.339-11.142-6.132-15.008z"></path>
</svg>
