<?xml version="1.0" encoding="utf-8"?>
<!-- Generated by IcoMoon.io -->
<!DOCTYPE svg PUBLIC "-//W3C//DTD SVG 1.1//EN" "http://www.w3.org/Graphics/SVG/1.1/DTD/svg11.dtd">
<svg version="1.1" xmlns="http://www.w3.org/2000/svg" xmlns:xlink="http://www.w3.org/1999/xlink" width="32" height="32" viewBox="0 0 32 32">
<path fill="#000" d="M16.768 0.384c-0.512 0-1.024 0-1.536 0-8.448 0.256-15.104 7.168-15.104 15.616s6.656 15.36 15.104 15.616c0.256 0 0.512 0 0.768 0s0.512 0 0.768 0c8.448-0.384 15.104-7.168 15.104-15.616s-6.656-15.36-15.104-15.616zM16 29.824v0c-0.256 0-0.384 0-0.512 0-7.296-0.384-13.056-6.4-13.056-13.696s5.76-13.44 13.056-13.824c0.256 0 0.512 0 0.768 0 0.128 0 0.256 0 0.384 0 5.632 0.128 10.368 3.584 12.416 8.576 0.128 0.384 0.256 0.64 0.384 1.024 0 0 0 0.128 0 0.128 0.128 0.384 0.256 0.768 0.256 1.152 0.256 0.896 0.256 1.92 0.256 2.944s-0.128 1.92-0.256 2.944c-0.128 0.384-0.128 0.768-0.256 1.152 0 0 0 0.128 0 0.128-0.128 0.384-0.256 0.64-0.384 1.024-2.048 4.864-6.784 8.32-12.416 8.576v0c-0.128 0-0.256 0-0.384 0h-0.256z"></path>
<path fill="#000" d="M28.288 20.864c-0.128 0.384-0.512 0.768-0.896 0.768 0 0-0.128 0-0.128 0s-0.128 0-0.256 0l-2.432-1.024c-0.512-0.256-0.768-0.768-0.512-1.28 0.128-0.512 0.768-0.768 1.28-0.512l2.048 0.896 0.384 0.128c0.384 0.128 0.64 0.512 0.512 1.024z"></path>
<path fill="#000" d="M8.32 19.84c0 0.384-0.256 0.64-0.64 0.768l-2.304 1.024c-0.128 0-0.256 0-0.256 0s-0.128 0-0.128 0c-0.384 0-0.768-0.384-0.896-0.768-0.128-0.512 0.128-0.896 0.512-1.024l2.688-1.152v0.128c0.256 0 0.384 0 0.64 0.128 0.256 0.256 0.384 0.64 0.384 0.896z"></path>
<path fill="#000" d="M24.576 7.68v0c-0.384-0.384-1.024-0.384-1.408 0l-5.76 5.76c-0.384-0.128-0.768-0.256-1.28-0.256-1.536 0-2.944 1.28-2.944 2.944s1.28 2.944 2.944 2.944 2.944-1.28 2.944-2.944c0-0.384-0.128-0.896-0.256-1.28l5.76-5.888c0.256-0.256 0.256-0.896 0-1.28zM16.128 17.024c-0.512 0-1.024-0.384-1.024-1.024s0.384-1.024 1.024-1.024c0.512 0 1.024 0.384 1.024 1.024 0 0.256-0.128 0.512-0.256 0.64-0.256 0.256-0.512 0.384-0.768 0.384z"></path>
<path fill="#000" d="M8.192 12.8c-0.128 0.384-0.512 0.64-0.896 0.64-0.128 0-0.256 0-0.384 0l-2.304-1.152c-0.384-0.128-0.64-0.384-0.64-0.768s0.128-0.64 0.384-0.896c0.256-0.256 0.64-0.256 1.024-0.128l2.304 1.024c0.512 0.128 0.64 0.768 0.512 1.28z"></path>
<path fill="#000" d="M28.416 11.52c0 0.384-0.256 0.64-0.64 0.768l-2.304 1.024c-0.128 0-0.256 0.128-0.384 0.128-0.384 0-0.768-0.256-0.896-0.64 0-0.128-0.128-0.256-0.128-0.384 0-0.384 0.256-0.768 0.64-0.896l2.304-1.024c0.256-0.128 0.64-0.128 1.024 0.128 0.256 0.256 0.384 0.512 0.384 0.896z"></path>
<path fill="#000" d="M13.312 7.808c-0.256 0.256-0.512 0.384-0.768 0.384 0 0-0.128 0-0.128 0-0.384 0-0.64-0.256-0.768-0.64l-1.024-2.432c-0.128-0.512 0-1.024 0.512-1.28s1.024 0 1.28 0.512l1.024 2.432c0.128 0.384 0 0.768-0.128 1.024z"></path>
<path fill="#000" d="M21.76 5.12l-1.024 2.304c-0.128 0.256-0.256 0.384-0.512 0.512-0.128 0-0.256 0.128-0.384 0.128s-0.256 0-0.384-0.128-0.384-0.256-0.512-0.512c-0.128-0.256-0.128-0.512 0-0.768l1.024-2.304c0.256-0.512 0.768-0.64 1.28-0.512 0.384 0.256 0.64 0.896 0.512 1.28z"></path>
<path fill="#000" d="M21.888 20.864h-11.52c-0.512 0-1.024 0.384-1.024 1.024v3.84c0 0.512 0.384 1.024 1.024 1.024h11.52c0.512 0 1.024-0.384 1.024-1.024v-3.84c0-0.64-0.512-1.024-1.024-1.024zM20.992 22.784v1.92h-9.6v-1.92h9.6z"></path>
</svg>
