<?xml version="1.0" encoding="utf-8"?>
<!-- Generated by IcoMoon.io -->
<!DOCTYPE svg PUBLIC "-//W3C//DTD SVG 1.1//EN" "http://www.w3.org/Graphics/SVG/1.1/DTD/svg11.dtd">
<svg version="1.1" xmlns="http://www.w3.org/2000/svg" xmlns:xlink="http://www.w3.org/1999/xlink" width="31" height="32" viewBox="0 0 31 32">
<path fill="#000" d="M5.873 4.487h10.396c0.047-0.001 0.092-0.009 0.135-0.022l-1.622 2.703c-0.040 0.072-0.064 0.158-0.064 0.249 0 0.287 0.233 0.52 0.52 0.52 0.181 0 0.341-0.093 0.434-0.233l2.080-3.472c0.046-0.076 0.073-0.168 0.073-0.267s-0.027-0.191-0.075-0.269l-2.078-3.468c-0.094-0.145-0.255-0.239-0.437-0.239-0.287 0-0.52 0.233-0.52 0.52 0 0.093 0.025 0.181 0.068 0.257l1.617 2.7c-0.039-0.012-0.084-0.019-0.131-0.021h-10.397c-0.287 0-0.521 0.233-0.521 0.521s0.233 0.521 0.521 0.521z"></path>
<path fill="#000" d="M1.929 10.846c0.039 0.012 0.084 0.019 0.131 0.021h10.399c0.287 0 0.521-0.233 0.521-0.521s-0.233-0.521-0.521-0.521h-10.396c-0.047 0.001-0.092 0.009-0.135 0.022l1.622-2.703c0.042-0.073 0.066-0.161 0.066-0.254 0-0.287-0.233-0.52-0.52-0.52-0.183 0-0.344 0.094-0.436 0.237l-2.081 3.472c-0.046 0.076-0.074 0.169-0.074 0.267s0.027 0.191 0.075 0.27l2.078 3.468c0.094 0.142 0.254 0.235 0.435 0.235 0.287 0 0.52-0.233 0.52-0.52 0-0.091-0.024-0.177-0.065-0.252z"></path>
<path fill="#000" d="M30.103 17.661l-7.347-4.491 0.981-3.671c0.049-0.175 0.077-0.376 0.077-0.583 0-1.244-1.009-2.253-2.253-2.253-1.037 0-1.91 0.701-2.173 1.654l-2.426 9.112c-0.119 0.452-0.525 0.781-1.007 0.781-0.052 0-0.103-0.004-0.153-0.011l-0.725-1.513c-0.4-0.821-1.228-1.376-2.186-1.376-0.381 0-0.741 0.088-1.062 0.244l-0.304 0.147c-0.819 0.403-1.372 1.231-1.372 2.188 0 0.382 0.088 0.743 0.245 1.064l3.834 7.991-0.478 1.791c-0.014 0.045-0.022 0.096-0.022 0.149 0 0.287 0.233 0.521 0.521 0.521 0.244 0 0.449-0.168 0.505-0.395l0.531-1.982c0.010-0.037 0.015-0.080 0.015-0.125 0-0.081-0.018-0.157-0.051-0.226l-3.925-8.175c-0.086-0.175-0.136-0.381-0.136-0.599 0-0.547 0.316-1.020 0.775-1.246l0.327-0.157c0.175-0.086 0.382-0.137 0.6-0.137 0.547 0 1.020 0.317 1.245 0.778l0.846 1.743c0.069 0.138 0.193 0.24 0.343 0.277l0.097 0.025c0.161 0.045 0.346 0.071 0.538 0.071 0.963 0 1.774-0.655 2.010-1.545l2.429-9.11c0.156-0.503 0.616-0.862 1.161-0.862 0.67 0 1.213 0.543 1.213 1.213 0 0.098-0.012 0.194-0.034 0.285l-2.132 7.973c-0.014 0.045-0.022 0.096-0.022 0.149 0 0.287 0.233 0.521 0.521 0.521 0.244 0 0.449-0.168 0.505-0.395l0.874-3.265 1.67 1.020c-0.040 0.052-0.071 0.114-0.089 0.181l-0.895 3.352c-0.012 0.041-0.018 0.088-0.018 0.137 0 0.24 0.162 0.441 0.382 0.502 0.043 0.012 0.088 0.018 0.135 0.018 0.002 0 0.003 0 0.004-0-0 0 0 0 0 0 0.239 0 0.441-0.162 0.501-0.382l0.874-3.265 1.677 1.041c-0.047 0.055-0.083 0.121-0.103 0.194l-0.891 3.339c-0.014 0.045-0.022 0.096-0.022 0.149 0 0.287 0.233 0.521 0.521 0.521 0.244 0 0.449-0.168 0.505-0.395l0.874-3.265 1.636 1-2.166 8.089-2.991 2.655c-0.074 0.066-0.128 0.152-0.155 0.25l-0.531 1.981c-0.014 0.045-0.022 0.096-0.022 0.149 0 0.287 0.233 0.521 0.521 0.521 0.244 0 0.449-0.168 0.505-0.395l0.489-1.829 2.991-2.655c0.074-0.066 0.128-0.152 0.155-0.25l2.303-8.623c0.013-0.043 0.020-0.093 0.020-0.144 0-0.194-0.106-0.364-0.264-0.453z"></path>
</svg>
