<?xml version="1.0" encoding="utf-8"?>
<!-- Generated by IcoMoon.io -->
<!DOCTYPE svg PUBLIC "-//W3C//DTD SVG 1.1//EN" "http://www.w3.org/Graphics/SVG/1.1/DTD/svg11.dtd">
<svg version="1.1" xmlns="http://www.w3.org/2000/svg" xmlns:xlink="http://www.w3.org/1999/xlink" width="21" height="32" viewBox="0 0 21 32">
<path fill="#000" d="M8.019 1.413c0.050-0.001 0.11-0.002 0.169-0.002 3.509 0 6.367 2.79 6.475 6.273l0 1.962c0.017 0.32 0.281 0.574 0.604 0.574s0.587-0.253 0.604-0.572l0-1.97c-0.239-4.151-3.663-7.427-7.852-7.427s-7.614 3.276-7.851 7.406l-0.001 2.461c0.017 0.32 0.281 0.574 0.604 0.574s0.587-0.253 0.604-0.572l0-2.442c0.118-3.486 2.972-6.267 6.475-6.267 0.060 0 0.119 0.001 0.178 0.002z"></path>
<path fill="#000" d="M20.203 14.788l-9.592-2.664v-4.172c-0.078-1.385-1.22-2.478-2.618-2.478s-2.539 1.093-2.617 2.471l-0 8.487h-0.065c-0.022-0-0.047-0.001-0.073-0.001-1.905 0-3.458 1.509-3.527 3.398l-0 5.312c-0.001 0.009-0.001 0.020-0.001 0.030s0 0.021 0.001 0.032l-0 0.105 0.024 0.054 0.028 0.046 0.036 0.050v0.027l3.318 3.646v2.033c0.012 0.324 0.278 0.583 0.604 0.583s0.592-0.258 0.604-0.582l0-2.247c0-0.003 0-0.006 0-0.009 0-0.144-0.055-0.275-0.145-0.373l-3.318-3.646v-5.032c0.038-1.257 1.066-2.262 2.328-2.262 0.022 0 0.044 0 0.066 0.001l0.060-0v2.828c0.012 0.324 0.278 0.583 0.604 0.583s0.592-0.258 0.604-0.582l0-12.473c0.041-0.747 0.656-1.337 1.41-1.337s1.369 0.59 1.409 1.333l0 9.066c0.020 0.318 0.283 0.568 0.604 0.568s0.584-0.25 0.604-0.566l0-3.702 2.134 0.594v4.050c0.012 0.324 0.278 0.583 0.604 0.583s0.592-0.258 0.604-0.582l0-3.701 2.134 0.594v4.038c0.017 0.32 0.281 0.574 0.604 0.574s0.587-0.253 0.604-0.572l0-3.701 2.134 0.594v9.185l-2.505 3.654c-0.063 0.088-0.1 0.197-0.101 0.315v2.246c0.020 0.318 0.283 0.568 0.604 0.568s0.584-0.25 0.604-0.566l0-2.076 2.557-3.661c0.063-0.088 0.1-0.197 0.101-0.315v-9.793c-0.002-0.264-0.183-0.486-0.427-0.551z"></path>
</svg>
