<?xml version="1.0" encoding="utf-8"?>
<!-- Generated by IcoMoon.io -->
<!DOCTYPE svg PUBLIC "-//W3C//DTD SVG 1.1//EN" "http://www.w3.org/Graphics/SVG/1.1/DTD/svg11.dtd">
<svg version="1.1" xmlns="http://www.w3.org/2000/svg" xmlns:xlink="http://www.w3.org/1999/xlink" width="31" height="32" viewBox="0 0 31 32">
<path fill="#000" d="M30.428 10.715c-0.178-0.711-0.889-1.067-1.6-0.889s-1.067 0.889-0.889 1.6c0 0 0 0 0 0.178 2.667 6.756-0.889 14.4-7.644 17.067s-14.4-0.889-17.067-7.644c-2.667-6.756 0.889-14.4 7.644-17.067 3.022-1.244 6.4-1.067 9.422 0l-0.889 1.6c-0.178 0.356 0 0.711 0.356 0.533l4.267-0.711c0.356 0 0.711-0.356 0.533-0.711 0 0 0-0.178 0-0.178l-1.422-4.089c-0.178-0.533-0.533-0.533-0.711 0l-0.889 1.422c-8-3.378-17.244 0.356-20.622 8.356s0.356 17.244 8.356 20.622c8 3.378 17.244-0.356 20.622-8.356 1.956-3.733 1.956-8 0.533-11.733v0z"></path>
<path fill="#000" d="M15.317 7.337c-0.711 0-1.244 0.533-1.244 1.244v8.533c0 0.178 0 0.356 0.178 0.356l7.822 4.089c0.178 0.178 0.356 0.178 0.533 0.178v0c0.711 0 1.244-0.533 1.244-1.244 0-0.533-0.178-0.889-0.711-1.067l-6.756-3.378v-7.289c0.178-0.889-0.356-1.422-1.067-1.422 0 0 0 0 0 0z"></path>
</svg>
