<?xml version="1.0" encoding="utf-8"?>
<!-- Generated by IcoMoon.io -->
<!DOCTYPE svg PUBLIC "-//W3C//DTD SVG 1.1//EN" "http://www.w3.org/Graphics/SVG/1.1/DTD/svg11.dtd">
<svg version="1.1" xmlns="http://www.w3.org/2000/svg" xmlns:xlink="http://www.w3.org/1999/xlink" width="52" height="32" viewBox="0 0 52 32">
<path d="M40.010 22.020c-1.873 0.069-3.366 1.605-3.366 3.489 0 1.928 1.563 3.491 3.491 3.491s3.491-1.563 3.491-3.491c0-0 0-0 0-0-0.032-1.934-1.606-3.489-3.545-3.489-0.025 0-0.050 0-0.075 0.001z"></path>
<path d="M39.665 7.515h-6.252c-0.004-0-0.009-0-0.014-0-0.456 0-0.827 0.365-0.836 0.82l-0 16.012c0.009 0.455 0.38 0.82 0.837 0.82 0.005 0 0.010-0 0.015-0h0.902c0.006 0 0.014 0 0.022 0 0.414 0 0.757-0.299 0.826-0.693 0.451-2.303 2.449-4.013 4.846-4.013s4.395 1.71 4.84 3.977c0.075 0.43 0.419 0.729 0.832 0.729 0.007 0 0.015-0 0.023-0l0.902 0c0.004 0 0.009 0 0.014 0 0.456 0 0.827-0.365 0.836-0.82l0-8.006c0 0 0 0 0 0 0-0.202-0.075-0.387-0.199-0.528l-6.939-8.005c-0.159-0.181-0.392-0.295-0.651-0.295-0.001 0-0.001 0-0.001 0zM34.266 14.083v-4.108c0.009-0.455 0.38-0.82 0.837-0.82 0.005 0 0.010 0 0.015 0h3.748c0.001 0 0.003-0 0.005-0 0.259 0 0.491 0.114 0.649 0.295l3.546 4.109c0.122 0.139 0.197 0.323 0.197 0.524 0 0.128-0.030 0.248-0.083 0.355-0.141 0.278-0.429 0.468-0.762 0.468-0.002 0-0.005 0-0.007-0h-7.291c-0.004 0-0.009 0-0.014 0-0.456 0-0.827-0.365-0.836-0.82z"></path>
<path d="M5.761 25.168h2.179c0.007 0 0.014 0 0.022 0 0.413 0 0.756-0.298 0.826-0.69 0.451-2.303 2.449-4.013 4.846-4.013s4.395 1.71 4.84 3.977c0.076 0.429 0.419 0.726 0.832 0.726 0.008 0 0.015-0 0.023-0l10.687 0c0.004 0 0.009 0 0.014 0 0.456 0 0.827-0.365 0.836-0.82l0-20.526c-0.009-0.455-0.38-0.82-0.837-0.82-0.005 0-0.010 0-0.015 0h-24.255c-0.004-0-0.009-0-0.014-0-0.456 0-0.827 0.365-0.836 0.82l-0 20.526c0.009 0.455 0.38 0.82 0.837 0.82 0.005 0 0.010-0 0.015-0z"></path>
<path d="M13.632 22.020c-1.872 0.071-3.363 1.606-3.363 3.489 0 1.928 1.563 3.491 3.491 3.491s3.49-1.562 3.491-3.489c-0.030-1.935-1.606-3.492-3.545-3.492-0.026 0-0.052 0-0.077 0.001z"></path>
</svg>
