<?xml version="1.0" encoding="utf-8"?>
<!-- Generated by IcoMoon.io -->
<!DOCTYPE svg PUBLIC "-//W3C//DTD SVG 1.1//EN" "http://www.w3.org/Graphics/SVG/1.1/DTD/svg11.dtd">
<svg version="1.1" xmlns="http://www.w3.org/2000/svg" xmlns:xlink="http://www.w3.org/1999/xlink" width="45" height="32" viewBox="0 0 45 32">
<path stroke="#000" fill="#000" stroke-width="0.9143" stroke-miterlimit="4" stroke-linecap="butt" stroke-linejoin="miter" d="M34.995 7.793c-0.163-0.162-0.325-0.325-0.65-0.162h-4.875v-3.738c0-0.975-0.65-1.625-1.625-1.625h-23.401c-0.975 0-1.625 0.65-1.625 1.625v19.826c0 0.975 0.65 1.625 1.625 1.625h2.925v0.163c0.325 2.763 2.925 4.713 5.85 4.388 2.275-0.325 4.063-2.113 4.388-4.388v-0.163h12.351v0.163c0.325 2.763 2.925 4.713 5.85 4.388 2.275-0.325 4.063-2.113 4.388-4.388v-0.163h0.163c0.975 0 1.625-0.65 1.625-1.625v-8.613c0-0.162 0-0.488-0.163-0.65l-6.825-6.663zM12.569 28.269c-1.95 0-3.575-1.625-3.575-3.575s1.625-3.575 3.575-3.575c1.95 0 3.575 1.625 3.575 3.575s-1.625 3.575-3.575 3.575v0zM28.007 23.719h-10.401c-0.488-2.763-3.088-4.713-5.85-4.225-2.275 0.325-3.9 2.113-4.225 4.225h-2.925v-19.826h23.401v19.826zM29.632 9.093h4.55l5.2 5.363h-9.751v-5.363zM37.758 27.132c-0.65 0.65-1.625 1.138-2.6 1.138-1.95 0-3.575-1.625-3.575-3.575s1.625-3.575 3.575-3.575c1.95 0 3.575 1.625 3.575 3.575 0 0.813-0.325 1.788-0.975 2.438v0zM40.52 24.044l-0.163-0.975c-0.65-2.763-3.575-4.388-6.338-3.738-1.95 0.488-3.413 2.113-3.738 4.225v0.163h-0.488v-7.475h10.725v7.8z"></path>
</svg>
