<?xml version="1.0" encoding="utf-8"?>
<!-- Generated by IcoMoon.io -->
<!DOCTYPE svg PUBLIC "-//W3C//DTD SVG 1.1//EN" "http://www.w3.org/Graphics/SVG/1.1/DTD/svg11.dtd">
<svg version="1.1" xmlns="http://www.w3.org/2000/svg" xmlns:xlink="http://www.w3.org/1999/xlink" width="38" height="32" viewBox="0 0 38 32">
<path d="M33.113 2.205h-28.131c-1.353 0-2.57 1.082-2.57 2.434v22.721c0 1.353 1.082 2.434 2.57 2.434h28.131c1.353 0 2.57-1.082 2.57-2.434v-22.721c0-1.353-1.217-2.434-2.57-2.434zM26.216 4.098h3.381l-1.082 3.922h-3.381l1.082-3.922zM20.67 4.098h3.381l-1.082 3.922h-3.381l1.082-3.922zM15.125 4.098h3.381l-1.082 3.922h-3.381l1.082-3.922zM9.58 4.098h3.381l-0.947 3.922h-3.516l1.082-3.922zM4.576 4.639c0-0.27 0.27-0.406 0.541-0.406h2.434l-1.082 3.787h-1.893v-3.381zM33.519 27.361c0 0.27-0.27 0.406-0.541 0.406h-27.996c-0.27 0-0.541-0.27-0.541-0.406v-17.311h29.078v17.311zM33.519 8.020h-2.975l1.082-3.922h1.488c0.135 0 0.27 0 0.406 0.135s0.135 0.27 0.135 0.27v3.516z"></path>
<path d="M24.457 17.623l-7.98-3.922c-0.27-0.135-0.676-0.135-1.082 0-0.135 0.135-0.406 0.541-0.406 0.811v7.98c0 0.406 0.135 0.676 0.406 0.811s0.406 0.135 0.676 0.135v0c0.135 0 0.27 0 0.406-0.135l7.98-3.922c0.406-0.135 0.541-0.541 0.541-0.947 0.135-0.27-0.135-0.676-0.541-0.811zM21.752 18.434l-4.734 2.434v-4.734l4.734 2.299z"></path>
</svg>
